<svg version="1.1" viewBox="0.0 0.0 662.0 410.0" fill="none" stroke="none" stroke-linecap="square" stroke-miterlimit="10" width="662" height="410" xmlns:xlink="http://www.w3.org/1999/xlink" xmlns="http://www.w3.org/2000/svg"><path fill="#ffffff" d="M0 0L662.0 0L662.0 410.0L0 410.0L0 0Z" fill-rule="nonzero"/><path stroke="#cccccc" stroke-width="1.0" stroke-linecap="butt" d="M147.5 65.5L147.5 337.5" fill-rule="nonzero"/><path stroke="#cccccc" stroke-width="1.0" stroke-linecap="butt" d="M299.5 65.5L299.5 337.5" fill-rule="nonzero"/><path stroke="#333333" stroke-width="1.0" stroke-linecap="butt" d="M452.5 65.5L452.5 337.5" fill-rule="nonzero"/><path stroke="#cccccc" stroke-width="1.0" stroke-linecap="butt" d="M605.5 65.5L605.5 337.5" fill-rule="nonzero"/><path stroke="#cccccc" stroke-width="1.0" stroke-linecap="butt" d="M79.5 337.5L641.5 337.5" fill-rule="nonzero"/><path stroke="#cccccc" stroke-width="1.0" stroke-linecap="butt" d="M79.5 269.5L641.5 269.5" fill-rule="nonzero"/><path stroke="#333333" stroke-width="1.0" stroke-linecap="butt" d="M79.5 201.5L641.5 201.5" fill-rule="nonzero"/><path stroke="#cccccc" stroke-width="1.0" stroke-linecap="butt" d="M79.5 133.5L641.5 133.5" fill-rule="nonzero"/><path stroke="#cccccc" stroke-width="1.0" stroke-linecap="butt" d="M79.5 65.5L641.5 65.5" fill-rule="nonzero"/><clipPath id="id_0"><path d="M79.5 65.166664L641.5 65.166664L641.5 337.5L79.5 337.5L79.5 65.166664Z" clip-rule="nonzero"/></clipPath><path stroke="#4285f4" stroke-width="2.0" stroke-linecap="butt" stroke-opacity="0.4" clip-path="url(#id_0)" d="M0 404.1374L641.5 115.95529" fill-rule="nonzero"/><path fill="#4285f4" clip-path="url(#id_0)" d="M90.829865 333.52792C90.829865 336.0132 88.81514 338.02792 86.329865 338.02792C83.84458 338.02792 81.829865 336.0132 81.829865 333.52792C81.829865 331.04266 83.84458 329.02792 86.329865 329.02792C88.81514 329.02792 90.829865 331.04266 90.829865 333.52792Z" fill-rule="nonzero"/><path fill="#4285f4" clip-path="url(#id_0)" d="M292.84998 280.38577C292.84998 282.87106 290.83524 284.88577 288.34998 284.88577C285.8647 284.88577 283.84998 282.87106 283.84998 280.38577C283.84998 277.90048 285.8647 275.88577 288.34998 275.88577C290.83524 275.88577 292.84998 277.90048 292.84998 280.38577Z" fill-rule="nonzero"/><path fill="#4285f4" clip-path="url(#id_0)" d="M321.71 271.17004C321.71 273.65533 319.69525 275.67004 317.21 275.67004C314.7247 275.67004 312.71 273.65533 312.71 271.17004C312.71 268.68478 314.7247 266.67004 317.21 266.67004C319.69525 266.67004 321.71 268.68478 321.71 271.17004Z" fill-rule="nonzero"/><path fill="#4285f4" clip-path="url(#id_0)" d="M321.71 265.31024C321.71 267.7955 319.69525 269.81024 317.21 269.81024C314.7247 269.81024 312.71 267.7955 312.71 265.31024C312.71 262.82495 314.7247 260.81024 317.21 260.81024C319.69525 260.81024 321.71 262.82495 321.71 265.31024Z" fill-rule="nonzero"/><path fill="#4285f4" clip-path="url(#id_0)" d="M321.71 260.8969C321.71 263.3822 319.69525 265.3969 317.21 265.3969C314.7247 265.3969 312.71 263.3822 312.71 260.8969C312.71 258.41165 314.7247 256.3969 317.21 256.3969C319.69525 256.3969 321.71 258.41165 321.71 260.8969Z" fill-rule="nonzero"/><path fill="#4285f4" clip-path="url(#id_0)" d="M350.57 257.30417C350.57 259.78946 348.55527 261.80417 346.07 261.80417C343.58472 261.80417 341.57 259.78946 341.57 257.30417C341.57 254.8189 343.58472 252.80417 346.07 252.80417C348.55527 252.80417 350.57 254.8189 350.57 257.30417Z" fill-rule="nonzero"/><path fill="#4285f4" clip-path="url(#id_0)" d="M350.57 254.24437C350.57 256.72964 348.55527 258.74435 346.07 258.74435C343.58472 258.74435 341.57 256.72964 341.57 254.24437C341.57 251.75908 343.58472 249.74437 346.07 249.74437C348.55527 249.74437 350.57 251.75908 350.57 254.24437Z" fill-rule="nonzero"/><path fill="#4285f4" clip-path="url(#id_0)" d="M350.57 251.56029C350.57 254.04556 348.55527 256.06027 346.07 256.06027C343.58472 256.06027 341.57 254.04556 341.57 251.56029C341.57 249.075 343.58472 247.06029 346.07 247.06029C348.55527 247.06029 350.57 249.075 350.57 251.56029Z" fill-rule="nonzero"/><path fill="#4285f4" clip-path="url(#id_0)" d="M350.57 249.15613C350.57 251.64142 348.55527 253.65613 346.07 253.65613C343.58472 253.65613 341.57 251.64142 341.57 249.15613C341.57 246.67085 343.58472 244.65613 346.07 244.65613C348.55527 244.65613 350.57 246.67085 350.57 249.15613Z" fill-rule="nonzero"/><path fill="#4285f4" clip-path="url(#id_0)" d="M350.57 246.96901C350.57 249.4543 348.55527 251.46901 346.07 251.46901C343.58472 251.46901 341.57 249.4543 341.57 246.96901C341.57 244.48373 343.58472 242.46901 346.07 242.46901C348.55527 242.46901 350.57 244.48373 350.57 246.96901Z" fill-rule="nonzero"/><path fill="#4285f4" clip-path="url(#id_0)" d="M379.43 244.95528C379.43 247.44057 377.41528 249.45528 374.93 249.45528C372.44473 249.45528 370.43 247.44057 370.43 244.95528C370.43 242.47 372.44473 240.45528 374.93 240.45528C377.41528 240.45528 379.43 242.47 379.43 244.95528Z" fill-rule="nonzero"/><path fill="#4285f4" clip-path="url(#id_0)" d="M379.43 243.08336C379.43 245.56863 377.41528 247.58336 374.93 247.58336C372.44473 247.58336 370.43 245.56863 370.43 243.08336C370.43 240.59808 372.44473 238.58336 374.93 238.58336C377.41528 238.58336 379.43 240.59808 379.43 243.08336Z" fill-rule="nonzero"/><path fill="#4285f4" clip-path="url(#id_0)" d="M379.43 241.32962C379.43 243.8149 377.41528 245.82962 374.93 245.82962C372.44473 245.82962 370.43 243.8149 370.43 241.32962C370.43 238.84433 372.44473 236.82962 374.93 236.82962C377.41528 236.82962 379.43 238.84433 379.43 241.32962Z" fill-rule="nonzero"/><path fill="#4285f4" clip-path="url(#id_0)" d="M379.43 239.67587C379.43 242.16115 377.41528 244.17587 374.93 244.17587C372.44473 244.17587 370.43 242.16115 370.43 239.67587C370.43 237.1906 372.44473 235.17587 374.93 235.17587C377.41528 235.17587 379.43 237.1906 379.43 239.67587Z" fill-rule="nonzero"/><path fill="#4285f4" clip-path="url(#id_0)" d="M379.43 238.10785C379.43 240.59312 377.41528 242.60785 374.93 242.60785C372.44473 242.60785 370.43 240.59312 370.43 238.10785C370.43 235.62256 372.44473 233.60785 374.93 233.60785C377.41528 233.60785 379.43 235.62256 379.43 238.10785Z" fill-rule="nonzero"/><path fill="#4285f4" clip-path="url(#id_0)" d="M379.43 236.61407C379.43 239.09937 377.41528 241.11407 374.93 241.11407C372.44473 241.11407 370.43 239.09937 370.43 236.61407C370.43 234.1288 372.44473 232.11407 374.93 232.11407C377.41528 232.11407 379.43 234.1288 379.43 236.61407Z" fill-rule="nonzero"/><path fill="#4285f4" clip-path="url(#id_0)" d="M379.43 235.18523C379.43 237.67052 377.41528 239.68523 374.93 239.68523C372.44473 239.68523 370.43 237.67052 370.43 235.18523C370.43 232.69995 372.44473 230.68523 374.93 230.68523C377.41528 230.68523 379.43 232.69995 379.43 235.18523Z" fill-rule="nonzero"/><path fill="#4285f4" clip-path="url(#id_0)" d="M379.43 233.81358C379.43 236.29886 377.41528 238.31358 374.93 238.31358C372.44473 238.31358 370.43 236.29886 370.43 233.81358C370.43 231.32831 372.44473 229.31358 374.93 229.31358C377.41528 229.31358 379.43 231.32831 379.43 233.81358Z" fill-rule="nonzero"/><path fill="#4285f4" clip-path="url(#id_0)" d="M379.43 232.49268C379.43 234.97797 377.41528 236.99268 374.93 236.99268C372.44473 236.99268 370.43 234.97797 370.43 232.49268C370.43 230.0074 372.44473 227.99268 374.93 227.99268C377.41528 227.99268 379.43 230.0074 379.43 232.49268Z" fill-rule="nonzero"/><path fill="#4285f4" clip-path="url(#id_0)" d="M408.29 231.21706C408.29 233.70233 406.2753 235.71706 403.79 235.71706C401.30475 235.71706 399.29 233.70233 399.29 231.21706C399.29 228.73177 401.30475 226.71706 403.79 226.71706C406.2753 226.71706 408.29 228.73177 408.29 231.21706Z" fill-rule="nonzero"/><path fill="#4285f4" clip-path="url(#id_0)" d="M408.29 229.98203C408.29 232.46732 406.2753 234.48203 403.79 234.48203C401.30475 234.48203 399.29 232.46732 399.29 229.98203C399.29 227.49675 401.30475 225.48203 403.79 225.48203C406.2753 225.48203 408.29 227.49675 408.29 229.98203Z" fill-rule="nonzero"/><path fill="#4285f4" clip-path="url(#id_0)" d="M408.29 228.78358C408.29 231.26886 406.2753 233.28358 403.79 233.28358C401.30475 233.28358 399.29 231.26886 399.29 228.78358C399.29 226.2983 401.30475 224.28358 403.79 224.28358C406.2753 224.28358 408.29 226.2983 408.29 228.78358Z" fill-rule="nonzero"/><path fill="#4285f4" clip-path="url(#id_0)" d="M408.29 227.61821C408.29 230.10349 406.2753 232.11821 403.79 232.11821C401.30475 232.11821 399.29 230.10349 399.29 227.61821C399.29 225.13292 401.30475 223.11821 403.79 223.11821C406.2753 223.11821 408.29 225.13292 408.29 227.61821Z" fill-rule="nonzero"/><path fill="#4285f4" clip-path="url(#id_0)" d="M408.29 226.48283C408.29 228.96812 406.2753 230.98283 403.79 230.98283C401.30475 230.98283 399.29 228.96812 399.29 226.48283C399.29 223.99756 401.30475 221.98283 403.79 221.98283C406.2753 221.98283 408.29 223.99756 408.29 226.48283Z" fill-rule="nonzero"/><path fill="#4285f4" clip-path="url(#id_0)" d="M408.29 225.37477C408.29 227.86005 406.2753 229.87477 403.79 229.87477C401.30475 229.87477 399.29 227.86005 399.29 225.37477C399.29 222.8895 401.30475 220.87477 403.79 220.87477C406.2753 220.87477 408.29 222.8895 408.29 225.37477Z" fill-rule="nonzero"/><path fill="#4285f4" clip-path="url(#id_0)" d="M408.29 224.29161C408.29 226.77689 406.2753 228.79161 403.79 228.79161C401.30475 228.79161 399.29 226.77689 399.29 224.29161C399.29 221.80632 401.30475 219.79161 403.79 219.79161C406.2753 219.79161 408.29 221.80632 408.29 224.29161Z" fill-rule="nonzero"/><path fill="#4285f4" clip-path="url(#id_0)" d="M408.29 223.2312C408.29 225.71649 406.2753 227.7312 403.79 227.7312C401.30475 227.7312 399.29 225.71649 399.29 223.2312C399.29 220.74593 401.30475 218.7312 403.79 218.7312C406.2753 218.7312 408.29 220.74593 408.29 223.2312Z" fill-rule="nonzero"/><path fill="#4285f4" clip-path="url(#id_0)" d="M408.29 222.19165C408.29 224.67693 406.2753 226.69165 403.79 226.69165C401.30475 226.69165 399.29 224.67693 399.29 222.19165C399.29 219.70636 401.30475 217.69165 403.79 217.69165C406.2753 217.69165 408.29 219.70636 408.29 222.19165Z" fill-rule="nonzero"/><path fill="#4285f4" clip-path="url(#id_0)" d="M408.29 221.17119C408.29 223.65646 406.2753 225.67119 403.79 225.67119C401.30475 225.67119 399.29 223.65646 399.29 221.17119C399.29 218.68591 401.30475 216.67119 403.79 216.67119C406.2753 216.67119 408.29 218.68591 408.29 221.17119Z" fill-rule="nonzero"/><path fill="#4285f4" clip-path="url(#id_0)" d="M408.29 220.16826C408.29 222.65355 406.2753 224.66826 403.79 224.66826C401.30475 224.66826 399.29 222.65355 399.29 220.16826C399.29 217.68298 401.30475 215.66826 403.79 215.66826C406.2753 215.66826 408.29 217.68298 408.29 220.16826Z" fill-rule="nonzero"/><path fill="#4285f4" clip-path="url(#id_0)" d="M408.29 219.18144C408.29 221.66672 406.2753 223.68144 403.79 223.68144C401.30475 223.68144 399.29 221.66672 399.29 219.18144C399.29 216.69617 401.30475 214.68144 403.79 214.68144C406.2753 214.68144 408.29 216.69617 408.29 219.18144Z" fill-rule="nonzero"/><path fill="#4285f4" clip-path="url(#id_0)" d="M408.29 218.20941C408.29 220.69469 406.2753 222.70941 403.79 222.70941C401.30475 222.70941 399.29 220.69469 399.29 218.20941C399.29 215.72412 401.30475 213.70941 403.79 213.70941C406.2753 213.70941 408.29 215.72412 408.29 218.20941Z" fill-rule="nonzero"/><path fill="#4285f4" clip-path="url(#id_0)" d="M437.15002 217.25095C437.15002 219.73624 435.1353 221.75095 432.65002 221.75095C430.16476 221.75095 428.15002 219.73624 428.15002 217.25095C428.15002 214.76567 430.16476 212.75095 432.65002 212.75095C435.1353 212.75095 437.15002 214.76567 437.15002 217.25095Z" fill-rule="nonzero"/><path fill="#4285f4" clip-path="url(#id_0)" d="M437.15002 216.30496C437.15002 218.79025 435.1353 220.80496 432.65002 220.80496C430.16476 220.80496 428.15002 218.79025 428.15002 216.30496C428.15002 213.81969 430.16476 211.80496 432.65002 211.80496C435.1353 211.80496 437.15002 213.81969 437.15002 216.30496Z" fill-rule="nonzero"/><path fill="#4285f4" clip-path="url(#id_0)" d="M437.15002 215.37042C437.15002 217.8557 435.1353 219.87042 432.65002 219.87042C430.16476 219.87042 428.15002 217.8557 428.15002 215.37042C428.15002 212.88515 430.16476 210.87042 432.65002 210.87042C435.1353 210.87042 437.15002 212.88515 437.15002 215.37042Z" fill-rule="nonzero"/><path fill="#4285f4" clip-path="url(#id_0)" d="M437.15002 214.44635C437.15002 216.93164 435.1353 218.94635 432.65002 218.94635C430.16476 218.94635 428.15002 216.93164 428.15002 214.44635C428.15002 211.96107 430.16476 209.94635 432.65002 209.94635C435.1353 209.94635 437.15002 211.96107 437.15002 214.44635Z" fill-rule="nonzero"/><path fill="#4285f4" clip-path="url(#id_0)" d="M437.15002 213.53186C437.15002 216.01714 435.1353 218.03186 432.65002 218.03186C430.16476 218.03186 428.15002 216.01714 428.15002 213.53186C428.15002 211.04659 430.16476 209.03186 432.65002 209.03186C435.1353 209.03186 437.15002 211.04659 437.15002 213.53186Z" fill-rule="nonzero"/><path fill="#4285f4" clip-path="url(#id_0)" d="M437.15002 212.6261C437.15002 215.11139 435.1353 217.1261 432.65002 217.1261C430.16476 217.1261 428.15002 215.11139 428.15002 212.6261C428.15002 210.14082 430.16476 208.1261 432.65002 208.1261C435.1353 208.1261 437.15002 210.14082 437.15002 212.6261Z" fill-rule="nonzero"/><path fill="#4285f4" clip-path="url(#id_0)" d="M437.15002 211.72829C437.15002 214.21356 435.1353 216.22829 432.65002 216.22829C430.16476 216.22829 428.15002 214.21356 428.15002 211.72829C428.15002 209.243 430.16476 207.22829 432.65002 207.22829C435.1353 207.22829 437.15002 209.243 437.15002 211.72829Z" fill-rule="nonzero"/><path fill="#4285f4" clip-path="url(#id_0)" d="M437.15002 210.83765C437.15002 213.32292 435.1353 215.33765 432.65002 215.33765C430.16476 215.33765 428.15002 213.32292 428.15002 210.83765C428.15002 208.35237 430.16476 206.33765 432.65002 206.33765C435.1353 206.33765 437.15002 208.35237 437.15002 210.83765Z" fill-rule="nonzero"/><path fill="#4285f4" clip-path="url(#id_0)" d="M437.15002 209.95349C437.15002 212.43877 435.1353 214.45349 432.65002 214.45349C430.16476 214.45349 428.15002 212.43877 428.15002 209.95349C428.15002 207.4682 430.16476 205.45349 432.65002 205.45349C435.1353 205.45349 437.15002 207.4682 437.15002 209.95349Z" fill-rule="nonzero"/><path fill="#4285f4" clip-path="url(#id_0)" d="M437.15002 209.0751C437.15002 211.5604 435.1353 213.5751 432.65002 213.5751C430.16476 213.5751 428.15002 211.5604 428.15002 209.0751C428.15002 206.58983 430.16476 204.5751 432.65002 204.5751C435.1353 204.5751 437.15002 206.58983 437.15002 209.0751Z" fill-rule="nonzero"/><path fill="#4285f4" clip-path="url(#id_0)" d="M437.15002 208.20187C437.15002 210.68715 435.1353 212.70187 432.65002 212.70187C430.16476 212.70187 428.15002 210.68715 428.15002 208.20187C428.15002 205.71658 430.16476 203.70187 432.65002 203.70187C435.1353 203.70187 437.15002 205.71658 437.15002 208.20187Z" fill-rule="nonzero"/><path fill="#4285f4" clip-path="url(#id_0)" d="M437.15002 207.33315C437.15002 209.81842 435.1353 211.83315 432.65002 211.83315C430.16476 211.83315 428.15002 209.81842 428.15002 207.33315C428.15002 204.84785 430.16476 202.83315 432.65002 202.83315C435.1353 202.83315 437.15002 204.84785 437.15002 207.33315Z" fill-rule="nonzero"/><path fill="#4285f4" clip-path="url(#id_0)" d="M437.15002 206.4683C437.15002 208.95358 435.1353 210.9683 432.65002 210.9683C430.16476 210.9683 428.15002 208.95358 428.15002 206.4683C428.15002 203.98302 430.16476 201.9683 432.65002 201.9683C435.1353 201.9683 437.15002 203.98302 437.15002 206.4683Z" fill-rule="nonzero"/><path fill="#4285f4" clip-path="url(#id_0)" d="M437.15002 205.60678C437.15002 208.09206 435.1353 210.10678 432.65002 210.10678C430.16476 210.10678 428.15002 208.09206 428.15002 205.60678C428.15002 203.1215 430.16476 201.10678 432.65002 201.10678C435.1353 201.10678 437.15002 203.1215 437.15002 205.60678Z" fill-rule="nonzero"/><path fill="#4285f4" clip-path="url(#id_0)" d="M437.15002 204.74799C437.15002 207.23328 435.1353 209.24799 432.65002 209.24799C430.16476 209.24799 428.15002 207.23328 428.15002 204.74799C428.15002 202.26271 430.16476 200.24799 432.65002 200.24799C435.1353 200.24799 437.15002 202.26271 437.15002 204.74799Z" fill-rule="nonzero"/><path fill="#4285f4" clip-path="url(#id_0)" d="M437.15002 203.89137C437.15002 206.37665 435.1353 208.39137 432.65002 208.39137C430.16476 208.39137 428.15002 206.37665 428.15002 203.89137C428.15002 201.4061 430.16476 199.39137 432.65002 199.39137C435.1353 199.39137 437.15002 201.4061 437.15002 203.89137Z" fill-rule="nonzero"/><path fill="#4285f4" clip-path="url(#id_0)" d="M466.01004 203.03638C466.01004 205.52165 463.99533 207.53638 461.51004 207.53638C459.02478 207.53638 457.01004 205.52165 457.01004 203.03638C457.01004 200.55109 459.02478 198.53638 461.51004 198.53638C463.99533 198.53638 466.01004 200.55109 466.01004 203.03638Z" fill-rule="nonzero"/><path fill="#4285f4" clip-path="url(#id_0)" d="M466.01004 202.18245C466.01004 204.66774 463.99533 206.68245 461.51004 206.68245C459.02478 206.68245 457.01004 204.66774 457.01004 202.18245C457.01004 199.69717 459.02478 197.68245 461.51004 197.68245C463.99533 197.68245 466.01004 199.69717 466.01004 202.18245Z" fill-rule="nonzero"/><path fill="#4285f4" clip-path="url(#id_0)" d="M466.01004 201.32907C466.01004 203.81435 463.99533 205.82907 461.51004 205.82907C459.02478 205.82907 457.01004 203.81435 457.01004 201.32907C457.01004 198.84378 459.02478 196.82907 461.51004 196.82907C463.99533 196.82907 466.01004 198.84378 466.01004 201.32907Z" fill-rule="nonzero"/><path fill="#4285f4" clip-path="url(#id_0)" d="M466.01004 200.47568C466.01004 202.96095 463.99533 204.97568 461.51004 204.97568C459.02478 204.97568 457.01004 202.96095 457.01004 200.47568C457.01004 197.9904 459.02478 195.97568 461.51004 195.97568C463.99533 195.97568 466.01004 197.9904 466.01004 200.47568Z" fill-rule="nonzero"/><path fill="#4285f4" clip-path="url(#id_0)" d="M466.01004 199.62175C466.01004 202.10703 463.99533 204.12175 461.51004 204.12175C459.02478 204.12175 457.01004 202.10703 457.01004 199.62175C457.01004 197.13646 459.02478 195.12175 461.51004 195.12175C463.99533 195.12175 466.01004 197.13646 466.01004 199.62175Z" fill-rule="nonzero"/><path fill="#4285f4" clip-path="url(#id_0)" d="M466.01004 198.76674C466.01004 201.25201 463.99533 203.26674 461.51004 203.26674C459.02478 203.26674 457.01004 201.25201 457.01004 198.76674C457.01004 196.28146 459.02478 194.26674 461.51004 194.26674C463.99533 194.26674 466.01004 196.28146 466.01004 198.76674Z" fill-rule="nonzero"/><path fill="#4285f4" clip-path="url(#id_0)" d="M466.01004 197.9101C466.01004 200.39539 463.99533 202.4101 461.51004 202.4101C459.02478 202.4101 457.01004 200.39539 457.01004 197.9101C457.01004 195.42482 459.02478 193.4101 461.51004 193.4101C463.99533 193.4101 466.01004 195.42482 466.01004 197.9101Z" fill-rule="nonzero"/><path fill="#4285f4" clip-path="url(#id_0)" d="M466.01004 197.05128C466.01004 199.53656 463.99533 201.55128 461.51004 201.55128C459.02478 201.55128 457.01004 199.53656 457.01004 197.05128C457.01004 194.56601 459.02478 192.55128 461.51004 192.55128C463.99533 192.55128 466.01004 194.56601 466.01004 197.05128Z" fill-rule="nonzero"/><path fill="#4285f4" clip-path="url(#id_0)" d="M466.01004 196.18973C466.01004 198.67502 463.99533 200.68973 461.51004 200.68973C459.02478 200.68973 457.01004 198.67502 457.01004 196.18973C457.01004 193.70445 459.02478 191.68973 461.51004 191.68973C463.99533 191.68973 466.01004 193.70445 466.01004 196.18973Z" fill-rule="nonzero"/><path fill="#4285f4" clip-path="url(#id_0)" d="M466.01004 195.32486C466.01004 197.81013 463.99533 199.82486 461.51004 199.82486C459.02478 199.82486 457.01004 197.81013 457.01004 195.32486C457.01004 192.83958 459.02478 190.82486 461.51004 190.82486C463.99533 190.82486 466.01004 192.83958 466.01004 195.32486Z" fill-rule="nonzero"/><path fill="#4285f4" clip-path="url(#id_0)" d="M466.01004 194.45609C466.01004 196.94136 463.99533 198.95609 461.51004 198.95609C459.02478 198.95609 457.01004 196.94136 457.01004 194.45609C457.01004 191.97081 459.02478 189.95609 461.51004 189.95609C463.99533 189.95609 466.01004 191.97081 466.01004 194.45609Z" fill-rule="nonzero"/><path fill="#4285f4" clip-path="url(#id_0)" d="M466.01004 193.5828C466.01004 196.06808 463.99533 198.0828 461.51004 198.0828C459.02478 198.0828 457.01004 196.06808 457.01004 193.5828C457.01004 191.09752 459.02478 189.0828 461.51004 189.0828C463.99533 189.0828 466.01004 191.09752 466.01004 193.5828Z" fill-rule="nonzero"/><path fill="#4285f4" clip-path="url(#id_0)" d="M466.01004 192.70438C466.01004 195.18965 463.99533 197.20438 461.51004 197.20438C459.02478 197.20438 457.01004 195.18965 457.01004 192.70438C457.01004 190.21909 459.02478 188.20438 461.51004 188.20438C463.99533 188.20438 466.01004 190.21909 466.01004 192.70438Z" fill-rule="nonzero"/><path fill="#4285f4" clip-path="url(#id_0)" d="M466.01004 191.82014C466.01004 194.30544 463.99533 196.32014 461.51004 196.32014C459.02478 196.32014 457.01004 194.30544 457.01004 191.82014C457.01004 189.33487 459.02478 187.32014 461.51004 187.32014C463.99533 187.32014 466.01004 189.33487 466.01004 191.82014Z" fill-rule="nonzero"/><path fill="#4285f4" clip-path="url(#id_0)" d="M466.01004 190.92944C466.01004 193.41472 463.99533 195.42944 461.51004 195.42944C459.02478 195.42944 457.01004 193.41472 457.01004 190.92944C457.01004 188.44417 459.02478 186.42944 461.51004 186.42944C463.99533 186.42944 466.01004 188.44417 466.01004 190.92944Z" fill-rule="nonzero"/><path fill="#4285f4" clip-path="url(#id_0)" d="M466.01004 190.03156C466.01004 192.51683 463.99533 194.53156 461.51004 194.53156C459.02478 194.53156 457.01004 192.51683 457.01004 190.03156C457.01004 187.54626 459.02478 185.53156 461.51004 185.53156C463.99533 185.53156 466.01004 187.54626 466.01004 190.03156Z" fill-rule="nonzero"/><path fill="#4285f4" clip-path="url(#id_0)" d="M494.87006 189.1257C494.87006 191.611 492.85535 193.6257 490.37006 193.6257C487.8848 193.6257 485.87006 191.611 485.87006 189.1257C485.87006 186.64043 487.8848 184.6257 490.37006 184.6257C492.85535 184.6257 494.87006 186.64043 494.87006 189.1257Z" fill-rule="nonzero"/><path fill="#4285f4" clip-path="url(#id_0)" d="M494.87006 188.21112C494.87006 190.69641 492.85535 192.71112 490.37006 192.71112C487.8848 192.71112 485.87006 190.69641 485.87006 188.21112C485.87006 185.72585 487.8848 183.71112 490.37006 183.71112C492.85535 183.71112 494.87006 185.72585 494.87006 188.21112Z" fill-rule="nonzero"/><path fill="#4285f4" clip-path="url(#id_0)" d="M494.87006 187.28696C494.87006 189.77223 492.85535 191.78696 490.37006 191.78696C487.8848 191.78696 485.87006 189.77223 485.87006 187.28696C485.87006 184.80167 487.8848 182.78696 490.37006 182.78696C492.85535 182.78696 494.87006 184.80167 494.87006 187.28696Z" fill-rule="nonzero"/><path fill="#4285f4" clip-path="url(#id_0)" d="M494.87006 186.3523C494.87006 188.83757 492.85535 190.8523 490.37006 190.8523C487.8848 190.8523 485.87006 188.83757 485.87006 186.3523C485.87006 183.86702 487.8848 181.8523 490.37006 181.8523C492.85535 181.8523 494.87006 183.86702 494.87006 186.3523Z" fill-rule="nonzero"/><path fill="#4285f4" clip-path="url(#id_0)" d="M494.87006 185.40619C494.87006 187.89148 492.85535 189.90619 490.37006 189.90619C487.8848 189.90619 485.87006 187.89148 485.87006 185.40619C485.87006 182.92091 487.8848 180.90619 490.37006 180.90619C492.85535 180.90619 494.87006 182.92091 494.87006 185.40619Z" fill-rule="nonzero"/><path fill="#4285f4" clip-path="url(#id_0)" d="M494.87006 184.44762C494.87006 186.93289 492.85535 188.94762 490.37006 188.94762C487.8848 188.94762 485.87006 186.93289 485.87006 184.44762C485.87006 181.96233 487.8848 179.94762 490.37006 179.94762C492.85535 179.94762 494.87006 181.96233 494.87006 184.44762Z" fill-rule="nonzero"/><path fill="#4285f4" clip-path="url(#id_0)" d="M494.87006 183.47543C494.87006 185.96071 492.85535 187.97543 490.37006 187.97543C487.8848 187.97543 485.87006 185.96071 485.87006 183.47543C485.87006 180.99016 487.8848 178.97543 490.37006 178.97543C492.85535 178.97543 494.87006 180.99016 494.87006 183.47543Z" fill-rule="nonzero"/><path fill="#4285f4" clip-path="url(#id_0)" d="M494.87006 182.48845C494.87006 184.97374 492.85535 186.98845 490.37006 186.98845C487.8848 186.98845 485.87006 184.97374 485.87006 182.48845C485.87006 180.00317 487.8848 177.98845 490.37006 177.98845C492.85535 177.98845 494.87006 180.00317 494.87006 182.48845Z" fill-rule="nonzero"/><path fill="#4285f4" clip-path="url(#id_0)" d="M494.87006 181.48537C494.87006 183.97064 492.85535 185.98537 490.37006 185.98537C487.8848 185.98537 485.87006 183.97064 485.87006 181.48537C485.87006 179.00008 487.8848 176.98537 490.37006 176.98537C492.85535 176.98537 494.87006 179.00008 494.87006 181.48537Z" fill-rule="nonzero"/><path fill="#4285f4" clip-path="url(#id_0)" d="M494.87006 180.46472C494.87006 182.95 492.85535 184.96472 490.37006 184.96472C487.8848 184.96472 485.87006 182.95 485.87006 180.46472C485.87006 177.97945 487.8848 175.96472 490.37006 175.96472C492.85535 175.96472 494.87006 177.97945 494.87006 180.46472Z" fill-rule="nonzero"/><path fill="#4285f4" clip-path="url(#id_0)" d="M494.87006 179.42496C494.87006 181.91025 492.85535 183.92496 490.37006 183.92496C487.8848 183.92496 485.87006 181.91025 485.87006 179.42496C485.87006 176.93968 487.8848 174.92496 490.37006 174.92496C492.85535 174.92496 494.87006 176.93968 494.87006 179.42496Z" fill-rule="nonzero"/><path fill="#4285f4" clip-path="url(#id_0)" d="M494.87006 178.36435C494.87006 180.84962 492.85535 182.86435 490.37006 182.86435C487.8848 182.86435 485.87006 180.84962 485.87006 178.36435C485.87006 175.87906 487.8848 173.86435 490.37006 173.86435C492.85535 173.86435 494.87006 175.87906 494.87006 178.36435Z" fill-rule="nonzero"/><path fill="#4285f4" clip-path="url(#id_0)" d="M494.87006 177.28094C494.87006 179.76622 492.85535 181.78094 490.37006 181.78094C487.8848 181.78094 485.87006 179.76622 485.87006 177.28094C485.87006 174.79565 487.8848 172.78094 490.37006 172.78094C492.85535 172.78094 494.87006 174.79565 494.87006 177.28094Z" fill-rule="nonzero"/><path fill="#4285f4" clip-path="url(#id_0)" d="M494.87006 176.17262C494.87006 178.6579 492.85535 180.67262 490.37006 180.67262C487.8848 180.67262 485.87006 178.6579 485.87006 176.17262C485.87006 173.68733 487.8848 171.67262 490.37006 171.67262C492.85535 171.67262 494.87006 173.68733 494.87006 176.17262Z" fill-rule="nonzero"/><path fill="#4285f4" clip-path="url(#id_0)" d="M523.7301 175.03696C523.7301 177.52225 521.71533 179.53696 519.2301 179.53696C516.7448 179.53696 514.7301 177.52225 514.7301 175.03696C514.7301 172.55168 516.7448 170.53696 519.2301 170.53696C521.71533 170.53696 523.7301 172.55168 523.7301 175.03696Z" fill-rule="nonzero"/><path fill="#4285f4" clip-path="url(#id_0)" d="M523.7301 173.87128C523.7301 176.35655 521.71533 178.37128 519.2301 178.37128C516.7448 178.37128 514.7301 176.35655 514.7301 173.87128C514.7301 171.38599 516.7448 169.37128 519.2301 169.37128C521.71533 169.37128 523.7301 171.38599 523.7301 173.87128Z" fill-rule="nonzero"/><path fill="#4285f4" clip-path="url(#id_0)" d="M523.7301 172.67247C523.7301 175.15776 521.71533 177.17247 519.2301 177.17247C516.7448 177.17247 514.7301 175.15776 514.7301 172.67247C514.7301 170.1872 516.7448 168.17247 519.2301 168.17247C521.71533 168.17247 523.7301 170.1872 523.7301 172.67247Z" fill-rule="nonzero"/><path fill="#4285f4" clip-path="url(#id_0)" d="M523.7301 171.43707C523.7301 173.92235 521.71533 175.93707 519.2301 175.93707C516.7448 175.93707 514.7301 173.92235 514.7301 171.43707C514.7301 168.95178 516.7448 166.93707 519.2301 166.93707C521.71533 166.93707 523.7301 168.95178 523.7301 171.43707Z" fill-rule="nonzero"/><path fill="#4285f4" clip-path="url(#id_0)" d="M523.7301 170.16101C523.7301 172.64629 521.71533 174.66101 519.2301 174.66101C516.7448 174.66101 514.7301 172.64629 514.7301 170.16101C514.7301 167.67574 516.7448 165.66101 519.2301 165.66101C521.71533 165.66101 523.7301 167.67574 523.7301 170.16101Z" fill-rule="nonzero"/><path fill="#4285f4" clip-path="url(#id_0)" d="M523.7301 168.83963C523.7301 171.3249 521.71533 173.33963 519.2301 173.33963C516.7448 173.33963 514.7301 171.3249 514.7301 168.83963C514.7301 166.35434 516.7448 164.33963 519.2301 164.33963C521.71533 164.33963 523.7301 166.35434 523.7301 168.83963Z" fill-rule="nonzero"/><path fill="#4285f4" clip-path="url(#id_0)" d="M523.7301 167.46744C523.7301 169.95273 521.71533 171.96744 519.2301 171.96744C516.7448 171.96744 514.7301 169.95273 514.7301 167.46744C514.7301 164.98216 516.7448 162.96744 519.2301 162.96744C521.71533 162.96744 523.7301 164.98216 523.7301 167.46744Z" fill-rule="nonzero"/><path fill="#4285f4" clip-path="url(#id_0)" d="M523.7301 166.03798C523.7301 168.52327 521.71533 170.53798 519.2301 170.53798C516.7448 170.53798 514.7301 168.52327 514.7301 166.03798C514.7301 163.5527 516.7448 161.53798 519.2301 161.53798C521.71533 161.53798 523.7301 163.5527 523.7301 166.03798Z" fill-rule="nonzero"/><path fill="#4285f4" clip-path="url(#id_0)" d="M523.7301 164.54352C523.7301 167.02881 521.71533 169.04352 519.2301 169.04352C516.7448 169.04352 514.7301 167.02881 514.7301 164.54352C514.7301 162.05824 516.7448 160.04352 519.2301 160.04352C521.71533 160.04352 523.7301 162.05824 523.7301 164.54352Z" fill-rule="nonzero"/><path fill="#4285f4" clip-path="url(#id_0)" d="M523.7301 162.9747C523.7301 165.45998 521.71533 167.4747 519.2301 167.4747C516.7448 167.4747 514.7301 165.45998 514.7301 162.9747C514.7301 160.48943 516.7448 158.4747 519.2301 158.4747C521.71533 158.4747 523.7301 160.48943 523.7301 162.9747Z" fill-rule="nonzero"/><path fill="#4285f4" clip-path="url(#id_0)" d="M552.5901 161.32004C552.5901 163.80531 550.5754 165.82004 548.0901 165.82004C545.6048 165.82004 543.5901 163.80531 543.5901 161.32004C543.5901 158.83476 545.6048 156.82004 548.0901 156.82004C550.5754 156.82004 552.5901 158.83476 552.5901 161.32004Z" fill-rule="nonzero"/><path fill="#4285f4" clip-path="url(#id_0)" d="M552.5901 159.5652C552.5901 162.05049 550.5754 164.0652 548.0901 164.0652C545.6048 164.0652 543.5901 162.05049 543.5901 159.5652C543.5901 157.07993 545.6048 155.0652 548.0901 155.0652C550.5754 155.0652 552.5901 157.07993 552.5901 159.5652Z" fill-rule="nonzero"/><path fill="#4285f4" clip-path="url(#id_0)" d="M552.5901 157.69199C552.5901 160.17728 550.5754 162.19199 548.0901 162.19199C545.6048 162.19199 543.5901 160.17728 543.5901 157.69199C543.5901 155.20671 545.6048 153.19199 548.0901 153.19199C550.5754 153.19199 552.5901 155.20671 552.5901 157.69199Z" fill-rule="nonzero"/><path fill="#4285f4" clip-path="url(#id_0)" d="M552.5901 155.6767C552.5901 158.16199 550.5754 160.1767 548.0901 160.1767C545.6048 160.1767 543.5901 158.16199 543.5901 155.6767C543.5901 153.19142 545.6048 151.1767 548.0901 151.1767C550.5754 151.1767 552.5901 153.19142 552.5901 155.6767Z" fill-rule="nonzero"/><path fill="#4285f4" clip-path="url(#id_0)" d="M552.5901 153.48766C552.5901 155.97293 550.5754 157.98766 548.0901 157.98766C545.6048 157.98766 543.5901 155.97293 543.5901 153.48766C543.5901 151.00237 545.6048 148.98766 548.0901 148.98766C550.5754 148.98766 552.5901 151.00237 552.5901 153.48766Z" fill-rule="nonzero"/><path fill="#4285f4" clip-path="url(#id_0)" d="M552.5901 151.08105C552.5901 153.56633 550.5754 155.58105 548.0901 155.58105C545.6048 155.58105 543.5901 153.56633 543.5901 151.08105C543.5901 148.59578 545.6048 146.58105 548.0901 146.58105C550.5754 146.58105 552.5901 148.59578 552.5901 151.08105Z" fill-rule="nonzero"/><path fill="#4285f4" clip-path="url(#id_0)" d="M552.5901 148.39377C552.5901 150.87904 550.5754 152.89377 548.0901 152.89377C545.6048 152.89377 543.5901 150.87904 543.5901 148.39377C543.5901 145.90848 545.6048 143.89377 548.0901 143.89377C550.5754 143.89377 552.5901 145.90848 552.5901 148.39377Z" fill-rule="nonzero"/><path fill="#4285f4" clip-path="url(#id_0)" d="M581.45013 145.32954C581.45013 147.81483 579.43536 149.82954 576.95013 149.82954C574.46484 149.82954 572.45013 147.81483 572.45013 145.32954C572.45013 142.84427 574.46484 140.82954 576.95013 140.82954C579.43536 140.82954 581.45013 142.84427 581.45013 145.32954Z" fill-rule="nonzero"/><path fill="#4285f4" clip-path="url(#id_0)" d="M581.45013 141.73033C581.45013 144.2156 579.43536 146.23033 576.95013 146.23033C574.46484 146.23033 572.45013 144.2156 572.45013 141.73033C572.45013 139.24504 574.46484 137.23033 576.95013 137.23033C579.43536 137.23033 581.45013 139.24504 581.45013 141.73033Z" fill-rule="nonzero"/><path fill="#4285f4" clip-path="url(#id_0)" d="M581.45013 137.30655C581.45013 139.79182 579.43536 141.80655 576.95013 141.80655C574.46484 141.80655 572.45013 139.79182 572.45013 137.30655C572.45013 134.82126 574.46484 132.80655 576.95013 132.80655C579.43536 132.80655 581.45013 134.82126 581.45013 137.30655Z" fill-rule="nonzero"/><path fill="#4285f4" clip-path="url(#id_0)" d="M610.3101 131.42654C610.3101 133.91182 608.2954 135.92654 605.8101 135.92654C603.3248 135.92654 601.3101 133.91182 601.3101 131.42654C601.3101 128.94125 603.3248 126.926544 605.8101 126.926544C608.2954 126.926544 610.3101 128.94125 610.3101 131.42654Z" fill-rule="nonzero"/><path fill="#4285f4" clip-path="url(#id_0)" d="M639.17017 122.1537C639.17017 124.638985 637.1554 126.6537 634.67017 126.6537C632.1849 126.6537 630.17017 124.638985 630.17017 122.1537C630.17017 119.66843 632.1849 117.6537 634.67017 117.6537C637.1554 117.6537 639.17017 119.66843 639.17017 122.1537Z" fill-rule="nonzero"/><path fill="#000000" d="M305.10938 386.5L305.10938 378.92188L302.28125 378.92188L302.28125 377.90625L309.09375 377.90625L309.09375 378.92188L306.25 378.92188L306.25 386.5L305.10938 386.5ZM309.79688 386.5L309.79688 377.90625L310.84375 377.90625L310.84375 380.98438Q311.57812 380.14062 312.70312 380.14062Q313.40625 380.14062 313.90625 380.42188Q314.42188 380.6875 314.64062 381.17188Q314.85938 381.64062 314.85938 382.5625L314.85938 386.5L313.8125 386.5L313.8125 382.5625Q313.8125 381.76562 313.46875 381.40625Q313.125 381.04688 312.5 381.04688Q312.03125 381.04688 311.60938 381.29688Q311.20312 381.53125 311.01562 381.95312Q310.84375 382.35938 310.84375 383.09375L310.84375 386.5L309.79688 386.5ZM321.04688 384.5L322.14062 384.625Q321.89062 385.57812 321.1875 386.10938Q320.48438 386.64062 319.40625 386.64062Q318.04688 386.64062 317.23438 385.79688Q316.4375 384.95312 316.4375 383.4375Q316.4375 381.875 317.25 381.01562Q318.0625 380.14062 319.34375 380.14062Q320.59375 380.14062 321.375 380.98438Q322.17188 381.82812 322.17188 383.375Q322.17188 383.46875 322.17188 383.65625L317.53125 383.65625Q317.59375 384.6875 318.10938 385.23438Q318.625 385.76562 319.40625 385.76562Q319.98438 385.76562 320.39062 385.46875Q320.8125 385.15625 321.04688 384.5ZM317.59375 382.79688L321.0625 382.79688Q321.0 382.0 320.67188 381.60938Q320.15625 381.0 319.35938 381.0Q318.625 381.0 318.125 381.48438Q317.64062 381.96875 317.59375 382.79688ZM323.40625 383.39062Q323.40625 381.65625 324.35938 380.82812Q325.15625 380.14062 326.3125 380.14062Q327.59375 380.14062 328.40625 380.98438Q329.23438 381.8125 329.23438 383.29688Q329.23438 384.5 328.875 385.1875Q328.51562 385.875 327.8125 386.26562Q327.125 386.64062 326.3125 386.64062Q325.01562 386.64062 324.20312 385.8125Q323.40625 384.96875 323.40625 383.39062ZM324.48438 383.39062Q324.48438 384.57812 325.0 385.17188Q325.53125 385.76562 326.3125 385.76562Q327.10938 385.76562 327.625 385.17188Q328.14062 384.57812 328.14062 383.35938Q328.14062 382.20312 327.60938 381.60938Q327.09375 381.01562 326.3125 381.01562Q325.53125 381.01562 325.0 381.60938Q324.48438 382.1875 324.48438 383.39062ZM330.78125 386.5L330.78125 380.28125L331.73438 380.28125L331.73438 381.21875Q332.09375 380.5625 332.39062 380.35938Q332.70312 380.14062 333.07812 380.14062Q333.60938 380.14062 334.15625 380.46875L333.79688 381.45312Q333.40625 381.21875 333.03125 381.21875Q332.67188 381.21875 332.39062 381.4375Q332.125 381.64062 332.01562 382.01562Q331.82812 382.57812 331.82812 383.23438L331.82812 386.5L330.78125 386.5ZM339.04688 384.5L340.14062 384.625Q339.89062 385.57812 339.1875 386.10938Q338.48438 386.64062 337.40625 386.64062Q336.04688 386.64062 335.23438 385.79688Q334.4375 384.95312 334.4375 383.4375Q334.4375 381.875 335.25 381.01562Q336.0625 380.14062 337.34375 380.14062Q338.59375 380.14062 339.375 380.98438Q340.17188 381.82812 340.17188 383.375Q340.17188 383.46875 340.17188 383.65625L335.53125 383.65625Q335.59375 384.6875 336.10938 385.23438Q336.625 385.76562 337.40625 385.76562Q337.98438 385.76562 338.39062 385.46875Q338.8125 385.15625 339.04688 384.5ZM335.59375 382.79688L339.0625 382.79688Q339.0 382.0 338.67188 381.60938Q338.15625 381.0 337.35938 381.0Q336.625 381.0 336.125 381.48438Q335.64062 381.96875 335.59375 382.79688ZM344.09375 385.5625L344.25 386.48438Q343.79688 386.57812 343.45312 386.57812Q342.875 386.57812 342.5625 386.40625Q342.25 386.21875 342.10938 385.92188Q341.98438 385.625 341.98438 384.67188L341.98438 381.09375L341.21875 381.09375L341.21875 380.28125L341.98438 380.28125L341.98438 378.73438L343.03125 378.10938L343.03125 380.28125L344.09375 380.28125L344.09375 381.09375L343.03125 381.09375L343.03125 384.73438Q343.03125 385.1875 343.07812 385.3125Q343.14062 385.4375 343.26562 385.51562Q343.39062 385.59375 343.625 385.59375Q343.8125 385.59375 344.09375 385.5625ZM344.79688 379.125L344.79688 377.90625L345.85938 377.90625L345.85938 379.125L344.79688 379.125ZM344.79688 386.5L344.79688 380.28125L345.85938 380.28125L345.85938 386.5L344.79688 386.5ZM351.85938 384.21875L352.89062 384.35938Q352.71875 385.42188 352.01562 386.03125Q351.3125 386.64062 350.29688 386.64062Q349.01562 386.64062 348.23438 385.8125Q347.46875 384.96875 347.46875 383.40625Q347.46875 382.40625 347.79688 381.65625Q348.14062 380.89062 348.8125 380.51562Q349.5 380.14062 350.3125 380.14062Q351.3125 380.14062 351.95312 380.65625Q352.60938 381.15625 352.79688 382.10938L351.76562 382.26562Q351.625 381.64062 351.25 381.32812Q350.875 381.0 350.34375 381.0Q349.54688 381.0 349.04688 381.57812Q348.54688 382.14062 348.54688 383.375Q348.54688 384.64062 349.03125 385.20312Q349.51562 385.76562 350.28125 385.76562Q350.90625 385.76562 351.3125 385.39062Q351.73438 385.01562 351.85938 384.21875ZM357.85938 385.73438Q357.26562 386.23438 356.71875 386.4375Q356.1875 386.64062 355.5625 386.64062Q354.53125 386.64062 353.98438 386.14062Q353.4375 385.64062 353.4375 384.85938Q353.4375 384.40625 353.64062 384.03125Q353.84375 383.64062 354.1875 383.42188Q354.53125 383.1875 354.95312 383.07812Q355.25 382.98438 355.89062 382.90625Q357.15625 382.76562 357.76562 382.54688Q357.76562 382.32812 357.76562 382.28125Q357.76562 381.625 357.46875 381.35938Q357.0625 381.01562 356.26562 381.01562Q355.53125 381.01562 355.17188 381.28125Q354.8125 381.53125 354.64062 382.1875L353.60938 382.04688Q353.75 381.39062 354.07812 380.98438Q354.40625 380.57812 355.01562 380.35938Q355.625 380.14062 356.42188 380.14062Q357.21875 380.14062 357.71875 380.32812Q358.21875 380.51562 358.45312 380.79688Q358.6875 381.07812 358.78125 381.51562Q358.82812 381.78125 358.82812 382.48438L358.82812 383.89062Q358.82812 385.35938 358.89062 385.75Q358.96875 386.14062 359.17188 386.5L358.0625 386.5Q357.90625 386.17188 357.85938 385.73438ZM357.76562 383.375Q357.1875 383.60938 356.04688 383.78125Q355.39062 383.875 355.125 384.0Q354.85938 384.10938 354.70312 384.32812Q354.5625 384.54688 354.5625 384.82812Q354.5625 385.25 354.875 385.53125Q355.20312 385.8125 355.8125 385.8125Q356.42188 385.8125 356.89062 385.54688Q357.375 385.28125 357.59375 384.8125Q357.76562 384.45312 357.76562 383.76562L357.76562 383.375ZM360.76562 386.5L360.76562 377.90625L361.82812 377.90625L361.82812 386.5L360.76562 386.5ZM373.4375 385.57812Q374.23438 386.125 374.89062 386.375L374.5625 387.17188Q373.64062 386.82812 372.71875 386.10938Q371.76562 386.64062 370.60938 386.64062Q369.4375 386.64062 368.48438 386.07812Q367.54688 385.51562 367.03125 384.5Q366.51562 383.48438 366.51562 382.20312Q366.51562 380.9375 367.03125 379.89062Q367.54688 378.84375 368.5 378.29688Q369.45312 377.75 370.625 377.75Q371.8125 377.75 372.76562 378.32812Q373.73438 378.89062 374.23438 379.90625Q374.73438 380.92188 374.73438 382.20312Q374.73438 383.26562 374.40625 384.10938Q374.09375 384.95312 373.4375 385.57812ZM370.9375 384.125Q371.92188 384.40625 372.5625 384.95312Q373.5625 384.03125 373.5625 382.20312Q373.5625 381.15625 373.20312 380.375Q372.84375 379.59375 372.15625 379.17188Q371.48438 378.73438 370.64062 378.73438Q369.35938 378.73438 368.51562 379.60938Q367.6875 380.46875 367.6875 382.20312Q367.6875 383.875 368.51562 384.78125Q369.34375 385.67188 370.64062 385.67188Q371.25 385.67188 371.78125 385.4375Q371.25 385.09375 370.65625 384.95312L370.9375 384.125ZM379.875 386.5L379.875 385.57812Q379.14062 386.64062 377.89062 386.64062Q377.34375 386.64062 376.85938 386.4375Q376.39062 386.21875 376.15625 385.90625Q375.92188 385.57812 375.82812 385.10938Q375.76562 384.8125 375.76562 384.125L375.76562 380.28125L376.82812 380.28125L376.82812 383.73438Q376.82812 384.54688 376.89062 384.84375Q376.98438 385.25 377.29688 385.5Q377.625 385.73438 378.10938 385.73438Q378.57812 385.73438 378.98438 385.5Q379.40625 385.25 379.57812 384.82812Q379.76562 384.40625 379.76562 383.60938L379.76562 380.28125L380.8125 380.28125L380.8125 386.5L379.875 386.5ZM386.85938 385.73438Q386.26562 386.23438 385.71875 386.4375Q385.1875 386.64062 384.5625 386.64062Q383.53125 386.64062 382.98438 386.14062Q382.4375 385.64062 382.4375 384.85938Q382.4375 384.40625 382.64062 384.03125Q382.84375 383.64062 383.1875 383.42188Q383.53125 383.1875 383.95312 383.07812Q384.25 382.98438 384.89062 382.90625Q386.15625 382.76562 386.76562 382.54688Q386.76562 382.32812 386.76562 382.28125Q386.76562 381.625 386.46875 381.35938Q386.0625 381.01562 385.26562 381.01562Q384.53125 381.01562 384.17188 381.28125Q383.8125 381.53125 383.64062 382.1875L382.60938 382.04688Q382.75 381.39062 383.07812 380.98438Q383.40625 380.57812 384.01562 380.35938Q384.625 380.14062 385.42188 380.14062Q386.21875 380.14062 386.71875 380.32812Q387.21875 380.51562 387.45312 380.79688Q387.6875 381.07812 387.78125 381.51562Q387.82812 381.78125 387.82812 382.48438L387.82812 383.89062Q387.82812 385.35938 387.89062 385.75Q387.96875 386.14062 388.17188 386.5L387.0625 386.5Q386.90625 386.17188 386.85938 385.73438ZM386.76562 383.375Q386.1875 383.60938 385.04688 383.78125Q384.39062 383.875 384.125 384.0Q383.85938 384.10938 383.70312 384.32812Q383.5625 384.54688 383.5625 384.82812Q383.5625 385.25 383.875 385.53125Q384.20312 385.8125 384.8125 385.8125Q385.42188 385.8125 385.89062 385.54688Q386.375 385.28125 386.59375 384.8125Q386.76562 384.45312 386.76562 383.76562L386.76562 383.375ZM389.79688 386.5L389.79688 380.28125L390.73438 380.28125L390.73438 381.15625Q391.42188 380.14062 392.71875 380.14062Q393.28125 380.14062 393.75 380.34375Q394.23438 380.54688 394.46875 380.875Q394.70312 381.20312 394.79688 381.64062Q394.84375 381.9375 394.84375 382.67188L394.84375 386.5L393.79688 386.5L393.79688 382.71875Q393.79688 382.0625 393.67188 381.75Q393.54688 381.4375 393.23438 381.25Q392.92188 381.04688 392.5 381.04688Q391.82812 381.04688 391.32812 381.48438Q390.84375 381.90625 390.84375 383.09375L390.84375 386.5L389.79688 386.5ZM399.09375 385.5625L399.25 386.48438Q398.79688 386.57812 398.45312 386.57812Q397.875 386.57812 397.5625 386.40625Q397.25 386.21875 397.10938 385.92188Q396.98438 385.625 396.98438 384.67188L396.98438 381.09375L396.21875 381.09375L396.21875 380.28125L396.98438 380.28125L396.98438 378.73438L398.03125 378.10938L398.03125 380.28125L399.09375 380.28125L399.09375 381.09375L398.03125 381.09375L398.03125 384.73438Q398.03125 385.1875 398.07812 385.3125Q398.14062 385.4375 398.26562 385.51562Q398.39062 385.59375 398.625 385.59375Q398.8125 385.59375 399.09375 385.5625ZM399.79688 379.125L399.79688 377.90625L400.85938 377.90625L400.85938 379.125L399.79688 379.125ZM399.79688 386.5L399.79688 380.28125L400.85938 380.28125L400.85938 386.5L399.79688 386.5ZM402.76562 386.5L402.76562 377.90625L403.82812 377.90625L403.82812 386.5L402.76562 386.5ZM410.04688 384.5L411.14062 384.625Q410.89062 385.57812 410.1875 386.10938Q409.48438 386.64062 408.40625 386.64062Q407.04688 386.64062 406.23438 385.79688Q405.4375 384.95312 405.4375 383.4375Q405.4375 381.875 406.25 381.01562Q407.0625 380.14062 408.34375 380.14062Q409.59375 380.14062 410.375 380.98438Q411.17188 381.82812 411.17188 383.375Q411.17188 383.46875 411.17188 383.65625L406.53125 383.65625Q406.59375 384.6875 407.10938 385.23438Q407.625 385.76562 408.40625 385.76562Q408.98438 385.76562 409.39062 385.46875Q409.8125 385.15625 410.04688 384.5ZM406.59375 382.79688L410.0625 382.79688Q410.0 382.0 409.67188 381.60938Q409.15625 381.0 408.35938 381.0Q407.625 381.0 407.125 381.48438Q406.64062 381.96875 406.59375 382.79688ZM412.375 384.64062L413.40625 384.48438Q413.5 385.10938 413.89062 385.4375Q414.29688 385.76562 415.03125 385.76562Q415.75 385.76562 416.09375 385.48438Q416.45312 385.1875 416.45312 384.78125Q416.45312 384.42188 416.14062 384.21875Q415.92188 384.07812 415.0625 383.85938Q413.90625 383.5625 413.45312 383.35938Q413.01562 383.14062 412.78125 382.76562Q412.54688 382.39062 412.54688 381.92188Q412.54688 381.51562 412.73438 381.15625Q412.92188 380.79688 413.25 380.5625Q413.5 380.39062 413.92188 380.26562Q414.34375 380.14062 414.84375 380.14062Q415.5625 380.14062 416.10938 380.35938Q416.67188 380.5625 416.9375 380.92188Q417.20312 381.28125 417.29688 381.875L416.26562 382.01562Q416.20312 381.54688 415.85938 381.28125Q415.53125 381.0 414.90625 381.0Q414.1875 381.0 413.875 381.25Q413.5625 381.48438 413.5625 381.8125Q413.5625 382.01562 413.6875 382.17188Q413.82812 382.34375 414.09375 382.45312Q414.25 382.51562 415.03125 382.71875Q416.15625 383.03125 416.59375 383.21875Q417.03125 383.40625 417.28125 383.76562Q417.53125 384.125 417.53125 384.67188Q417.53125 385.20312 417.21875 385.67188Q416.92188 386.125 416.34375 386.39062Q415.76562 386.64062 415.03125 386.64062Q413.8125 386.64062 413.17188 386.14062Q412.54688 385.625 412.375 384.64062Z" fill-rule="nonzero"/><path fill="#000000" d="M28.734375 256.78647L28.640625 255.72397Q29.296875 255.64584 29.703125 255.3646Q30.109375 255.08334 30.375 254.50522Q30.625 253.91147 30.625 253.1771Q30.625 252.53647 30.4375 252.03647Q30.234375 251.53647 29.90625 251.3021Q29.5625 251.0521 29.171875 251.0521Q28.765625 251.0521 28.46875 251.28647Q28.15625 251.52084 27.953125 252.0521Q27.8125 252.41147 27.53125 253.59897Q27.25 254.77084 27.0 255.2396Q26.671875 255.8646 26.203125 256.16147Q25.71875 256.45834 25.125 256.45834Q24.484375 256.45834 23.921875 256.09897Q23.34375 255.72397 23.0625 255.02084Q22.765625 254.3021 22.765625 253.44272Q22.765625 252.4896 23.078125 251.75522Q23.375 251.02084 23.984375 250.63022Q24.578125 250.2396 25.328125 250.20834L25.40625 251.3021Q24.59375 251.39584 24.1875 251.91147Q23.765625 252.41147 23.765625 253.39584Q23.765625 254.4271 24.140625 254.89584Q24.515625 255.3646 25.046875 255.3646Q25.515625 255.3646 25.8125 255.03647Q26.109375 254.70834 26.421875 253.33334Q26.734375 251.94272 26.96875 251.4271Q27.328125 250.6771 27.859375 250.31772Q28.375 249.95834 29.078125 249.95834Q29.765625 249.95834 30.375 250.34897Q30.96875 250.7396 31.3125 251.47397Q31.640625 252.20834 31.640625 253.13022Q31.640625 254.3021 31.3125 255.09897Q30.96875 255.88022 30.28125 256.33334Q29.59375 256.77084 28.734375 256.78647ZM30.734375 244.47397Q31.234375 245.06772 31.4375 245.6146Q31.640625 246.14584 31.640625 246.77084Q31.640625 247.8021 31.140625 248.34897Q30.640625 248.89584 29.859375 248.89584Q29.40625 248.89584 29.03125 248.69272Q28.640625 248.4896 28.421875 248.14584Q28.1875 247.8021 28.078125 247.38022Q27.984375 247.08334 27.90625 246.44272Q27.765625 245.1771 27.546875 244.56772Q27.328125 244.56772 27.28125 244.56772Q26.625 244.56772 26.359375 244.8646Q26.015625 245.27084 26.015625 246.06772Q26.015625 246.8021 26.28125 247.16147Q26.53125 247.52084 27.1875 247.69272L27.046875 248.72397Q26.390625 248.58334 25.984375 248.25522Q25.578125 247.9271 25.359375 247.31772Q25.140625 246.70834 25.140625 245.91147Q25.140625 245.1146 25.328125 244.6146Q25.515625 244.1146 25.796875 243.88022Q26.078125 243.64584 26.515625 243.5521Q26.78125 243.50522 27.484375 243.50522L28.890625 243.50522Q30.359375 243.50522 30.75 243.44272Q31.140625 243.3646 31.5 243.16147L31.5 244.27084Q31.171875 244.4271 30.734375 244.47397ZM28.375 244.56772Q28.609375 245.14584 28.78125 246.28647Q28.875 246.94272 29.0 247.20834Q29.109375 247.47397 29.328125 247.63022Q29.546875 247.77084 29.828125 247.77084Q30.25 247.77084 30.53125 247.45834Q30.8125 247.13022 30.8125 246.52084Q30.8125 245.91147 30.546875 245.44272Q30.28125 244.95834 29.8125 244.7396Q29.453125 244.56772 28.765625 244.56772L28.375 244.56772ZM31.5 241.53647L25.28125 241.53647L25.28125 240.59897L26.15625 240.59897Q25.6875 240.3021 25.421875 239.81772Q25.140625 239.33334 25.140625 238.70834Q25.140625 238.02084 25.421875 237.58334Q25.703125 237.13022 26.21875 236.95834Q25.140625 236.20834 25.140625 235.03647Q25.140625 234.09897 25.65625 233.6146Q26.15625 233.1146 27.234375 233.1146L31.5 233.1146L31.5 234.16147L27.578125 234.16147Q26.953125 234.16147 26.671875 234.27084Q26.390625 234.3646 26.21875 234.63022Q26.046875 234.89584 26.046875 235.27084Q26.046875 235.9271 26.484375 236.3646Q26.921875 236.78647 27.890625 236.78647L31.5 236.78647L31.5 237.84897L27.453125 237.84897Q26.75 237.84897 26.40625 238.1146Q26.046875 238.3646 26.046875 238.94272Q26.046875 239.39584 26.28125 239.77084Q26.515625 240.14584 26.96875 240.31772Q27.421875 240.4896 28.265625 240.4896L31.5 240.4896L31.5 241.53647ZM33.890625 230.53647L25.28125 230.53647L25.28125 229.58334L26.078125 229.58334Q25.609375 229.2396 25.375 228.81772Q25.140625 228.38022 25.140625 227.77084Q25.140625 226.97397 25.546875 226.3646Q25.953125 225.75522 26.703125 225.45834Q27.453125 225.14584 28.34375 225.14584Q29.296875 225.14584 30.0625 225.4896Q30.828125 225.81772 31.234375 226.47397Q31.640625 227.13022 31.640625 227.84897Q31.640625 228.38022 31.421875 228.8021Q31.1875 229.22397 30.859375 229.4896L33.890625 229.4896L33.890625 230.53647ZM28.421875 229.58334Q29.625 229.58334 30.203125 229.09897Q30.765625 228.6146 30.765625 227.9271Q30.765625 227.22397 30.171875 226.72397Q29.578125 226.22397 28.328125 226.22397Q27.140625 226.22397 26.5625 226.70834Q25.96875 227.19272 25.96875 227.88022Q25.96875 228.5521 26.59375 229.06772Q27.21875 229.58334 28.421875 229.58334ZM31.5 223.56772L22.90625 223.56772L22.90625 222.50522L31.5 222.50522L31.5 223.56772ZM29.5 216.28647L29.625 215.19272Q30.578125 215.44272 31.109375 216.14584Q31.640625 216.84897 31.640625 217.9271Q31.640625 219.28647 30.796875 220.09897Q29.953125 220.89584 28.4375 220.89584Q26.875 220.89584 26.015625 220.08334Q25.140625 219.27084 25.140625 217.9896Q25.140625 216.7396 25.984375 215.95834Q26.828125 215.16147 28.375 215.16147Q28.46875 215.16147 28.65625 215.16147L28.65625 219.8021Q29.6875 219.7396 30.234375 219.22397Q30.765625 218.70834 30.765625 217.9271Q30.765625 217.34897 30.46875 216.94272Q30.15625 216.52084 29.5 216.28647ZM27.796875 219.7396L27.796875 216.27084Q27.0 216.33334 26.609375 216.66147Q26.0 217.1771 26.0 217.97397Q26.0 218.70834 26.484375 219.20834Q26.96875 219.69272 27.796875 219.7396ZM30.578125 203.89584Q31.125 203.09897 31.375 202.44272L32.171875 202.77084Q31.828125 203.69272 31.109375 204.6146Q31.640625 205.56772 31.640625 206.72397Q31.640625 207.89584 31.078125 208.84897Q30.515625 209.78647 29.5 210.3021Q28.484375 210.81772 27.203125 210.81772Q25.9375 210.81772 24.890625 210.3021Q23.84375 209.78647 23.296875 208.83334Q22.75 207.88022 22.75 206.70834Q22.75 205.52084 23.328125 204.56772Q23.890625 203.59897 24.90625 203.09897Q25.921875 202.59897 27.203125 202.59897Q28.265625 202.59897 29.109375 202.9271Q29.953125 203.2396 30.578125 203.89584ZM29.125 206.39584Q29.40625 205.41147 29.953125 204.77084Q29.03125 203.77084 27.203125 203.77084Q26.15625 203.77084 25.375 204.13022Q24.59375 204.4896 24.171875 205.1771Q23.734375 205.84897 23.734375 206.69272Q23.734375 207.97397 24.609375 208.81772Q25.46875 209.64584 27.203125 209.64584Q28.875 209.64584 29.78125 208.81772Q30.671875 207.9896 30.671875 206.69272Q30.671875 206.08334 30.4375 205.5521Q30.09375 206.08334 29.953125 206.6771L29.125 206.39584ZM31.5 197.45834L30.578125 197.45834Q31.640625 198.19272 31.640625 199.44272Q31.640625 199.9896 31.4375 200.47397Q31.21875 200.94272 30.90625 201.1771Q30.578125 201.41147 30.109375 201.50522Q29.8125 201.56772 29.125 201.56772L25.28125 201.56772L25.28125 200.50522L28.734375 200.50522Q29.546875 200.50522 29.84375 200.44272Q30.25 200.34897 30.5 200.03647Q30.734375 199.70834 30.734375 199.22397Q30.734375 198.75522 30.5 198.34897Q30.25 197.9271 29.828125 197.75522Q29.40625 197.56772 28.609375 197.56772L25.28125 197.56772L25.28125 196.52084L31.5 196.52084L31.5 197.45834ZM30.734375 190.47397Q31.234375 191.06772 31.4375 191.6146Q31.640625 192.14584 31.640625 192.77084Q31.640625 193.8021 31.140625 194.34897Q30.640625 194.89584 29.859375 194.89584Q29.40625 194.89584 29.03125 194.69272Q28.640625 194.4896 28.421875 194.14584Q28.1875 193.8021 28.078125 193.38022Q27.984375 193.08334 27.90625 192.44272Q27.765625 191.1771 27.546875 190.56772Q27.328125 190.56772 27.28125 190.56772Q26.625 190.56772 26.359375 190.8646Q26.015625 191.27084 26.015625 192.06772Q26.015625 192.8021 26.28125 193.16147Q26.53125 193.52084 27.1875 193.69272L27.046875 194.72397Q26.390625 194.58334 25.984375 194.25522Q25.578125 193.9271 25.359375 193.31772Q25.140625 192.70834 25.140625 191.91147Q25.140625 191.1146 25.328125 190.6146Q25.515625 190.1146 25.796875 189.88022Q26.078125 189.64584 26.515625 189.5521Q26.78125 189.50522 27.484375 189.50522L28.890625 189.50522Q30.359375 189.50522 30.75 189.44272Q31.140625 189.3646 31.5 189.16147L31.5 190.27084Q31.171875 190.4271 30.734375 190.47397ZM28.375 190.56772Q28.609375 191.14584 28.78125 192.28647Q28.875 192.94272 29.0 193.20834Q29.109375 193.47397 29.328125 193.63022Q29.546875 193.77084 29.828125 193.77084Q30.25 193.77084 30.53125 193.45834Q30.8125 193.13022 30.8125 192.52084Q30.8125 191.91147 30.546875 191.44272Q30.28125 190.95834 29.8125 190.7396Q29.453125 190.56772 28.765625 190.56772L28.375 190.56772ZM31.5 187.53647L25.28125 187.53647L25.28125 186.59897L26.15625 186.59897Q25.140625 185.91147 25.140625 184.6146Q25.140625 184.0521 25.34375 183.58334Q25.546875 183.09897 25.875 182.8646Q26.203125 182.63022 26.640625 182.53647Q26.9375 182.4896 27.671875 182.4896L31.5 182.4896L31.5 183.53647L27.71875 183.53647Q27.0625 183.53647 26.75 183.66147Q26.4375 183.78647 26.25 184.09897Q26.046875 184.41147 26.046875 184.83334Q26.046875 185.50522 26.484375 186.00522Q26.90625 186.4896 28.09375 186.4896L31.5 186.4896L31.5 187.53647ZM30.5625 178.2396L31.484375 178.08334Q31.578125 178.53647 31.578125 178.88022Q31.578125 179.45834 31.40625 179.77084Q31.21875 180.08334 30.921875 180.22397Q30.625 180.34897 29.671875 180.34897L26.09375 180.34897L26.09375 181.1146L25.28125 181.1146L25.28125 180.34897L23.734375 180.34897L23.109375 179.3021L25.28125 179.3021L25.28125 178.2396L26.09375 178.2396L26.09375 179.3021L29.734375 179.3021Q30.1875 179.3021 30.3125 179.25522Q30.4375 179.19272 30.515625 179.06772Q30.59375 178.94272 30.59375 178.70834Q30.59375 178.52084 30.5625 178.2396ZM24.125 177.53647L22.90625 177.53647L22.90625 176.47397L24.125 176.47397L24.125 177.53647ZM31.5 177.53647L25.28125 177.53647L25.28125 176.47397L31.5 176.47397L31.5 177.53647ZM31.5 174.56772L22.90625 174.56772L22.90625 173.50522L31.5 173.50522L31.5 174.56772ZM29.5 167.28647L29.625 166.19272Q30.578125 166.44272 31.109375 167.14584Q31.640625 167.84897 31.640625 168.9271Q31.640625 170.28647 30.796875 171.09897Q29.953125 171.89584 28.4375 171.89584Q26.875 171.89584 26.015625 171.08334Q25.140625 170.27084 25.140625 168.9896Q25.140625 167.7396 25.984375 166.95834Q26.828125 166.16147 28.375 166.16147Q28.46875 166.16147 28.65625 166.16147L28.65625 170.8021Q29.6875 170.7396 30.234375 170.22397Q30.765625 169.70834 30.765625 168.9271Q30.765625 168.34897 30.46875 167.94272Q30.15625 167.52084 29.5 167.28647ZM27.796875 170.7396L27.796875 167.27084Q27.0 167.33334 26.609375 167.66147Q26.0 168.1771 26.0 168.97397Q26.0 169.70834 26.484375 170.20834Q26.96875 170.69272 27.796875 170.7396ZM29.640625 164.95834L29.484375 163.9271Q30.109375 163.83334 30.4375 163.44272Q30.765625 163.03647 30.765625 162.3021Q30.765625 161.58334 30.484375 161.2396Q30.1875 160.88022 29.78125 160.88022Q29.421875 160.88022 29.21875 161.19272Q29.078125 161.41147 28.859375 162.27084Q28.5625 163.4271 28.359375 163.88022Q28.140625 164.31772 27.765625 164.5521Q27.390625 164.78647 26.921875 164.78647Q26.515625 164.78647 26.15625 164.59897Q25.796875 164.41147 25.5625 164.08334Q25.390625 163.83334 25.265625 163.41147Q25.140625 162.9896 25.140625 162.4896Q25.140625 161.77084 25.359375 161.22397Q25.5625 160.66147 25.921875 160.39584Q26.28125 160.13022 26.875 160.03647L27.015625 161.06772Q26.546875 161.13022 26.28125 161.47397Q26.0 161.8021 26.0 162.4271Q26.0 163.14584 26.25 163.45834Q26.484375 163.77084 26.8125 163.77084Q27.015625 163.77084 27.171875 163.64584Q27.34375 163.50522 27.453125 163.2396Q27.515625 163.08334 27.71875 162.3021Q28.03125 161.1771 28.21875 160.7396Q28.40625 160.3021 28.765625 160.0521Q29.125 159.8021 29.671875 159.8021Q30.203125 159.8021 30.671875 160.1146Q31.125 160.41147 31.390625 160.9896Q31.640625 161.56772 31.640625 162.3021Q31.640625 163.52084 31.140625 164.16147Q30.625 164.78647 29.640625 164.95834Z" fill-rule="nonzero"/><path fill="#000000" d="M62.875 338.92188L62.875 337.85938L66.125 337.85938L66.125 338.92188L62.875 338.92188ZM70.375 341.5L70.375 339.4375L66.65625 339.4375L66.65625 338.46875L70.578125 332.90625L71.4375 332.90625L71.4375 338.46875L72.59375 338.46875L72.59375 339.4375L71.4375 339.4375L71.4375 341.5L70.375 341.5ZM70.375 338.46875L70.375 334.60938L67.6875 338.46875L70.375 338.46875Z" fill-rule="nonzero"/><path fill="#000000" d="M62.875 270.83853L62.875 269.77603L66.125 269.77603L66.125 270.83853L62.875 270.83853ZM72.546875 272.40103L72.546875 273.41666L66.859375 273.41666Q66.859375 273.04166 66.984375 272.68228Q67.203125 272.10416 67.671875 271.54166Q68.15625 270.97916 69.0625 270.24478Q70.46875 269.08853 70.953125 268.41666Q71.453125 267.74478 71.453125 267.15103Q71.453125 266.52603 71.0 266.10416Q70.546875 265.66666 69.828125 265.66666Q69.0625 265.66666 68.609375 266.11978Q68.15625 266.5729 68.140625 267.3854L67.0625 267.27603Q67.171875 266.05728 67.890625 265.43228Q68.625 264.79166 69.859375 264.79166Q71.09375 264.79166 71.8125 265.47916Q72.53125 266.16666 72.53125 267.18228Q72.53125 267.6979 72.3125 268.1979Q72.109375 268.68228 71.609375 269.24478Q71.125 269.79166 70.0 270.74478Q69.046875 271.54166 68.765625 271.83853Q68.5 272.11978 68.328125 272.40103L72.546875 272.40103Z" fill-rule="nonzero"/><path fill="#000000" d="M67.0 201.09895Q67.0 199.5677 67.3125 198.64583Q67.625 197.70833 68.234375 197.20833Q68.859375 196.70833 69.796875 196.70833Q70.484375 196.70833 71.0 196.98958Q71.53125 197.27083 71.875 197.80208Q72.21875 198.3177 72.40625 199.0677Q72.59375 199.8177 72.59375 201.09895Q72.59375 202.61458 72.28125 203.53645Q71.984375 204.45833 71.359375 204.97395Q70.75 205.47395 69.796875 205.47395Q68.5625 205.47395 67.84375 204.58333Q67.0 203.52083 67.0 201.09895ZM68.078125 201.09895Q68.078125 203.20833 68.578125 203.91145Q69.078125 204.61458 69.796875 204.61458Q70.53125 204.61458 71.015625 203.91145Q71.515625 203.20833 71.515625 201.09895Q71.515625 198.97395 71.015625 198.28645Q70.53125 197.58333 69.78125 197.58333Q69.0625 197.58333 68.625 198.1927Q68.078125 198.97395 68.078125 201.09895Z" fill-rule="nonzero"/><path fill="#000000" d="M72.546875 136.23438L72.546875 137.25L66.859375 137.25Q66.859375 136.875 66.984375 136.51562Q67.203125 135.9375 67.671875 135.375Q68.15625 134.8125 69.0625 134.07812Q70.46875 132.92188 70.953125 132.25Q71.453125 131.57812 71.453125 130.98438Q71.453125 130.35938 71.0 129.9375Q70.546875 129.5 69.828125 129.5Q69.0625 129.5 68.609375 129.95312Q68.15625 130.40625 68.140625 131.21875L67.0625 131.10938Q67.171875 129.89062 67.890625 129.26562Q68.625 128.625 69.859375 128.625Q71.09375 128.625 71.8125 129.3125Q72.53125 130.0 72.53125 131.01562Q72.53125 131.53125 72.3125 132.03125Q72.109375 132.51562 71.609375 133.07812Q71.125 133.625 70.0 134.57812Q69.046875 135.375 68.765625 135.67188Q68.5 135.95312 68.328125 136.23438L72.546875 136.23438Z" fill-rule="nonzero"/><path fill="#000000" d="M70.375 69.166664L70.375 67.104164L66.65625 67.104164L66.65625 66.135414L70.578125 60.572914L71.4375 60.572914L71.4375 66.135414L72.59375 66.135414L72.59375 67.104164L71.4375 67.104164L71.4375 69.166664L70.375 69.166664ZM70.375 66.135414L70.375 62.27604L67.6875 66.135414L70.375 66.135414Z" fill-rule="nonzero"/><path fill="#000000" d="M142.0243 351.92188L142.0243 350.85938L145.2743 350.85938L145.2743 351.92188L142.0243 351.92188ZM149.5243 354.5L149.5243 352.4375L145.80556 352.4375L145.80556 351.46875L149.72743 345.90625L150.5868 345.90625L150.5868 351.46875L151.74306 351.46875L151.74306 352.4375L150.5868 352.4375L150.5868 354.5L149.5243 354.5ZM149.5243 351.46875L149.5243 347.60938L146.8368 351.46875L149.5243 351.46875Z" fill-rule="nonzero"/><path fill="#000000" d="M294.64914 351.92188L294.64914 350.85938L297.89914 350.85938L297.89914 351.92188L294.64914 351.92188ZM304.321 353.48438L304.321 354.5L298.6335 354.5Q298.6335 354.125 298.7585 353.76562Q298.97726 353.1875 299.446 352.625Q299.9304 352.0625 300.83664 351.32812Q302.2429 350.17188 302.72726 349.5Q303.22726 348.82812 303.22726 348.23438Q303.22726 347.60938 302.77414 347.1875Q302.321 346.75 301.60226 346.75Q300.83664 346.75 300.3835 347.20312Q299.9304 347.65625 299.91476 348.46875L298.83664 348.35938Q298.946 347.14062 299.66476 346.51562Q300.39914 345.875 301.6335 345.875Q302.8679 345.875 303.58664 346.5625Q304.3054 347.25 304.3054 348.26562Q304.3054 348.78125 304.08664 349.28125Q303.8835 349.76562 303.3835 350.32812Q302.89914 350.875 301.77414 351.82812Q300.821 352.625 300.53976 352.92188Q300.27414 353.20312 300.10226 353.48438L304.321 353.48438Z" fill-rule="nonzero"/><path fill="#000000" d="M449.39896 350.26562Q449.39896 348.73438 449.71146 347.8125Q450.02396 346.875 450.63333 346.375Q451.25833 345.875 452.19583 345.875Q452.88333 345.875 453.39896 346.15625Q453.9302 346.4375 454.27396 346.96875Q454.6177 347.48438 454.8052 348.23438Q454.9927 348.98438 454.9927 350.26562Q454.9927 351.78125 454.6802 352.70312Q454.38333 353.625 453.75833 354.14062Q453.14896 354.64062 452.19583 354.64062Q450.96146 354.64062 450.2427 353.75Q449.39896 352.6875 449.39896 350.26562ZM450.47708 350.26562Q450.47708 352.375 450.97708 353.07812Q451.47708 353.78125 452.19583 353.78125Q452.9302 353.78125 453.41458 353.07812Q453.91458 352.375 453.91458 350.26562Q453.91458 348.14062 453.41458 347.45312Q452.9302 346.75 452.1802 346.75Q451.46146 346.75 451.02396 347.35938Q450.47708 348.14062 450.47708 350.26562Z" fill-rule="nonzero"/><path fill="#000000" d="M607.5706 353.48438L607.5706 354.5L601.8831 354.5Q601.8831 354.125 602.0081 353.76562Q602.22687 353.1875 602.6956 352.625Q603.18 352.0625 604.08624 351.32812Q605.4925 350.17188 605.97687 349.5Q606.47687 348.82812 606.47687 348.23438Q606.47687 347.60938 606.02374 347.1875Q605.5706 346.75 604.85187 346.75Q604.08624 346.75 603.6331 347.20312Q603.18 347.65625 603.16437 348.46875L602.08624 348.35938Q602.1956 347.14062 602.91437 346.51562Q603.64874 345.875 604.8831 345.875Q606.1175 345.875 606.83624 346.5625Q607.555 347.25 607.555 348.26562Q607.555 348.78125 607.33624 349.28125Q607.1331 349.76562 606.6331 350.32812Q606.14874 350.875 605.02374 351.82812Q604.0706 352.625 603.78937 352.92188Q603.52374 353.20312 603.35187 353.48438L607.5706 353.48438Z" fill-rule="nonzero"/><path fill="#757575" d="M22.03125 39.5L22.03125 25.1875L23.96875 25.1875L31.484375 36.421875L31.484375 25.1875L33.296875 25.1875L33.296875 39.5L31.359375 39.5L23.84375 28.25L23.84375 39.5L22.03125 39.5ZM34.171875 34.3125Q34.171875 31.4375 35.765625 30.046875Q37.109375 28.890625 39.03125 28.890625Q41.171875 28.890625 42.515625 30.296875Q43.875 31.703125 43.875 34.171875Q43.875 36.171875 43.28125 37.328125Q42.6875 38.46875 41.53125 39.109375Q40.390625 39.734375 39.03125 39.734375Q36.84375 39.734375 35.5 38.34375Q34.171875 36.9375 34.171875 34.3125ZM35.96875 34.3125Q35.96875 36.3125 36.828125 37.296875Q37.703125 38.28125 39.03125 38.28125Q40.34375 38.28125 41.203125 37.296875Q42.078125 36.296875 42.078125 34.25Q42.078125 32.328125 41.203125 31.34375Q40.328125 30.34375 39.03125 30.34375Q37.703125 30.34375 36.828125 31.34375Q35.96875 32.328125 35.96875 34.3125ZM45.796875 39.5L45.796875 29.125L47.375 29.125L47.375 30.703125Q47.984375 29.59375 48.5 29.25Q49.015625 28.890625 49.625 28.890625Q50.515625 28.890625 51.4375 29.453125L50.828125 31.09375Q50.1875 30.703125 49.546875 30.703125Q48.96875 30.703125 48.5 31.0625Q48.046875 31.40625 47.84375 32.015625Q47.5625 32.953125 47.5625 34.0625L47.5625 39.5L45.796875 39.5ZM52.8125 39.5L52.8125 29.125L54.390625 29.125L54.390625 30.578125Q54.875 29.828125 55.6875 29.359375Q56.5 28.890625 57.53125 28.890625Q58.6875 28.890625 59.421875 29.375Q60.15625 29.84375 60.46875 30.703125Q61.703125 28.890625 63.671875 28.890625Q65.21875 28.890625 66.046875 29.75Q66.875 30.609375 66.875 32.375L66.875 39.5L65.125 39.5L65.125 32.96875Q65.125 31.90625 64.953125 31.453125Q64.78125 30.984375 64.328125 30.703125Q63.890625 30.421875 63.28125 30.421875Q62.1875 30.421875 61.453125 31.15625Q60.734375 31.875 60.734375 33.46875L60.734375 39.5L58.984375 39.5L58.984375 32.765625Q58.984375 31.59375 58.546875 31.015625Q58.125 30.421875 57.140625 30.421875Q56.40625 30.421875 55.765625 30.8125Q55.140625 31.203125 54.859375 31.953125Q54.578125 32.703125 54.578125 34.125L54.578125 39.5L52.8125 39.5ZM75.59375 38.21875Q74.609375 39.046875 73.703125 39.390625Q72.796875 39.734375 71.765625 39.734375Q70.0625 39.734375 69.140625 38.90625Q68.21875 38.0625 68.21875 36.765625Q68.21875 36.0 68.5625 35.375Q68.921875 34.75 69.484375 34.375Q70.046875 33.984375 70.75 33.78125Q71.265625 33.65625 72.3125 33.515625Q74.4375 33.265625 75.4375 32.921875Q75.453125 32.5625 75.453125 32.453125Q75.453125 31.390625 74.953125 30.9375Q74.28125 30.34375 72.953125 30.34375Q71.703125 30.34375 71.109375 30.78125Q70.53125 31.21875 70.25 32.328125L68.53125 32.09375Q68.765625 30.984375 69.296875 30.3125Q69.828125 29.625 70.84375 29.265625Q71.859375 28.890625 73.203125 28.890625Q74.53125 28.890625 75.359375 29.203125Q76.1875 29.515625 76.578125 30.0Q76.96875 30.46875 77.125 31.1875Q77.21875 31.640625 77.21875 32.8125L77.21875 35.15625Q77.21875 37.609375 77.328125 38.265625Q77.4375 38.90625 77.78125 39.5L75.9375 39.5Q75.671875 38.953125 75.59375 38.21875ZM75.4375 34.296875Q74.484375 34.6875 72.5625 34.953125Q71.484375 35.109375 71.03125 35.3125Q70.59375 35.5 70.34375 35.875Q70.09375 36.25 70.09375 36.71875Q70.09375 37.421875 70.625 37.890625Q71.15625 38.359375 72.1875 38.359375Q73.203125 38.359375 73.984375 37.921875Q74.78125 37.46875 75.15625 36.703125Q75.4375 36.09375 75.4375 34.9375L75.4375 34.296875ZM79.78125 39.5L79.78125 25.1875L81.53125 25.1875L81.53125 39.5L79.78125 39.5ZM90.046875 39.5L90.046875 25.1875L95.4375 25.1875Q96.875 25.1875 97.625 25.3125Q98.671875 25.5 99.390625 26.0Q100.109375 26.484375 100.53125 27.375Q100.96875 28.265625 100.96875 29.328125Q100.96875 31.15625 99.796875 32.421875Q98.640625 33.671875 95.609375 33.671875L91.9375 33.671875L91.9375 39.5L90.046875 39.5ZM91.9375 31.984375L95.640625 31.984375Q97.46875 31.984375 98.234375 31.3125Q99.015625 30.625 99.015625 29.375Q99.015625 28.484375 98.5625 27.84375Q98.109375 27.203125 97.375 27.0Q96.890625 26.875 95.59375 26.875L91.9375 26.875L91.9375 31.984375ZM102.796875 39.5L102.796875 29.125L104.375 29.125L104.375 30.703125Q104.984375 29.59375 105.5 29.25Q106.015625 28.890625 106.625 28.890625Q107.515625 28.890625 108.4375 29.453125L107.828125 31.09375Q107.1875 30.703125 106.546875 30.703125Q105.96875 30.703125 105.5 31.0625Q105.046875 31.40625 104.84375 32.015625Q104.5625 32.953125 104.5625 34.0625L104.5625 39.5L102.796875 39.5ZM109.171875 34.3125Q109.171875 31.4375 110.765625 30.046875Q112.109375 28.890625 114.03125 28.890625Q116.171875 28.890625 117.515625 30.296875Q118.875 31.703125 118.875 34.171875Q118.875 36.171875 118.28125 37.328125Q117.6875 38.46875 116.53125 39.109375Q115.390625 39.734375 114.03125 39.734375Q111.84375 39.734375 110.5 38.34375Q109.171875 36.9375 109.171875 34.3125ZM110.96875 34.3125Q110.96875 36.3125 111.828125 37.296875Q112.703125 38.28125 114.03125 38.28125Q115.34375 38.28125 116.203125 37.296875Q117.078125 36.296875 117.078125 34.25Q117.078125 32.328125 116.203125 31.34375Q115.328125 30.34375 114.03125 30.34375Q112.703125 30.34375 111.828125 31.34375Q110.96875 32.328125 110.96875 34.3125ZM122.4375 39.5L120.8125 39.5L120.8125 25.1875L122.5625 25.1875L122.5625 30.296875Q123.6875 28.890625 125.40625 28.890625Q126.359375 28.890625 127.21875 29.28125Q128.07812 29.671875 128.625 30.375Q129.17188 31.0625 129.48438 32.046875Q129.79688 33.03125 129.79688 34.15625Q129.79688 36.828125 128.48438 38.28125Q127.171875 39.734375 125.328125 39.734375Q123.484375 39.734375 122.4375 38.203125L122.4375 39.5ZM122.421875 34.234375Q122.421875 36.09375 122.921875 36.9375Q123.765625 38.28125 125.171875 38.28125Q126.328125 38.28125 127.15625 37.28125Q128.0 36.28125 128.0 34.296875Q128.0 32.265625 127.1875 31.3125Q126.390625 30.34375 125.25 30.34375Q124.09375 30.34375 123.25 31.34375Q122.421875 32.34375 122.421875 34.234375ZM138.59375 38.21875Q137.60938 39.046875 136.70312 39.390625Q135.79688 39.734375 134.76562 39.734375Q133.0625 39.734375 132.14062 38.90625Q131.21875 38.0625 131.21875 36.765625Q131.21875 36.0 131.5625 35.375Q131.92188 34.75 132.48438 34.375Q133.04688 33.984375 133.75 33.78125Q134.26562 33.65625 135.3125 33.515625Q137.4375 33.265625 138.4375 32.921875Q138.45312 32.5625 138.45312 32.453125Q138.45312 31.390625 137.95312 30.9375Q137.28125 30.34375 135.95312 30.34375Q134.70312 30.34375 134.10938 30.78125Q133.53125 31.21875 133.25 32.328125L131.53125 32.09375Q131.76562 30.984375 132.29688 30.3125Q132.82812 29.625 133.84375 29.265625Q134.85938 28.890625 136.20312 28.890625Q137.53125 28.890625 138.35938 29.203125Q139.1875 29.515625 139.57812 30.0Q139.96875 30.46875 140.125 31.1875Q140.21875 31.640625 140.21875 32.8125L140.21875 35.15625Q140.21875 37.609375 140.32812 38.265625Q140.4375 38.90625 140.78125 39.5L138.9375 39.5Q138.67188 38.953125 138.59375 38.21875ZM138.4375 34.296875Q137.48438 34.6875 135.5625 34.953125Q134.48438 35.109375 134.03125 35.3125Q133.59375 35.5 133.34375 35.875Q133.09375 36.25 133.09375 36.71875Q133.09375 37.421875 133.625 37.890625Q134.15625 38.359375 135.1875 38.359375Q136.20312 38.359375 136.98438 37.921875Q137.78125 37.46875 138.15625 36.703125Q138.4375 36.09375 138.4375 34.9375L138.4375 34.296875ZM144.4375 39.5L142.8125 39.5L142.8125 25.1875L144.5625 25.1875L144.5625 30.296875Q145.6875 28.890625 147.40625 28.890625Q148.35938 28.890625 149.21875 29.28125Q150.07812 29.671875 150.625 30.375Q151.17188 31.0625 151.48438 32.046875Q151.79688 33.03125 151.79688 34.15625Q151.79688 36.828125 150.48438 38.28125Q149.17188 39.734375 147.32812 39.734375Q145.48438 39.734375 144.4375 38.203125L144.4375 39.5ZM144.42188 34.234375Q144.42188 36.09375 144.92188 36.9375Q145.76562 38.28125 147.17188 38.28125Q148.32812 38.28125 149.15625 37.28125Q150.0 36.28125 150.0 34.296875Q150.0 32.265625 149.1875 31.3125Q148.39062 30.34375 147.25 30.34375Q146.09375 30.34375 145.25 31.34375Q144.42188 32.34375 144.42188 34.234375ZM153.82812 27.203125L153.82812 25.1875L155.59375 25.1875L155.59375 27.203125L153.82812 27.203125ZM153.82812 39.5L153.82812 29.125L155.59375 29.125L155.59375 39.5L153.82812 39.5ZM157.78125 39.5L157.78125 25.1875L159.53125 25.1875L159.53125 39.5L157.78125 39.5ZM161.82812 27.203125L161.82812 25.1875L163.59375 25.1875L163.59375 27.203125L161.82812 27.203125ZM161.82812 39.5L161.82812 29.125L163.59375 29.125L163.59375 39.5L161.82812 39.5ZM169.65625 37.921875L169.90625 39.484375Q169.17188 39.640625 168.57812 39.640625Q167.625 39.640625 167.09375 39.34375Q166.57812 39.03125 166.35938 38.546875Q166.14062 38.046875 166.14062 36.46875L166.14062 30.5L164.85938 30.5L164.85938 29.125L166.14062 29.125L166.14062 26.5625L167.89062 25.5L167.89062 29.125L169.65625 29.125L169.65625 30.5L167.89062 30.5L167.89062 36.5625Q167.89062 37.3125 167.98438 37.53125Q168.07812 37.734375 168.28125 37.875Q168.5 38.0 168.89062 38.0Q169.17188 38.0 169.65625 37.921875ZM171.73438 43.5L171.54688 41.84375Q172.125 42.0 172.54688 42.0Q173.14062 42.0 173.48438 41.796875Q173.84375 41.609375 174.0625 41.265625Q174.23438 41.0 174.60938 39.953125Q174.65625 39.796875 174.76562 39.515625L170.82812 29.125L172.71875 29.125L174.875 35.140625Q175.29688 36.28125 175.625 37.53125Q175.9375 36.328125 176.34375 35.171875L178.5625 29.125L180.32812 29.125L176.375 39.671875Q175.75 41.390625 175.39062 42.03125Q174.92188 42.90625 174.3125 43.296875Q173.71875 43.703125 172.875 43.703125Q172.35938 43.703125 171.73438 43.5ZM188.04688 39.5L188.04688 25.1875L193.4375 25.1875Q194.875 25.1875 195.625 25.3125Q196.67188 25.5 197.39062 26.0Q198.10938 26.484375 198.53125 27.375Q198.96875 28.265625 198.96875 29.328125Q198.96875 31.15625 197.79688 32.421875Q196.64062 33.671875 193.60938 33.671875L189.9375 33.671875L189.9375 39.5L188.04688 39.5ZM189.9375 31.984375L193.64062 31.984375Q195.46875 31.984375 196.23438 31.3125Q197.01562 30.625 197.01562 29.375Q197.01562 28.484375 196.5625 27.84375Q196.10938 27.203125 195.375 27.0Q194.89062 26.875 193.59375 26.875L189.9375 26.875L189.9375 31.984375ZM200.78125 39.5L200.78125 25.1875L202.53125 25.1875L202.53125 39.5L200.78125 39.5ZM204.17188 34.3125Q204.17188 31.4375 205.76562 30.046875Q207.10938 28.890625 209.03125 28.890625Q211.17188 28.890625 212.51562 30.296875Q213.875 31.703125 213.875 34.171875Q213.875 36.171875 213.28125 37.328125Q212.6875 38.46875 211.53125 39.109375Q210.39062 39.734375 209.03125 39.734375Q206.84375 39.734375 205.5 38.34375Q204.17188 36.9375 204.17188 34.3125ZM205.96875 34.3125Q205.96875 36.3125 206.82812 37.296875Q207.70312 38.28125 209.03125 38.28125Q210.34375 38.28125 211.20312 37.296875Q212.07812 36.296875 212.07812 34.25Q212.07812 32.328125 211.20312 31.34375Q210.32812 30.34375 209.03125 30.34375Q207.70312 30.34375 206.82812 31.34375Q205.96875 32.328125 205.96875 34.3125ZM219.65625 37.921875L219.90625 39.484375Q219.17188 39.640625 218.57812 39.640625Q217.625 39.640625 217.09375 39.34375Q216.57812 39.03125 216.35938 38.546875Q216.14062 38.046875 216.14062 36.46875L216.14062 30.5L214.85938 30.5L214.85938 29.125L216.14062 29.125L216.14062 26.5625L217.89062 25.5L217.89062 29.125L219.65625 29.125L219.65625 30.5L217.89062 30.5L217.89062 36.5625Q217.89062 37.3125 217.98438 37.53125Q218.07812 37.734375 218.28125 37.875Q218.5 38.0 218.89062 38.0Q219.17188 38.0 219.65625 37.921875Z" fill-rule="nonzero"/></svg>