<svg version="1.1" viewBox="0.0 0.0 1898.0 1175.0" fill="none" stroke="none" stroke-linecap="square" stroke-miterlimit="10" width="1898" height="1175" xmlns:xlink="http://www.w3.org/1999/xlink" xmlns="http://www.w3.org/2000/svg"><path fill="#ffffff" d="M0 0L1898.0 0L1898.0 1175.0L0 1175.0L0 0Z" fill-rule="nonzero"/><path fill="#4285f4" d="M949.0 58.75C1133.2699 58.75 1304.2489 154.68341 1400.277 311.95383C1496.305 469.22427 1503.5298 665.1447 1419.3457 829.0606L949.0 587.5Z" fill-rule="nonzero"/><path fill="#b3cefb" d="M896.511 61.361744C913.95325 59.62166 931.4712 58.75 949.0 58.75L949.0 587.5Z" fill-rule="nonzero"/><path fill="#7ed1d7" d="M865.05444 65.45622C875.49664 63.777096 885.9869 62.411655 896.511 61.361744L949.0 587.5Z" fill-rule="nonzero"/><path fill="#ff994d" d="M833.0155 71.62778C843.6291 69.24149 854.31384 67.18333 865.05444 65.45622L949.0 587.5Z" fill-rule="nonzero"/><path fill="#71c287" d="M800.5479 80.01744C811.27905 76.87831 822.107 74.08035 833.0155 71.62778L949.0 587.5Z" fill-rule="nonzero"/><path fill="#fcd04f" d="M765.27325 91.69657C776.891 87.39145 788.6565 83.496 800.5479 80.01744L949.0 587.5Z" fill-rule="nonzero"/><path fill="#f07b72" d="M726.7851 107.71141C739.3989 101.86927 752.23834 96.52684 765.27325 91.69657L949.0 587.5Z" fill-rule="nonzero"/><path fill="#7baaf7" d="M645.9587 154.20734C671.479 136.35866 698.52625 120.79953 726.7851 107.71141L949.0 587.5Z" fill-rule="nonzero"/><path fill="#46bdc6" d="M561.9792 227.23419C587.32556 200.00551 615.4746 175.52768 645.9587 154.20734L949.0 587.5Z" fill-rule="nonzero"/><path fill="#ff6d01" d="M463.74625 377.48724C487.687 322.1699 520.91003 271.35333 561.9792 227.23419L949.0 587.5Z" fill-rule="nonzero"/><path fill="#34a853" d="M421.29907 620.79095C416.043 537.476 430.58884 454.1005 463.74625 377.48724L949.0 587.5Z" fill-rule="nonzero"/><path fill="#fbbc04" d="M734.6283 1070.8439C554.4739 990.9422 433.70743 817.47833 421.29907 620.79095L949.0 587.5Z" fill-rule="nonzero"/><path fill="#ea4335" d="M1419.3457 829.0606C1291.2816 1078.4156 990.87445 1184.4937 734.6283 1070.8439L949.0 587.5Z" fill-rule="nonzero"/><path fill="#1a1a1a" d="M59.46875 69.4375Q59.46875 68.203125 59.953125 67.21875Q60.4375 66.21875 61.3125 65.6875Q62.1875 65.140625 63.296875 65.140625Q65.03125 65.140625 66.09375 66.34375Q67.15625 67.53125 67.15625 69.515625L67.15625 69.609375Q67.15625 70.84375 66.6875 71.828125Q66.21875 72.8125 65.328125 73.359375Q64.453125 73.90625 63.3125 73.90625Q61.59375 73.90625 60.53125 72.71875Q59.46875 71.515625 59.46875 69.546875L59.46875 69.4375ZM60.921875 69.609375Q60.921875 71.015625 61.5625 71.875Q62.21875 72.71875 63.3125 72.71875Q64.421875 72.71875 65.0625 71.859375Q65.71875 71.0 65.71875 69.4375Q65.71875 68.046875 65.046875 67.1875Q64.390625 66.328125 63.296875 66.328125Q62.234375 66.328125 61.578125 67.1875Q60.921875 68.03125 60.921875 69.609375ZM70.8125 63.25L70.8125 65.296875L72.390625 65.296875L72.390625 66.40625L70.8125 66.40625L70.8125 71.65625Q70.8125 72.15625 71.015625 72.421875Q71.234375 72.671875 71.734375 72.671875Q71.984375 72.671875 72.421875 72.578125L72.421875 73.75Q71.859375 73.90625 71.3125 73.90625Q70.34375 73.90625 69.84375 73.328125Q69.359375 72.734375 69.359375 71.65625L69.359375 66.40625L67.828125 66.40625L67.828125 65.296875L69.359375 65.296875L69.359375 63.25L70.8125 63.25ZM75.296875 66.3125Q76.25 65.140625 77.796875 65.140625Q80.46875 65.140625 80.5 68.15625L80.5 73.75L79.046875 73.75L79.046875 68.15625Q79.046875 67.234375 78.625 66.796875Q78.21875 66.359375 77.359375 66.359375Q76.65625 66.359375 76.125 66.734375Q75.59375 67.109375 75.296875 67.71875L75.296875 73.75L73.84375 73.75L73.84375 61.75L75.296875 61.75L75.296875 66.3125ZM86.359375 73.90625Q84.640625 73.90625 83.5625 72.78125Q82.484375 71.640625 82.484375 69.75L82.484375 69.484375Q82.484375 68.234375 82.953125 67.25Q83.4375 66.25 84.296875 65.703125Q85.171875 65.140625 86.171875 65.140625Q87.828125 65.140625 88.734375 66.234375Q89.65625 67.3125 89.65625 69.328125L89.65625 69.9375L83.921875 69.9375Q83.953125 71.1875 84.65625 71.953125Q85.359375 72.71875 86.4375 72.71875Q87.203125 72.71875 87.734375 72.40625Q88.265625 72.09375 88.65625 71.578125L89.546875 72.265625Q88.484375 73.90625 86.359375 73.90625ZM86.171875 66.328125Q85.296875 66.328125 84.703125 66.96875Q84.109375 67.59375 83.96875 68.75L88.203125 68.75L88.203125 68.640625Q88.140625 67.53125 87.609375 66.9375Q87.078125 66.328125 86.171875 66.328125ZM94.9375 66.59375Q94.609375 66.53125 94.21875 66.53125Q92.796875 66.53125 92.296875 67.75L92.296875 73.75L90.84375 73.75L90.84375 65.296875L92.25 65.296875L92.28125 66.265625Q92.984375 65.140625 94.296875 65.140625Q94.71875 65.140625 94.9375 65.25L94.9375 66.59375ZM99.46875 69.4375Q99.46875 68.203125 99.953125 67.21875Q100.4375 66.21875 101.3125 65.6875Q102.1875 65.140625 103.296875 65.140625Q105.03125 65.140625 106.09375 66.34375Q107.15625 67.53125 107.15625 69.515625L107.15625 69.609375Q107.15625 70.84375 106.6875 71.828125Q106.21875 72.8125 105.328125 73.359375Q104.453125 73.90625 103.3125 73.90625Q101.59375 73.90625 100.53125 72.71875Q99.46875 71.515625 99.46875 69.546875L99.46875 69.4375ZM100.921875 69.609375Q100.921875 71.015625 101.5625 71.875Q102.21875 72.71875 103.3125 72.71875Q104.421875 72.71875 105.0625 71.859375Q105.71875 71.0 105.71875 69.4375Q105.71875 68.046875 105.046875 67.1875Q104.390625 66.328125 103.296875 66.328125Q102.234375 66.328125 101.578125 67.1875Q100.921875 68.03125 100.921875 69.609375ZM116.0 69.609375Q116.0 71.546875 115.109375 72.734375Q114.21875 73.90625 112.71875 73.90625Q111.125 73.90625 110.25 72.765625L110.171875 73.75L108.84375 73.75L108.84375 61.75L110.296875 61.75L110.296875 66.21875Q111.171875 65.140625 112.703125 65.140625Q114.25 65.140625 115.125 66.3125Q116.0 67.46875 116.0 69.484375L116.0 69.609375ZM114.5625 69.453125Q114.5625 67.96875 113.984375 67.171875Q113.421875 66.359375 112.34375 66.359375Q110.921875 66.359375 110.296875 67.6875L110.296875 71.34375Q110.953125 72.671875 112.359375 72.671875Q113.40625 72.671875 113.984375 71.875Q114.5625 71.0625 114.5625 69.453125ZM122.765625 71.5Q122.765625 70.921875 122.328125 70.59375Q121.890625 70.265625 120.78125 70.03125Q119.6875 69.796875 119.046875 69.46875Q118.40625 69.140625 118.09375 68.6875Q117.78125 68.234375 117.78125 67.609375Q117.78125 66.578125 118.65625 65.859375Q119.546875 65.140625 120.90625 65.140625Q122.34375 65.140625 123.234375 65.890625Q124.140625 66.625 124.140625 67.78125L122.6875 67.78125Q122.6875 67.1875 122.171875 66.765625Q121.671875 66.328125 120.90625 66.328125Q120.125 66.328125 119.671875 66.671875Q119.234375 67.015625 119.234375 67.5625Q119.234375 68.09375 119.640625 68.359375Q120.0625 68.625 121.140625 68.875Q122.21875 69.109375 122.890625 69.453125Q123.5625 69.78125 123.890625 70.25Q124.21875 70.71875 124.21875 71.40625Q124.21875 72.53125 123.3125 73.21875Q122.40625 73.90625 120.953125 73.90625Q119.9375 73.90625 119.15625 73.546875Q118.375 73.1875 117.9375 72.546875Q117.5 71.890625 117.5 71.140625L118.9375 71.140625Q118.984375 71.875 119.515625 72.296875Q120.0625 72.71875 120.953125 72.71875Q121.78125 72.71875 122.265625 72.390625Q122.765625 72.0625 122.765625 71.5ZM129.23438 72.71875Q130.01562 72.71875 130.59375 72.25Q131.17188 71.78125 131.23438 71.078125L132.59375 71.078125Q132.5625 71.8125 132.09375 72.46875Q131.64062 73.125 130.85938 73.515625Q130.09375 73.90625 129.23438 73.90625Q127.515625 73.90625 126.484375 72.75Q125.46875 71.59375 125.46875 69.59375L125.46875 69.359375Q125.46875 68.125 125.921875 67.171875Q126.375 66.203125 127.21875 65.671875Q128.07812 65.140625 129.23438 65.140625Q130.65625 65.140625 131.59375 66.0Q132.53125 66.84375 132.59375 68.203125L131.23438 68.203125Q131.17188 67.375 130.60938 66.859375Q130.04688 66.328125 129.23438 66.328125Q128.125 66.328125 127.515625 67.125Q126.921875 67.90625 126.921875 69.40625L126.921875 69.6875Q126.921875 71.140625 127.515625 71.9375Q128.125 72.71875 129.23438 72.71875ZM139.0625 72.90625Q138.21875 73.90625 136.59375 73.90625Q135.23438 73.90625 134.53125 73.125Q133.82812 72.328125 133.8125 70.796875L133.8125 65.296875L135.26562 65.296875L135.26562 70.75Q135.26562 72.671875 136.82812 72.671875Q138.48438 72.671875 139.03125 71.4375L139.03125 65.296875L140.46875 65.296875L140.46875 73.75L139.09375 73.75L139.0625 72.90625ZM146.9375 66.59375Q146.60938 66.53125 146.21875 66.53125Q144.79688 66.53125 144.29688 67.75L144.29688 73.75L142.84375 73.75L142.84375 65.296875L144.25 65.296875L144.28125 66.265625Q144.98438 65.140625 146.29688 65.140625Q146.71875 65.140625 146.9375 65.25L146.9375 66.59375ZM151.35938 73.90625Q149.64062 73.90625 148.5625 72.78125Q147.48438 71.640625 147.48438 69.75L147.48438 69.484375Q147.48438 68.234375 147.95312 67.25Q148.4375 66.25 149.29688 65.703125Q150.17188 65.140625 151.17188 65.140625Q152.82812 65.140625 153.73438 66.234375Q154.65625 67.3125 154.65625 69.328125L154.65625 69.9375L148.92188 69.9375Q148.95312 71.1875 149.65625 71.953125Q150.35938 72.71875 151.4375 72.71875Q152.20312 72.71875 152.73438 72.40625Q153.26562 72.09375 153.65625 71.578125L154.54688 72.265625Q153.48438 73.90625 151.35938 73.90625ZM151.17188 66.328125Q150.29688 66.328125 149.70312 66.96875Q149.10938 67.59375 148.96875 68.75L153.20312 68.75L153.20312 68.640625Q153.14062 67.53125 152.60938 66.9375Q152.07812 66.328125 151.17188 66.328125ZM160.5625 73.75L160.5625 66.40625L159.21875 66.40625L159.21875 65.296875L160.5625 65.296875L160.5625 64.421875Q160.5625 63.0625 161.28125 62.328125Q162.01562 61.578125 163.34375 61.578125Q163.84375 61.578125 164.32812 61.71875L164.25 62.890625Q163.89062 62.8125 163.46875 62.8125Q162.76562 62.8125 162.375 63.234375Q162.0 63.640625 162.0 64.40625L162.0 65.296875L163.8125 65.296875L163.8125 66.40625L162.0 66.40625L162.0 73.75L160.5625 73.75ZM165.46875 69.4375Q165.46875 68.203125 165.95312 67.21875Q166.4375 66.21875 167.3125 65.6875Q168.1875 65.140625 169.29688 65.140625Q171.03125 65.140625 172.09375 66.34375Q173.15625 67.53125 173.15625 69.515625L173.15625 69.609375Q173.15625 70.84375 172.6875 71.828125Q172.21875 72.8125 171.32812 73.359375Q170.45312 73.90625 169.3125 73.90625Q167.59375 73.90625 166.53125 72.71875Q165.46875 71.515625 165.46875 69.546875L165.46875 69.4375ZM166.92188 69.609375Q166.92188 71.015625 167.5625 71.875Q168.21875 72.71875 169.3125 72.71875Q170.42188 72.71875 171.0625 71.859375Q171.71875 71.0 171.71875 69.4375Q171.71875 68.046875 171.04688 67.1875Q170.39062 66.328125 169.29688 66.328125Q168.23438 66.328125 167.57812 67.1875Q166.92188 68.03125 166.92188 69.609375ZM178.9375 66.59375Q178.60938 66.53125 178.21875 66.53125Q176.79688 66.53125 176.29688 67.75L176.29688 73.75L174.84375 73.75L174.84375 65.296875L176.25 65.296875L176.28125 66.265625Q176.98438 65.140625 178.29688 65.140625Q178.71875 65.140625 178.9375 65.25L178.9375 66.59375ZM182.20312 69.828125L181.29688 70.78125L181.29688 73.75L179.85938 73.75L179.85938 61.75L181.29688 61.75L181.29688 69.0L182.07812 68.078125L184.70312 65.296875L186.46875 65.296875L183.17188 68.828125L186.84375 73.75L185.15625 73.75L182.20312 69.828125ZM192.76562 71.5Q192.76562 70.921875 192.32812 70.59375Q191.89062 70.265625 190.78125 70.03125Q189.6875 69.796875 189.04688 69.46875Q188.40625 69.140625 188.09375 68.6875Q187.78125 68.234375 187.78125 67.609375Q187.78125 66.578125 188.65625 65.859375Q189.54688 65.140625 190.90625 65.140625Q192.34375 65.140625 193.23438 65.890625Q194.14062 66.625 194.14062 67.78125L192.6875 67.78125Q192.6875 67.1875 192.17188 66.765625Q191.67188 66.328125 190.90625 66.328125Q190.125 66.328125 189.67188 66.671875Q189.23438 67.015625 189.23438 67.5625Q189.23438 68.09375 189.64062 68.359375Q190.0625 68.625 191.14062 68.875Q192.21875 69.109375 192.89062 69.453125Q193.5625 69.78125 193.89062 70.25Q194.21875 70.71875 194.21875 71.40625Q194.21875 72.53125 193.3125 73.21875Q192.40625 73.90625 190.95312 73.90625Q189.9375 73.90625 189.15625 73.546875Q188.375 73.1875 187.9375 72.546875Q187.5 71.890625 187.5 71.140625L188.9375 71.140625Q188.98438 71.875 189.51562 72.296875Q190.0625 72.71875 190.95312 72.71875Q191.78125 72.71875 192.26562 72.390625Q192.76562 72.0625 192.76562 71.5Z" fill-rule="nonzero"/><path fill="#9e9e9e" d="M64.453125 95.75L63.0 95.75L63.0 86.109375L60.078125 87.1875L60.078125 85.875L64.21875 84.3125L64.453125 84.3125L64.453125 95.75ZM68.875 94.984375Q68.875 94.609375 69.09375 94.359375Q69.328125 94.109375 69.765625 94.109375Q70.21875 94.109375 70.4375 94.359375Q70.671875 94.609375 70.671875 94.984375Q70.671875 95.34375 70.4375 95.59375Q70.21875 95.84375 69.765625 95.84375Q69.328125 95.84375 69.09375 95.59375Q68.875 95.34375 68.875 94.984375ZM78.375 84.359375L78.375 85.59375L78.109375 85.59375Q76.421875 85.625 75.421875 86.59375Q74.421875 87.5625 74.265625 89.3125Q75.15625 88.28125 76.71875 88.28125Q78.203125 88.28125 79.078125 89.328125Q79.96875 90.375 79.96875 92.03125Q79.96875 93.796875 79.015625 94.859375Q78.0625 95.90625 76.453125 95.90625Q74.8125 95.90625 73.796875 94.65625Q72.78125 93.390625 72.78125 91.421875L72.78125 90.859375Q72.78125 87.71875 74.125 86.0625Q75.46875 84.40625 78.109375 84.359375L78.375 84.359375ZM76.46875 89.484375Q75.734375 89.484375 75.109375 89.9375Q74.484375 90.375 74.234375 91.046875L74.234375 91.578125Q74.234375 92.984375 74.859375 93.84375Q75.5 94.703125 76.453125 94.703125Q77.421875 94.703125 77.984375 93.984375Q78.546875 93.265625 78.546875 92.109375Q78.546875 90.9375 77.96875 90.21875Q77.40625 89.484375 76.46875 89.484375ZM81.578125 86.5625Q81.578125 85.53125 82.21875 84.875Q82.875 84.203125 83.90625 84.203125Q84.9375 84.203125 85.578125 84.875Q86.234375 85.546875 86.234375 86.609375L86.234375 87.15625Q86.234375 88.1875 85.578125 88.84375Q84.921875 89.5 83.921875 89.5Q82.90625 89.5 82.234375 88.84375Q81.578125 88.1875 81.578125 87.109375L81.578125 86.5625ZM82.65625 87.15625Q82.65625 87.765625 83.0 88.171875Q83.34375 88.5625 83.921875 88.5625Q84.46875 88.5625 84.8125 88.1875Q85.15625 87.796875 85.15625 87.125L85.15625 86.5625Q85.15625 85.953125 84.8125 85.5625Q84.484375 85.15625 83.90625 85.15625Q83.328125 85.15625 82.984375 85.5625Q82.65625 85.953125 82.65625 86.59375L82.65625 87.15625ZM87.109375 92.953125Q87.109375 91.9375 87.765625 91.28125Q88.421875 90.609375 89.4375 90.609375Q90.46875 90.609375 91.125 91.265625Q91.78125 91.921875 91.78125 93.015625L91.78125 93.5625Q91.78125 94.59375 91.125 95.265625Q90.46875 95.921875 89.453125 95.921875Q88.4375 95.921875 87.765625 95.265625Q87.109375 94.609375 87.109375 93.515625L87.109375 92.953125ZM88.1875 93.5625Q88.1875 94.1875 88.53125 94.578125Q88.875 94.96875 89.453125 94.96875Q90.015625 94.96875 90.34375 94.59375Q90.6875 94.203125 90.6875 93.53125L90.6875 92.953125Q90.6875 92.34375 90.34375 91.953125Q90.015625 91.5625 89.4375 91.5625Q88.890625 91.5625 88.53125 91.953125Q88.1875 92.328125 88.1875 92.984375L88.1875 93.5625ZM84.25 94.890625L83.421875 94.375L88.984375 85.484375L89.796875 86.0L84.25 94.890625Z" fill-rule="nonzero"/><path stroke="#757575" stroke-width="1.0" stroke-linecap="butt" d="M58.75 79.25L414.25 79.25L924.03687 85.808174" fill-rule="nonzero"/><path fill="#9e9e9e" d="M926.03687 85.808174C926.03687 84.703606 925.1414 83.808174 924.03687 83.808174C922.9323 83.808174 922.03687 84.703606 922.03687 85.808174C922.03687 86.91274 922.9323 87.808174 924.03687 87.808174C925.1414 87.808174 926.03687 86.91274 926.03687 85.808174" fill-rule="nonzero"/><path fill="#1a1a1a" d="M61.578125 110.296875L61.578125 114.75L60.078125 114.75L60.078125 103.375L64.265625 103.375Q66.140625 103.375 67.1875 104.328125Q68.25 105.28125 68.25 106.84375Q68.25 108.5 67.21875 109.40625Q66.1875 110.296875 64.25 110.296875L61.578125 110.296875ZM61.578125 109.0625L64.265625 109.0625Q65.46875 109.0625 66.109375 108.5Q66.75 107.9375 66.75 106.859375Q66.75 105.84375 66.109375 105.234375Q65.46875 104.625 64.359375 104.609375L61.578125 104.609375L61.578125 109.0625ZM75.0625 114.75Q74.9375 114.5 74.859375 113.859375Q73.859375 114.90625 72.453125 114.90625Q71.203125 114.90625 70.40625 114.203125Q69.609375 113.484375 69.609375 112.40625Q69.609375 111.078125 70.609375 110.359375Q71.609375 109.625 73.4375 109.625L74.84375 109.625L74.84375 108.953125Q74.84375 108.203125 74.390625 107.75Q73.9375 107.296875 73.046875 107.296875Q72.28125 107.296875 71.75 107.6875Q71.234375 108.078125 71.234375 108.640625L69.78125 108.640625Q69.78125 108.0 70.21875 107.421875Q70.671875 106.828125 71.4375 106.484375Q72.21875 106.140625 73.140625 106.140625Q74.59375 106.140625 75.421875 106.875Q76.25 107.59375 76.28125 108.875L76.28125 112.765625Q76.28125 113.9375 76.578125 114.625L76.578125 114.75L75.0625 114.75ZM72.671875 113.640625Q73.34375 113.640625 73.953125 113.296875Q74.5625 112.9375 74.84375 112.375L74.84375 110.640625L73.703125 110.640625Q71.046875 110.640625 71.046875 112.203125Q71.046875 112.875 71.5 113.265625Q71.953125 113.640625 72.671875 113.640625ZM80.8125 104.25L80.8125 106.296875L82.390625 106.296875L82.390625 107.40625L80.8125 107.40625L80.8125 112.65625Q80.8125 113.15625 81.015625 113.421875Q81.234375 113.671875 81.734375 113.671875Q81.984375 113.671875 82.421875 113.578125L82.421875 114.75Q81.859375 114.90625 81.3125 114.90625Q80.34375 114.90625 79.84375 114.328125Q79.359375 113.734375 79.359375 112.65625L79.359375 107.40625L77.828125 107.40625L77.828125 106.296875L79.359375 106.296875L79.359375 104.25L80.8125 104.25ZM85.421875 114.75L83.96875 114.75L83.96875 106.296875L85.421875 106.296875L85.421875 114.75ZM83.859375 104.046875Q83.859375 103.703125 84.0625 103.46875Q84.28125 103.21875 84.703125 103.21875Q85.125 103.21875 85.34375 103.46875Q85.5625 103.703125 85.5625 104.0625Q85.5625 104.40625 85.34375 104.640625Q85.125 104.875 84.703125 104.875Q84.28125 104.875 84.0625 104.640625Q83.859375 104.40625 83.859375 104.046875ZM89.21875 106.296875L89.265625 107.359375Q90.234375 106.140625 91.796875 106.140625Q94.46875 106.140625 94.5 109.15625L94.5 114.75L93.046875 114.75L93.046875 109.15625Q93.046875 108.234375 92.625 107.796875Q92.21875 107.359375 91.359375 107.359375Q90.65625 107.359375 90.125 107.734375Q89.59375 108.109375 89.296875 108.71875L89.296875 114.75L87.84375 114.75L87.84375 106.296875L89.21875 106.296875ZM102.0625 114.75Q101.9375 114.5 101.859375 113.859375Q100.859375 114.90625 99.453125 114.90625Q98.203125 114.90625 97.40625 114.203125Q96.609375 113.484375 96.609375 112.40625Q96.609375 111.078125 97.609375 110.359375Q98.609375 109.625 100.4375 109.625L101.84375 109.625L101.84375 108.953125Q101.84375 108.203125 101.390625 107.75Q100.9375 107.296875 100.046875 107.296875Q99.28125 107.296875 98.75 107.6875Q98.234375 108.078125 98.234375 108.640625L96.78125 108.640625Q96.78125 108.0 97.21875 107.421875Q97.671875 106.828125 98.4375 106.484375Q99.21875 106.140625 100.140625 106.140625Q101.59375 106.140625 102.421875 106.875Q103.25 107.59375 103.28125 108.875L103.28125 112.765625Q103.28125 113.9375 103.578125 114.625L103.578125 114.75L102.0625 114.75ZM99.671875 113.640625Q100.34375 113.640625 100.953125 113.296875Q101.5625 112.9375 101.84375 112.375L101.84375 110.640625L100.703125 110.640625Q98.046875 110.640625 98.046875 112.203125Q98.046875 112.875 98.5 113.265625Q98.953125 113.640625 99.671875 113.640625Z" fill-rule="nonzero"/><path fill="#9e9e9e" d="M64.453125 136.75L63.0 136.75L63.0 127.109375L60.078125 128.1875L60.078125 126.875L64.21875 125.3125L64.453125 125.3125L64.453125 136.75ZM68.875 135.98438Q68.875 135.60938 69.09375 135.35938Q69.328125 135.10938 69.765625 135.10938Q70.21875 135.10938 70.4375 135.35938Q70.671875 135.60938 70.671875 135.98438Q70.671875 136.34375 70.4375 136.59375Q70.21875 136.84375 69.765625 136.84375Q69.328125 136.84375 69.09375 136.59375Q68.875 136.34375 68.875 135.98438ZM79.828125 131.89062Q79.828125 134.4375 78.953125 135.67188Q78.09375 136.90625 76.25 136.90625Q74.4375 136.90625 73.5625 135.70312Q72.6875 134.48438 72.65625 132.09375L72.65625 130.15625Q72.65625 127.65625 73.515625 126.4375Q74.390625 125.21875 76.234375 125.21875Q78.078125 125.21875 78.9375 126.390625Q79.8125 127.5625 79.828125 130.01562L79.828125 131.89062ZM78.390625 129.92188Q78.390625 128.07812 77.875 127.25Q77.359375 126.40625 76.234375 126.40625Q75.125 126.40625 74.609375 127.25Q74.109375 128.07812 74.09375 129.8125L74.09375 132.125Q74.09375 133.96875 74.625 134.84375Q75.171875 135.71875 76.25 135.71875Q77.328125 135.71875 77.84375 134.89062Q78.359375 134.0625 78.390625 132.28125L78.390625 129.92188ZM81.578125 127.5625Q81.578125 126.53125 82.21875 125.875Q82.875 125.203125 83.90625 125.203125Q84.9375 125.203125 85.578125 125.875Q86.234375 126.546875 86.234375 127.609375L86.234375 128.15625Q86.234375 129.1875 85.578125 129.84375Q84.921875 130.5 83.921875 130.5Q82.90625 130.5 82.234375 129.84375Q81.578125 129.1875 81.578125 128.10938L81.578125 127.5625ZM82.65625 128.15625Q82.65625 128.76562 83.0 129.17188Q83.34375 129.5625 83.921875 129.5625Q84.46875 129.5625 84.8125 129.1875Q85.15625 128.79688 85.15625 128.125L85.15625 127.5625Q85.15625 126.953125 84.8125 126.5625Q84.484375 126.15625 83.90625 126.15625Q83.328125 126.15625 82.984375 126.5625Q82.65625 126.953125 82.65625 127.59375L82.65625 128.15625ZM87.109375 133.95312Q87.109375 132.9375 87.765625 132.28125Q88.421875 131.60938 89.4375 131.60938Q90.46875 131.60938 91.125 132.26562Q91.78125 132.92188 91.78125 134.01562L91.78125 134.5625Q91.78125 135.59375 91.125 136.26562Q90.46875 136.92188 89.453125 136.92188Q88.4375 136.92188 87.765625 136.26562Q87.109375 135.60938 87.109375 134.51562L87.109375 133.95312ZM88.1875 134.5625Q88.1875 135.1875 88.53125 135.57812Q88.875 135.96875 89.453125 135.96875Q90.015625 135.96875 90.34375 135.59375Q90.6875 135.20312 90.6875 134.53125L90.6875 133.95312Q90.6875 133.34375 90.34375 132.95312Q90.015625 132.5625 89.4375 132.5625Q88.890625 132.5625 88.53125 132.95312Q88.1875 133.32812 88.1875 133.98438L88.1875 134.5625ZM84.25 135.89062L83.421875 135.375L88.984375 126.484375L89.796875 127.0L84.25 135.89062Z" fill-rule="nonzero"/><path stroke="#757575" stroke-width="1.0" stroke-linecap="butt" d="M58.75 120.25L414.25 120.25L853.988 94.255066" fill-rule="nonzero"/><path fill="#9e9e9e" d="M855.988 94.255066C855.988 93.1505 855.0925 92.255066 853.988 92.255066C852.8834 92.255066 851.988 93.1505 851.988 94.255066C851.988 95.359634 852.8834 96.255066 853.988 96.255066C855.0925 96.255066 855.988 95.359634 855.988 94.255066" fill-rule="nonzero"/><path fill="#1a1a1a" d="M67.9375 145.60938L64.28125 145.60938L64.28125 155.75L62.78125 155.75L62.78125 145.60938L59.140625 145.60938L59.140625 144.375L67.9375 144.375L67.9375 145.60938ZM73.9375 148.59375Q73.609375 148.53125 73.21875 148.53125Q71.796875 148.53125 71.296875 149.75L71.296875 155.75L69.84375 155.75L69.84375 147.29688L71.25 147.29688L71.28125 148.26562Q71.984375 147.14062 73.296875 147.14062Q73.71875 147.14062 73.9375 147.25L73.9375 148.59375ZM80.0625 155.75Q79.9375 155.5 79.859375 154.85938Q78.859375 155.90625 77.453125 155.90625Q76.203125 155.90625 75.40625 155.20312Q74.609375 154.48438 74.609375 153.40625Q74.609375 152.07812 75.609375 151.35938Q76.609375 150.625 78.4375 150.625L79.84375 150.625L79.84375 149.95312Q79.84375 149.20312 79.390625 148.75Q78.9375 148.29688 78.046875 148.29688Q77.28125 148.29688 76.75 148.6875Q76.234375 149.07812 76.234375 149.64062L74.78125 149.64062Q74.78125 149.0 75.21875 148.42188Q75.671875 147.82812 76.4375 147.48438Q77.21875 147.14062 78.140625 147.14062Q79.59375 147.14062 80.421875 147.875Q81.25 148.59375 81.28125 149.875L81.28125 153.76562Q81.28125 154.9375 81.578125 155.625L81.578125 155.75L80.0625 155.75ZM77.671875 154.64062Q78.34375 154.64062 78.953125 154.29688Q79.5625 153.9375 79.84375 153.375L79.84375 151.64062L78.703125 151.64062Q76.046875 151.64062 76.046875 153.20312Q76.046875 153.875 76.5 154.26562Q76.953125 154.64062 77.671875 154.64062ZM86.640625 153.78125L88.734375 147.29688L90.203125 147.29688L87.171875 155.75L86.078125 155.75L83.015625 147.29688L84.484375 147.29688L86.640625 153.78125ZM95.359375 155.90625Q93.640625 155.90625 92.5625 154.78125Q91.484375 153.64062 91.484375 151.75L91.484375 151.48438Q91.484375 150.23438 91.953125 149.25Q92.4375 148.25 93.296875 147.70312Q94.171875 147.14062 95.171875 147.14062Q96.828125 147.14062 97.734375 148.23438Q98.65625 149.3125 98.65625 151.32812L98.65625 151.9375L92.921875 151.9375Q92.953125 153.1875 93.65625 153.95312Q94.359375 154.71875 95.4375 154.71875Q96.203125 154.71875 96.734375 154.40625Q97.265625 154.09375 97.65625 153.57812L98.546875 154.26562Q97.484375 155.90625 95.359375 155.90625ZM95.171875 148.32812Q94.296875 148.32812 93.703125 148.96875Q93.109375 149.59375 92.96875 150.75L97.203125 150.75L97.203125 150.64062Q97.140625 149.53125 96.609375 148.9375Q96.078125 148.32812 95.171875 148.32812ZM103.9375 148.59375Q103.609375 148.53125 103.21875 148.53125Q101.796875 148.53125 101.296875 149.75L101.296875 155.75L99.84375 155.75L99.84375 147.29688L101.25 147.29688L101.28125 148.26562Q101.984375 147.14062 103.296875 147.14062Q103.71875 147.14062 103.9375 147.25L103.9375 148.59375ZM106.8125 145.25L106.8125 147.29688L108.390625 147.29688L108.390625 148.40625L106.8125 148.40625L106.8125 153.65625Q106.8125 154.15625 107.015625 154.42188Q107.234375 154.67188 107.734375 154.67188Q107.984375 154.67188 108.421875 154.57812L108.421875 155.75Q107.859375 155.90625 107.3125 155.90625Q106.34375 155.90625 105.84375 155.32812Q105.359375 154.73438 105.359375 153.65625L105.359375 148.40625L103.828125 148.40625L103.828125 147.29688L105.359375 147.29688L105.359375 145.25L106.8125 145.25ZM111.421875 155.75L109.96875 155.75L109.96875 147.29688L111.421875 147.29688L111.421875 155.75ZM109.859375 145.04688Q109.859375 144.70312 110.0625 144.46875Q110.28125 144.21875 110.703125 144.21875Q111.125 144.21875 111.34375 144.46875Q111.5625 144.70312 111.5625 145.0625Q111.5625 145.40625 111.34375 145.64062Q111.125 145.875 110.703125 145.875Q110.28125 145.875 110.0625 145.64062Q109.859375 145.40625 109.859375 145.04688ZM115.21875 147.29688L115.265625 148.35938Q116.234375 147.14062 117.796875 147.14062Q120.46875 147.14062 120.5 150.15625L120.5 155.75L119.046875 155.75L119.046875 150.15625Q119.046875 149.23438 118.625 148.79688Q118.21875 148.35938 117.359375 148.35938Q116.65625 148.35938 116.125 148.73438Q115.59375 149.10938 115.296875 149.71875L115.296875 155.75L113.84375 155.75L113.84375 147.29688L115.21875 147.29688ZM126.359375 155.90625Q124.640625 155.90625 123.5625 154.78125Q122.484375 153.64062 122.484375 151.75L122.484375 151.48438Q122.484375 150.23438 122.953125 149.25Q123.4375 148.25 124.296875 147.70312Q125.171875 147.14062 126.171875 147.14062Q127.828125 147.14062 128.73438 148.23438Q129.65625 149.3125 129.65625 151.32812L129.65625 151.9375L123.921875 151.9375Q123.953125 153.1875 124.65625 153.95312Q125.359375 154.71875 126.4375 154.71875Q127.203125 154.71875 127.734375 154.40625Q128.26562 154.09375 128.65625 153.57812L129.54688 154.26562Q128.48438 155.90625 126.359375 155.90625ZM126.171875 148.32812Q125.296875 148.32812 124.703125 148.96875Q124.109375 149.59375 123.96875 150.75L128.20312 150.75L128.20312 150.64062Q128.14062 149.53125 127.609375 148.9375Q127.078125 148.32812 126.171875 148.32812Z" fill-rule="nonzero"/><path fill="#9e9e9e" d="M64.453125 177.75L63.0 177.75L63.0 168.10938L60.078125 169.1875L60.078125 167.875L64.21875 166.3125L64.453125 166.3125L64.453125 177.75ZM68.875 176.98438Q68.875 176.60938 69.09375 176.35938Q69.328125 176.10938 69.765625 176.10938Q70.21875 176.10938 70.4375 176.35938Q70.671875 176.60938 70.671875 176.98438Q70.671875 177.34375 70.4375 177.59375Q70.21875 177.84375 69.765625 177.84375Q69.328125 177.84375 69.09375 177.59375Q68.875 177.34375 68.875 176.98438ZM79.828125 172.89062Q79.828125 175.4375 78.953125 176.67188Q78.09375 177.90625 76.25 177.90625Q74.4375 177.90625 73.5625 176.70312Q72.6875 175.48438 72.65625 173.09375L72.65625 171.15625Q72.65625 168.65625 73.515625 167.4375Q74.390625 166.21875 76.234375 166.21875Q78.078125 166.21875 78.9375 167.39062Q79.8125 168.5625 79.828125 171.01562L79.828125 172.89062ZM78.390625 170.92188Q78.390625 169.07812 77.875 168.25Q77.359375 167.40625 76.234375 167.40625Q75.125 167.40625 74.609375 168.25Q74.109375 169.07812 74.09375 170.8125L74.09375 173.125Q74.09375 174.96875 74.625 175.84375Q75.171875 176.71875 76.25 176.71875Q77.328125 176.71875 77.84375 175.89062Q78.359375 175.0625 78.390625 173.28125L78.390625 170.92188ZM81.578125 168.5625Q81.578125 167.53125 82.21875 166.875Q82.875 166.20312 83.90625 166.20312Q84.9375 166.20312 85.578125 166.875Q86.234375 167.54688 86.234375 168.60938L86.234375 169.15625Q86.234375 170.1875 85.578125 170.84375Q84.921875 171.5 83.921875 171.5Q82.90625 171.5 82.234375 170.84375Q81.578125 170.1875 81.578125 169.10938L81.578125 168.5625ZM82.65625 169.15625Q82.65625 169.76562 83.0 170.17188Q83.34375 170.5625 83.921875 170.5625Q84.46875 170.5625 84.8125 170.1875Q85.15625 169.79688 85.15625 169.125L85.15625 168.5625Q85.15625 167.95312 84.8125 167.5625Q84.484375 167.15625 83.90625 167.15625Q83.328125 167.15625 82.984375 167.5625Q82.65625 167.95312 82.65625 168.59375L82.65625 169.15625ZM87.109375 174.95312Q87.109375 173.9375 87.765625 173.28125Q88.421875 172.60938 89.4375 172.60938Q90.46875 172.60938 91.125 173.26562Q91.78125 173.92188 91.78125 175.01562L91.78125 175.5625Q91.78125 176.59375 91.125 177.26562Q90.46875 177.92188 89.453125 177.92188Q88.4375 177.92188 87.765625 177.26562Q87.109375 176.60938 87.109375 175.51562L87.109375 174.95312ZM88.1875 175.5625Q88.1875 176.1875 88.53125 176.57812Q88.875 176.96875 89.453125 176.96875Q90.015625 176.96875 90.34375 176.59375Q90.6875 176.20312 90.6875 175.53125L90.6875 174.95312Q90.6875 174.34375 90.34375 173.95312Q90.015625 173.5625 89.4375 173.5625Q88.890625 173.5625 88.53125 173.95312Q88.1875 174.32812 88.1875 174.98438L88.1875 175.5625ZM84.25 176.89062L83.421875 176.375L88.984375 167.48438L89.796875 168.0L84.25 176.89062Z" fill-rule="nonzero"/><path stroke="#757575" stroke-width="1.0" stroke-linecap="butt" d="M58.75 161.25L414.25 161.25L823.3294 101.161896" fill-rule="nonzero"/><path fill="#9e9e9e" d="M825.3294 101.161896C825.3294 100.05733 824.434 99.161896 823.3294 99.161896C822.22485 99.161896 821.3294 100.05733 821.3294 101.161896C821.3294 102.266464 822.22485 103.161896 823.3294 103.161896C824.434 103.161896 825.3294 102.266464 825.3294 101.161896" fill-rule="nonzero"/><path fill="#1a1a1a" d="M68.8125 196.75L67.3125 196.75L67.3125 191.48438L61.578125 191.48438L61.578125 196.75L60.078125 196.75L60.078125 185.375L61.578125 185.375L61.578125 190.26562L67.3125 190.26562L67.3125 185.375L68.8125 185.375L68.8125 196.75ZM74.359375 196.90625Q72.640625 196.90625 71.5625 195.78125Q70.484375 194.64062 70.484375 192.75L70.484375 192.48438Q70.484375 191.23438 70.953125 190.25Q71.4375 189.25 72.296875 188.70312Q73.171875 188.14062 74.171875 188.14062Q75.828125 188.14062 76.734375 189.23438Q77.65625 190.3125 77.65625 192.32812L77.65625 192.9375L71.921875 192.9375Q71.953125 194.1875 72.65625 194.95312Q73.359375 195.71875 74.4375 195.71875Q75.203125 195.71875 75.734375 195.40625Q76.265625 195.09375 76.65625 194.57812L77.546875 195.26562Q76.484375 196.90625 74.359375 196.90625ZM74.171875 189.32812Q73.296875 189.32812 72.703125 189.96875Q72.109375 190.59375 71.96875 191.75L76.203125 191.75L76.203125 191.64062Q76.140625 190.53125 75.609375 189.9375Q75.078125 189.32812 74.171875 189.32812ZM81.6875 191.375L83.5625 188.29688L85.25 188.29688L82.484375 192.46875L85.328125 196.75L83.65625 196.75L81.703125 193.57812L79.75 196.75L78.078125 196.75L80.921875 192.46875L78.15625 188.29688L79.828125 188.29688L81.6875 191.375ZM92.0625 196.75Q91.9375 196.5 91.859375 195.85938Q90.859375 196.90625 89.453125 196.90625Q88.203125 196.90625 87.40625 196.20312Q86.609375 195.48438 86.609375 194.40625Q86.609375 193.07812 87.609375 192.35938Q88.609375 191.625 90.4375 191.625L91.84375 191.625L91.84375 190.95312Q91.84375 190.20312 91.390625 189.75Q90.9375 189.29688 90.046875 189.29688Q89.28125 189.29688 88.75 189.6875Q88.234375 190.07812 88.234375 190.64062L86.78125 190.64062Q86.78125 190.0 87.21875 189.42188Q87.671875 188.82812 88.4375 188.48438Q89.21875 188.14062 90.140625 188.14062Q91.59375 188.14062 92.421875 188.875Q93.25 189.59375 93.28125 190.875L93.28125 194.76562Q93.28125 195.9375 93.578125 196.625L93.578125 196.75L92.0625 196.75ZM89.671875 195.64062Q90.34375 195.64062 90.953125 195.29688Q91.5625 194.9375 91.84375 194.375L91.84375 192.64062L90.703125 192.64062Q88.046875 192.64062 88.046875 194.20312Q88.046875 194.875 88.5 195.26562Q88.953125 195.64062 89.671875 195.64062ZM104.4375 193.14062Q104.234375 194.9375 103.109375 195.92188Q101.984375 196.90625 100.125 196.90625Q98.109375 196.90625 96.890625 195.46875Q95.6875 194.01562 95.6875 191.59375L95.6875 190.5Q95.6875 188.90625 96.25 187.70312Q96.8125 186.5 97.84375 185.85938Q98.890625 185.21875 100.265625 185.21875Q102.078125 185.21875 103.171875 186.23438Q104.265625 187.23438 104.4375 189.03125L102.9375 189.03125Q102.734375 187.67188 102.078125 187.0625Q101.4375 186.45312 100.265625 186.45312Q98.828125 186.45312 98.0 187.51562Q97.1875 188.57812 97.1875 190.53125L97.1875 191.64062Q97.1875 193.48438 97.953125 194.57812Q98.734375 195.67188 100.125 195.67188Q101.375 195.67188 102.046875 195.10938Q102.71875 194.54688 102.9375 193.14062L104.4375 193.14062ZM105.46875 192.4375Q105.46875 191.20312 105.953125 190.21875Q106.4375 189.21875 107.3125 188.6875Q108.1875 188.14062 109.296875 188.14062Q111.03125 188.14062 112.09375 189.34375Q113.15625 190.53125 113.15625 192.51562L113.15625 192.60938Q113.15625 193.84375 112.6875 194.82812Q112.21875 195.8125 111.328125 196.35938Q110.453125 196.90625 109.3125 196.90625Q107.59375 196.90625 106.53125 195.71875Q105.46875 194.51562 105.46875 192.54688L105.46875 192.4375ZM106.921875 192.60938Q106.921875 194.01562 107.5625 194.875Q108.21875 195.71875 109.3125 195.71875Q110.421875 195.71875 111.0625 194.85938Q111.71875 194.0 111.71875 192.4375Q111.71875 191.04688 111.046875 190.1875Q110.390625 189.32812 109.296875 189.32812Q108.234375 189.32812 107.578125 190.1875Q106.921875 191.03125 106.921875 192.60938ZM118.9375 189.59375Q118.609375 189.53125 118.21875 189.53125Q116.796875 189.53125 116.296875 190.75L116.296875 196.75L114.84375 196.75L114.84375 188.29688L116.25 188.29688L116.28125 189.26562Q116.984375 188.14062 118.296875 188.14062Q118.71875 188.14062 118.9375 188.25L118.9375 189.59375ZM119.5 192.45312Q119.5 190.5 120.421875 189.32812Q121.34375 188.14062 122.828125 188.14062Q124.3125 188.14062 125.1875 189.15625L125.1875 184.75L126.625 184.75L126.625 196.75L125.296875 196.75L125.234375 195.84375Q124.359375 196.90625 122.8125 196.90625Q121.34375 196.90625 120.421875 195.70312Q119.5 194.5 119.5 192.5625L119.5 192.45312ZM120.9375 192.60938Q120.9375 194.04688 121.53125 194.85938Q122.125 195.67188 123.171875 195.67188Q124.546875 195.67188 125.1875 194.4375L125.1875 190.5625Q124.53125 189.35938 123.1875 189.35938Q122.125 189.35938 121.53125 190.1875Q120.9375 191.0 120.9375 192.60938Z" fill-rule="nonzero"/><path fill="#9e9e9e" d="M64.453125 218.75L63.0 218.75L63.0 209.10938L60.078125 210.1875L60.078125 208.875L64.21875 207.3125L64.453125 207.3125L64.453125 218.75ZM68.875 217.98438Q68.875 217.60938 69.09375 217.35938Q69.328125 217.10938 69.765625 217.10938Q70.21875 217.10938 70.4375 217.35938Q70.671875 217.60938 70.671875 217.98438Q70.671875 218.34375 70.4375 218.59375Q70.21875 218.84375 69.765625 218.84375Q69.328125 218.84375 69.09375 218.59375Q68.875 218.34375 68.875 217.98438ZM77.453125 218.75L76.0 218.75L76.0 209.10938L73.078125 210.1875L73.078125 208.875L77.21875 207.3125L77.453125 207.3125L77.453125 218.75ZM81.578125 209.5625Q81.578125 208.53125 82.21875 207.875Q82.875 207.20312 83.90625 207.20312Q84.9375 207.20312 85.578125 207.875Q86.234375 208.54688 86.234375 209.60938L86.234375 210.15625Q86.234375 211.1875 85.578125 211.84375Q84.921875 212.5 83.921875 212.5Q82.90625 212.5 82.234375 211.84375Q81.578125 211.1875 81.578125 210.10938L81.578125 209.5625ZM82.65625 210.15625Q82.65625 210.76562 83.0 211.17188Q83.34375 211.5625 83.921875 211.5625Q84.46875 211.5625 84.8125 211.1875Q85.15625 210.79688 85.15625 210.125L85.15625 209.5625Q85.15625 208.95312 84.8125 208.5625Q84.484375 208.15625 83.90625 208.15625Q83.328125 208.15625 82.984375 208.5625Q82.65625 208.95312 82.65625 209.59375L82.65625 210.15625ZM87.109375 215.95312Q87.109375 214.9375 87.765625 214.28125Q88.421875 213.60938 89.4375 213.60938Q90.46875 213.60938 91.125 214.26562Q91.78125 214.92188 91.78125 216.01562L91.78125 216.5625Q91.78125 217.59375 91.125 218.26562Q90.46875 218.92188 89.453125 218.92188Q88.4375 218.92188 87.765625 218.26562Q87.109375 217.60938 87.109375 216.51562L87.109375 215.95312ZM88.1875 216.5625Q88.1875 217.1875 88.53125 217.57812Q88.875 217.96875 89.453125 217.96875Q90.015625 217.96875 90.34375 217.59375Q90.6875 217.20312 90.6875 216.53125L90.6875 215.95312Q90.6875 215.34375 90.34375 214.95312Q90.015625 214.5625 89.4375 214.5625Q88.890625 214.5625 88.53125 214.95312Q88.1875 215.32812 88.1875 215.98438L88.1875 216.5625ZM84.25 217.89062L83.421875 217.375L88.984375 208.48438L89.796875 209.0L84.25 217.89062Z" fill-rule="nonzero"/><path stroke="#757575" stroke-width="1.0" stroke-linecap="butt" d="M58.75 202.25L414.25 202.25L791.11755 110.64469" fill-rule="nonzero"/><path fill="#9e9e9e" d="M793.11755 110.64469C793.11755 109.54012 792.2221 108.64469 791.11755 108.64469C790.013 108.64469 789.11755 109.54012 789.11755 110.64469C789.11755 111.74926 790.013 112.64469 791.11755 112.64469C792.2221 112.64469 793.11755 111.74926 793.11755 110.64469" fill-rule="nonzero"/><path fill="#1a1a1a" d="M67.9375 227.60938L64.28125 227.60938L64.28125 237.75L62.78125 237.75L62.78125 227.60938L59.140625 227.60938L59.140625 226.375L67.9375 226.375L67.9375 227.60938ZM75.0625 236.90625Q74.21875 237.90625 72.59375 237.90625Q71.234375 237.90625 70.53125 237.125Q69.828125 236.32812 69.8125 234.79688L69.8125 229.29688L71.265625 229.29688L71.265625 234.75Q71.265625 236.67188 72.828125 236.67188Q74.484375 236.67188 75.03125 235.4375L75.03125 229.29688L76.46875 229.29688L76.46875 237.75L75.09375 237.75L75.0625 236.90625ZM80.421875 237.75L78.96875 237.75L78.96875 229.29688L80.421875 229.29688L80.421875 237.75ZM78.859375 227.04688Q78.859375 226.70312 79.0625 226.46875Q79.28125 226.21875 79.703125 226.21875Q80.125 226.21875 80.34375 226.46875Q80.5625 226.70312 80.5625 227.0625Q80.5625 227.40625 80.34375 227.64062Q80.125 227.875 79.703125 227.875Q79.28125 227.875 79.0625 227.64062Q78.859375 227.40625 78.859375 227.04688ZM84.21875 229.29688L84.265625 230.35938Q85.234375 229.14062 86.796875 229.14062Q89.46875 229.14062 89.5 232.15625L89.5 237.75L88.046875 237.75L88.046875 232.15625Q88.046875 231.23438 87.625 230.79688Q87.21875 230.35938 86.359375 230.35938Q85.65625 230.35938 85.125 230.73438Q84.59375 231.10938 84.296875 231.71875L84.296875 237.75L82.84375 237.75L82.84375 229.29688L84.21875 229.29688ZM93.421875 237.75L91.96875 237.75L91.96875 229.29688L93.421875 229.29688L93.421875 237.75ZM91.859375 227.04688Q91.859375 226.70312 92.0625 226.46875Q92.28125 226.21875 92.703125 226.21875Q93.125 226.21875 93.34375 226.46875Q93.5625 226.70312 93.5625 227.0625Q93.5625 227.40625 93.34375 227.64062Q93.125 227.875 92.703125 227.875Q92.28125 227.875 92.0625 227.64062Q91.859375 227.40625 91.859375 227.04688ZM97.8125 227.25L97.8125 229.29688L99.390625 229.29688L99.390625 230.40625L97.8125 230.40625L97.8125 235.65625Q97.8125 236.15625 98.015625 236.42188Q98.234375 236.67188 98.734375 236.67188Q98.984375 236.67188 99.421875 236.57812L99.421875 237.75Q98.859375 237.90625 98.3125 237.90625Q97.34375 237.90625 96.84375 237.32812Q96.359375 236.73438 96.359375 235.65625L96.359375 230.40625L94.828125 230.40625L94.828125 229.29688L96.359375 229.29688L96.359375 227.25L97.8125 227.25ZM103.609375 235.625L105.578125 229.29688L107.125 229.29688L103.734375 239.0625Q102.9375 241.17188 101.21875 241.17188L100.953125 241.14062L100.40625 241.04688L100.40625 239.875L100.796875 239.90625Q101.53125 239.90625 101.9375 239.60938Q102.359375 239.3125 102.625 238.51562L102.9375 237.65625L99.921875 229.29688L101.5 229.29688L103.609375 235.625Z" fill-rule="nonzero"/><path fill="#9e9e9e" d="M64.453125 259.75L63.0 259.75L63.0 250.10938L60.078125 251.1875L60.078125 249.875L64.21875 248.3125L64.453125 248.3125L64.453125 259.75ZM68.875 258.98438Q68.875 258.60938 69.09375 258.35938Q69.328125 258.10938 69.765625 258.10938Q70.21875 258.10938 70.4375 258.35938Q70.671875 258.60938 70.671875 258.98438Q70.671875 259.34375 70.4375 259.59375Q70.21875 259.84375 69.765625 259.84375Q69.328125 259.84375 69.09375 259.59375Q68.875 259.34375 68.875 258.98438ZM74.796875 253.35938L75.890625 253.35938Q76.90625 253.34375 77.484375 252.82812Q78.078125 252.29688 78.078125 251.40625Q78.078125 249.40625 76.09375 249.40625Q75.15625 249.40625 74.59375 249.9375Q74.03125 250.46875 74.03125 251.35938L72.59375 251.35938Q72.59375 250.0 73.578125 249.10938Q74.5625 248.21875 76.09375 248.21875Q77.703125 248.21875 78.609375 249.07812Q79.53125 249.92188 79.53125 251.4375Q79.53125 252.17188 79.046875 252.875Q78.5625 253.5625 77.734375 253.90625Q78.671875 254.20312 79.1875 254.89062Q79.703125 255.57812 79.703125 256.57812Q79.703125 258.10938 78.703125 259.01562Q77.703125 259.90625 76.09375 259.90625Q74.5 259.90625 73.484375 259.04688Q72.484375 258.17188 72.484375 256.75L73.9375 256.75Q73.9375 257.64062 74.515625 258.1875Q75.109375 258.71875 76.09375 258.71875Q77.140625 258.71875 77.6875 258.17188Q78.25 257.625 78.25 256.60938Q78.25 255.60938 77.640625 255.07812Q77.03125 254.54688 75.890625 254.53125L74.796875 254.53125L74.796875 253.35938ZM81.578125 250.5625Q81.578125 249.53125 82.21875 248.875Q82.875 248.20312 83.90625 248.20312Q84.9375 248.20312 85.578125 248.875Q86.234375 249.54688 86.234375 250.60938L86.234375 251.15625Q86.234375 252.1875 85.578125 252.84375Q84.921875 253.5 83.921875 253.5Q82.90625 253.5 82.234375 252.84375Q81.578125 252.1875 81.578125 251.10938L81.578125 250.5625ZM82.65625 251.15625Q82.65625 251.76562 83.0 252.17188Q83.34375 252.5625 83.921875 252.5625Q84.46875 252.5625 84.8125 252.1875Q85.15625 251.79688 85.15625 251.125L85.15625 250.5625Q85.15625 249.95312 84.8125 249.5625Q84.484375 249.15625 83.90625 249.15625Q83.328125 249.15625 82.984375 249.5625Q82.65625 249.95312 82.65625 250.59375L82.65625 251.15625ZM87.109375 256.95312Q87.109375 255.9375 87.765625 255.28125Q88.421875 254.60938 89.4375 254.60938Q90.46875 254.60938 91.125 255.26562Q91.78125 255.92188 91.78125 257.01562L91.78125 257.5625Q91.78125 258.59375 91.125 259.26562Q90.46875 259.92188 89.453125 259.92188Q88.4375 259.92188 87.765625 259.26562Q87.109375 258.60938 87.109375 257.51562L87.109375 256.95312ZM88.1875 257.5625Q88.1875 258.1875 88.53125 258.57812Q88.875 258.96875 89.453125 258.96875Q90.015625 258.96875 90.34375 258.59375Q90.6875 258.20312 90.6875 257.53125L90.6875 256.95312Q90.6875 256.34375 90.34375 255.95312Q90.015625 255.5625 89.4375 255.5625Q88.890625 255.5625 88.53125 255.95312Q88.1875 256.32812 88.1875 256.98438L88.1875 257.5625ZM84.25 258.89062L83.421875 258.375L88.984375 249.48438L89.796875 250.0L84.25 258.89062Z" fill-rule="nonzero"/><path stroke="#757575" stroke-width="1.0" stroke-linecap="butt" d="M58.75 243.25L414.25 243.25L756.0277 123.733315" fill-rule="nonzero"/><path fill="#9e9e9e" d="M758.0277 123.733315C758.0277 122.628746 757.13226 121.733315 756.0277 121.733315C754.92316 121.733315 754.0277 122.628746 754.0277 123.733315C754.0277 124.83788 754.92316 125.733315 756.0277 125.733315C757.13226 125.733315 758.0277 124.83788 758.0277 123.733315" fill-rule="nonzero"/><path fill="#1a1a1a" d="M66.359375 275.78125L61.59375 275.78125L60.515625 278.75L58.96875 278.75L63.3125 267.375L64.625 267.375L68.984375 278.75L67.4375 278.75L66.359375 275.78125ZM62.046875 274.54688L65.90625 274.54688L63.96875 269.21875L62.046875 274.54688ZM71.421875 278.75L69.96875 278.75L69.96875 270.29688L71.421875 270.29688L71.421875 278.75ZM69.859375 268.04688Q69.859375 267.70312 70.0625 267.46875Q70.28125 267.21875 70.703125 267.21875Q71.125 267.21875 71.34375 267.46875Q71.5625 267.70312 71.5625 268.0625Q71.5625 268.40625 71.34375 268.64062Q71.125 268.875 70.703125 268.875Q70.28125 268.875 70.0625 268.64062Q69.859375 268.40625 69.859375 268.04688ZM77.9375 271.59375Q77.609375 271.53125 77.21875 271.53125Q75.796875 271.53125 75.296875 272.75L75.296875 278.75L73.84375 278.75L73.84375 270.29688L75.25 270.29688L75.28125 271.26562Q75.984375 270.14062 77.296875 270.14062Q77.71875 270.14062 77.9375 270.25L77.9375 271.59375ZM85.984375 274.60938Q85.984375 276.54688 85.09375 277.73438Q84.21875 278.90625 82.71875 278.90625Q81.171875 278.90625 80.296875 277.92188L80.296875 282.0L78.84375 282.0L78.84375 270.29688L80.171875 270.29688L80.234375 271.23438Q81.125 270.14062 82.6875 270.14062Q84.21875 270.14062 85.09375 271.29688Q85.984375 272.4375 85.984375 274.48438L85.984375 274.60938ZM84.546875 274.45312Q84.546875 273.01562 83.9375 272.1875Q83.328125 271.35938 82.265625 271.35938Q80.953125 271.35938 80.296875 272.53125L80.296875 276.5625Q80.9375 277.71875 82.28125 277.71875Q83.3125 277.71875 83.921875 276.90625Q84.546875 276.07812 84.546875 274.45312ZM89.421875 278.75L87.96875 278.75L87.96875 266.75L89.421875 266.75L89.421875 278.75ZM97.0625 278.75Q96.9375 278.5 96.859375 277.85938Q95.859375 278.90625 94.453125 278.90625Q93.203125 278.90625 92.40625 278.20312Q91.609375 277.48438 91.609375 276.40625Q91.609375 275.07812 92.609375 274.35938Q93.609375 273.625 95.4375 273.625L96.84375 273.625L96.84375 272.95312Q96.84375 272.20312 96.390625 271.75Q95.9375 271.29688 95.046875 271.29688Q94.28125 271.29688 93.75 271.6875Q93.234375 272.07812 93.234375 272.64062L91.78125 272.64062Q91.78125 272.0 92.21875 271.42188Q92.671875 270.82812 93.4375 270.48438Q94.21875 270.14062 95.140625 270.14062Q96.59375 270.14062 97.421875 270.875Q98.25 271.59375 98.28125 272.875L98.28125 276.76562Q98.28125 277.9375 98.578125 278.625L98.578125 278.75L97.0625 278.75ZM94.671875 277.64062Q95.34375 277.64062 95.953125 277.29688Q96.5625 276.9375 96.84375 276.375L96.84375 274.64062L95.703125 274.64062Q93.046875 274.64062 93.046875 276.20312Q93.046875 276.875 93.5 277.26562Q93.953125 277.64062 94.671875 277.64062ZM102.21875 270.29688L102.265625 271.35938Q103.234375 270.14062 104.796875 270.14062Q107.46875 270.14062 107.5 273.15625L107.5 278.75L106.046875 278.75L106.046875 273.15625Q106.046875 272.23438 105.625 271.79688Q105.21875 271.35938 104.359375 271.35938Q103.65625 271.35938 103.125 271.73438Q102.59375 272.10938 102.296875 272.71875L102.296875 278.75L100.84375 278.75L100.84375 270.29688L102.21875 270.29688ZM113.359375 278.90625Q111.640625 278.90625 110.5625 277.78125Q109.484375 276.64062 109.484375 274.75L109.484375 274.48438Q109.484375 273.23438 109.953125 272.25Q110.4375 271.25 111.296875 270.70312Q112.171875 270.14062 113.171875 270.14062Q114.828125 270.14062 115.734375 271.23438Q116.65625 272.3125 116.65625 274.32812L116.65625 274.9375L110.921875 274.9375Q110.953125 276.1875 111.65625 276.95312Q112.359375 277.71875 113.4375 277.71875Q114.203125 277.71875 114.734375 277.40625Q115.265625 277.09375 115.65625 276.57812L116.546875 277.26562Q115.484375 278.90625 113.359375 278.90625ZM113.171875 271.32812Q112.296875 271.32812 111.703125 271.96875Q111.109375 272.59375 110.96875 273.75L115.203125 273.75L115.203125 273.64062Q115.140625 272.53125 114.609375 271.9375Q114.078125 271.32812 113.171875 271.32812Z" fill-rule="nonzero"/><path fill="#9e9e9e" d="M67.15625 300.75L59.703125 300.75L59.703125 299.70312L63.640625 295.32812Q64.515625 294.34375 64.84375 293.71875Q65.171875 293.09375 65.171875 292.4375Q65.171875 291.54688 64.625 290.98438Q64.09375 290.40625 63.203125 290.40625Q62.125 290.40625 61.515625 291.01562Q60.921875 291.625 60.921875 292.71875L59.484375 292.71875Q59.484375 291.15625 60.484375 290.1875Q61.5 289.21875 63.203125 289.21875Q64.78125 289.21875 65.703125 290.04688Q66.625 290.875 66.625 292.26562Q66.625 293.9375 64.484375 296.26562L61.4375 299.5625L67.15625 299.5625L67.15625 300.75ZM68.875 299.98438Q68.875 299.60938 69.09375 299.35938Q69.328125 299.10938 69.765625 299.10938Q70.21875 299.10938 70.4375 299.35938Q70.671875 299.60938 70.671875 299.98438Q70.671875 300.34375 70.4375 300.59375Q70.21875 300.84375 69.765625 300.84375Q69.328125 300.84375 69.09375 300.59375Q68.875 300.34375 68.875 299.98438ZM79.59375 292.34375Q79.59375 293.1875 79.140625 293.85938Q78.703125 294.51562 77.9375 294.89062Q78.828125 295.28125 79.34375 296.01562Q79.859375 296.75 79.859375 297.67188Q79.859375 299.15625 78.859375 300.03125Q77.875 300.90625 76.25 300.90625Q74.609375 300.90625 73.609375 300.03125Q72.625 299.14062 72.625 297.67188Q72.625 296.75 73.125 296.01562Q73.640625 295.26562 74.53125 294.89062Q73.765625 294.51562 73.328125 293.85938Q72.890625 293.1875 72.890625 292.34375Q72.890625 290.90625 73.8125 290.0625Q74.734375 289.21875 76.25 289.21875Q77.75 289.21875 78.671875 290.0625Q79.59375 290.90625 79.59375 292.34375ZM78.421875 297.64062Q78.421875 296.6875 77.8125 296.09375Q77.203125 295.48438 76.21875 295.48438Q75.25 295.48438 74.65625 296.07812Q74.078125 296.67188 74.078125 297.64062Q74.078125 298.60938 74.640625 299.17188Q75.21875 299.71875 76.25 299.71875Q77.265625 299.71875 77.84375 299.17188Q78.421875 298.60938 78.421875 297.64062ZM76.25 290.40625Q75.390625 290.40625 74.859375 290.9375Q74.34375 291.45312 74.34375 292.35938Q74.34375 293.23438 74.859375 293.76562Q75.375 294.29688 76.234375 294.29688Q77.109375 294.29688 77.625 293.76562Q78.15625 293.23438 78.15625 292.375Q78.15625 291.5 77.609375 290.95312Q77.078125 290.40625 76.25 290.40625ZM81.578125 291.5625Q81.578125 290.53125 82.21875 289.875Q82.875 289.20312 83.90625 289.20312Q84.9375 289.20312 85.578125 289.875Q86.234375 290.54688 86.234375 291.60938L86.234375 292.15625Q86.234375 293.1875 85.578125 293.84375Q84.921875 294.5 83.921875 294.5Q82.90625 294.5 82.234375 293.84375Q81.578125 293.1875 81.578125 292.10938L81.578125 291.5625ZM82.65625 292.15625Q82.65625 292.76562 83.0 293.17188Q83.34375 293.5625 83.921875 293.5625Q84.46875 293.5625 84.8125 293.1875Q85.15625 292.79688 85.15625 292.125L85.15625 291.5625Q85.15625 290.95312 84.8125 290.5625Q84.484375 290.15625 83.90625 290.15625Q83.328125 290.15625 82.984375 290.5625Q82.65625 290.95312 82.65625 291.59375L82.65625 292.15625ZM87.109375 297.95312Q87.109375 296.9375 87.765625 296.28125Q88.421875 295.60938 89.4375 295.60938Q90.46875 295.60938 91.125 296.26562Q91.78125 296.92188 91.78125 298.01562L91.78125 298.5625Q91.78125 299.59375 91.125 300.26562Q90.46875 300.92188 89.453125 300.92188Q88.4375 300.92188 87.765625 300.26562Q87.109375 299.60938 87.109375 298.51562L87.109375 297.95312ZM88.1875 298.5625Q88.1875 299.1875 88.53125 299.57812Q88.875 299.96875 89.453125 299.96875Q90.015625 299.96875 90.34375 299.59375Q90.6875 299.20312 90.6875 298.53125L90.6875 297.95312Q90.6875 297.34375 90.34375 296.95312Q90.015625 296.5625 89.4375 296.5625Q88.890625 296.5625 88.53125 296.95312Q88.1875 297.32812 88.1875 297.98438L88.1875 298.5625ZM84.25 299.89062L83.421875 299.375L88.984375 290.48438L89.796875 291.0L84.25 299.89062Z" fill-rule="nonzero"/><path stroke="#757575" stroke-width="1.0" stroke-linecap="butt" d="M58.75 284.25L414.25 284.25L698.5277 152.09045" fill-rule="nonzero"/><path fill="#9e9e9e" d="M700.5277 152.09045C700.5277 150.98589 699.63226 150.09045 698.5277 150.09045C697.4231 150.09045 696.5277 150.98589 696.5277 152.09045C696.5277 153.19502 697.4231 154.09045 698.5277 154.09045C699.63226 154.09045 700.5277 153.19502 700.5277 152.09045" fill-rule="nonzero"/><path fill="#1a1a1a" d="M61.578125 318.51562L66.96875 318.51562L66.96875 319.75L60.078125 319.75L60.078125 308.375L61.578125 308.375L61.578125 318.51562ZM68.46875 315.4375Q68.46875 314.20312 68.953125 313.21875Q69.4375 312.21875 70.3125 311.6875Q71.1875 311.14062 72.296875 311.14062Q74.03125 311.14062 75.09375 312.34375Q76.15625 313.53125 76.15625 315.51562L76.15625 315.60938Q76.15625 316.84375 75.6875 317.82812Q75.21875 318.8125 74.328125 319.35938Q73.453125 319.90625 72.3125 319.90625Q70.59375 319.90625 69.53125 318.71875Q68.46875 317.51562 68.46875 315.54688L68.46875 315.4375ZM69.921875 315.60938Q69.921875 317.01562 70.5625 317.875Q71.21875 318.71875 72.3125 318.71875Q73.421875 318.71875 74.0625 317.85938Q74.71875 317.0 74.71875 315.4375Q74.71875 314.04688 74.046875 313.1875Q73.390625 312.32812 72.296875 312.32812Q71.234375 312.32812 70.578125 313.1875Q69.921875 314.03125 69.921875 315.60938ZM79.421875 319.75L77.96875 319.75L77.96875 307.75L79.421875 307.75L79.421875 319.75ZM83.421875 319.75L81.96875 319.75L81.96875 311.29688L83.421875 311.29688L83.421875 319.75ZM81.859375 309.04688Q81.859375 308.70312 82.0625 308.46875Q82.28125 308.21875 82.703125 308.21875Q83.125 308.21875 83.34375 308.46875Q83.5625 308.70312 83.5625 309.0625Q83.5625 309.40625 83.34375 309.64062Q83.125 309.875 82.703125 309.875Q82.28125 309.875 82.0625 309.64062Q81.859375 309.40625 81.859375 309.04688ZM89.421875 314.67188Q87.5 314.125 86.609375 313.3125Q85.734375 312.5 85.734375 311.3125Q85.734375 309.96875 86.8125 309.09375Q87.890625 308.21875 89.609375 308.21875Q90.78125 308.21875 91.6875 308.67188Q92.609375 309.125 93.109375 309.92188Q93.625 310.71875 93.625 311.65625L92.109375 311.65625Q92.109375 310.625 91.453125 310.04688Q90.796875 309.45312 89.609375 309.45312Q88.5 309.45312 87.875 309.9375Q87.25 310.42188 87.25 311.29688Q87.25 311.98438 87.84375 312.46875Q88.4375 312.95312 89.84375 313.35938Q91.265625 313.75 92.0625 314.23438Q92.875 314.70312 93.25 315.34375Q93.640625 315.98438 93.640625 316.85938Q93.640625 318.23438 92.5625 319.07812Q91.484375 319.90625 89.6875 319.90625Q88.515625 319.90625 87.5 319.45312Q86.484375 319.0 85.921875 318.21875Q85.375 317.4375 85.375 316.45312L86.890625 316.45312Q86.890625 317.48438 87.640625 318.07812Q88.40625 318.67188 89.6875 318.67188Q90.875 318.67188 91.5 318.1875Q92.140625 317.70312 92.140625 316.875Q92.140625 316.03125 91.546875 315.57812Q90.96875 315.125 89.421875 314.67188ZM99.359375 319.90625Q97.640625 319.90625 96.5625 318.78125Q95.484375 317.64062 95.484375 315.75L95.484375 315.48438Q95.484375 314.23438 95.953125 313.25Q96.4375 312.25 97.296875 311.70312Q98.171875 311.14062 99.171875 311.14062Q100.828125 311.14062 101.734375 312.23438Q102.65625 313.3125 102.65625 315.32812L102.65625 315.9375L96.921875 315.9375Q96.953125 317.1875 97.65625 317.95312Q98.359375 318.71875 99.4375 318.71875Q100.203125 318.71875 100.734375 318.40625Q101.265625 318.09375 101.65625 317.57812L102.546875 318.26562Q101.484375 319.90625 99.359375 319.90625ZM99.171875 312.32812Q98.296875 312.32812 97.703125 312.96875Q97.109375 313.59375 96.96875 314.75L101.203125 314.75L101.203125 314.64062Q101.140625 313.53125 100.609375 312.9375Q100.078125 312.32812 99.171875 312.32812ZM107.9375 312.59375Q107.609375 312.53125 107.21875 312.53125Q105.796875 312.53125 105.296875 313.75L105.296875 319.75L103.84375 319.75L103.84375 311.29688L105.25 311.29688L105.28125 312.26562Q105.984375 311.14062 107.296875 311.14062Q107.71875 311.14062 107.9375 311.25L107.9375 312.59375ZM111.640625 317.78125L113.734375 311.29688L115.203125 311.29688L112.171875 319.75L111.078125 319.75L108.015625 311.29688L109.484375 311.29688L111.640625 317.78125ZM120.359375 319.90625Q118.640625 319.90625 117.5625 318.78125Q116.484375 317.64062 116.484375 315.75L116.484375 315.48438Q116.484375 314.23438 116.953125 313.25Q117.4375 312.25 118.296875 311.70312Q119.171875 311.14062 120.171875 311.14062Q121.828125 311.14062 122.734375 312.23438Q123.65625 313.3125 123.65625 315.32812L123.65625 315.9375L117.921875 315.9375Q117.953125 317.1875 118.65625 317.95312Q119.359375 318.71875 120.4375 318.71875Q121.203125 318.71875 121.734375 318.40625Q122.265625 318.09375 122.65625 317.57812L123.546875 318.26562Q122.484375 319.90625 120.359375 319.90625ZM120.171875 312.32812Q119.296875 312.32812 118.703125 312.96875Q118.109375 313.59375 117.96875 314.75L122.203125 314.75L122.203125 314.64062Q122.140625 313.53125 121.609375 312.9375Q121.078125 312.32812 120.171875 312.32812ZM128.9375 312.59375Q128.60938 312.53125 128.21875 312.53125Q126.796875 312.53125 126.296875 313.75L126.296875 319.75L124.84375 319.75L124.84375 311.29688L126.25 311.29688L126.28125 312.26562Q126.984375 311.14062 128.29688 311.14062Q128.71875 311.14062 128.9375 311.25L128.9375 312.59375Z" fill-rule="nonzero"/><path fill="#9e9e9e" d="M61.796875 335.35938L62.890625 335.35938Q63.90625 335.34375 64.484375 334.82812Q65.078125 334.29688 65.078125 333.40625Q65.078125 331.40625 63.09375 331.40625Q62.15625 331.40625 61.59375 331.9375Q61.03125 332.46875 61.03125 333.35938L59.59375 333.35938Q59.59375 332.0 60.578125 331.10938Q61.5625 330.21875 63.09375 330.21875Q64.703125 330.21875 65.609375 331.07812Q66.53125 331.92188 66.53125 333.4375Q66.53125 334.17188 66.046875 334.875Q65.5625 335.5625 64.734375 335.90625Q65.671875 336.20312 66.1875 336.89062Q66.703125 337.57812 66.703125 338.57812Q66.703125 340.10938 65.703125 341.01562Q64.703125 341.90625 63.09375 341.90625Q61.5 341.90625 60.484375 341.04688Q59.484375 340.17188 59.484375 338.75L60.9375 338.75Q60.9375 339.64062 61.515625 340.1875Q62.109375 340.71875 63.09375 340.71875Q64.140625 340.71875 64.6875 340.17188Q65.25 339.625 65.25 338.60938Q65.25 337.60938 64.640625 337.07812Q64.03125 336.54688 62.890625 336.53125L61.796875 336.53125L61.796875 335.35938ZM68.875 340.98438Q68.875 340.60938 69.09375 340.35938Q69.328125 340.10938 69.765625 340.10938Q70.21875 340.10938 70.4375 340.35938Q70.671875 340.60938 70.671875 340.98438Q70.671875 341.34375 70.4375 341.59375Q70.21875 341.84375 69.765625 341.84375Q69.328125 341.84375 69.09375 341.59375Q68.875 341.34375 68.875 340.98438ZM78.796875 337.92188L80.375 337.92188L80.375 339.10938L78.796875 339.10938L78.796875 341.75L77.34375 341.75L77.34375 339.10938L72.171875 339.10938L72.171875 338.25L77.265625 330.375L78.796875 330.375L78.796875 337.92188ZM73.8125 337.92188L77.34375 337.92188L77.34375 332.34375L77.171875 332.65625L73.8125 337.92188ZM81.578125 332.5625Q81.578125 331.53125 82.21875 330.875Q82.875 330.20312 83.90625 330.20312Q84.9375 330.20312 85.578125 330.875Q86.234375 331.54688 86.234375 332.60938L86.234375 333.15625Q86.234375 334.1875 85.578125 334.84375Q84.921875 335.5 83.921875 335.5Q82.90625 335.5 82.234375 334.84375Q81.578125 334.1875 81.578125 333.10938L81.578125 332.5625ZM82.65625 333.15625Q82.65625 333.76562 83.0 334.17188Q83.34375 334.5625 83.921875 334.5625Q84.46875 334.5625 84.8125 334.1875Q85.15625 333.79688 85.15625 333.125L85.15625 332.5625Q85.15625 331.95312 84.8125 331.5625Q84.484375 331.15625 83.90625 331.15625Q83.328125 331.15625 82.984375 331.5625Q82.65625 331.95312 82.65625 332.59375L82.65625 333.15625ZM87.109375 338.95312Q87.109375 337.9375 87.765625 337.28125Q88.421875 336.60938 89.4375 336.60938Q90.46875 336.60938 91.125 337.26562Q91.78125 337.92188 91.78125 339.01562L91.78125 339.5625Q91.78125 340.59375 91.125 341.26562Q90.46875 341.92188 89.453125 341.92188Q88.4375 341.92188 87.765625 341.26562Q87.109375 340.60938 87.109375 339.51562L87.109375 338.95312ZM88.1875 339.5625Q88.1875 340.1875 88.53125 340.57812Q88.875 340.96875 89.453125 340.96875Q90.015625 340.96875 90.34375 340.59375Q90.6875 340.20312 90.6875 339.53125L90.6875 338.95312Q90.6875 338.34375 90.34375 337.95312Q90.015625 337.5625 89.4375 337.5625Q88.890625 337.5625 88.53125 337.95312Q88.1875 338.32812 88.1875 338.98438L88.1875 339.5625ZM84.25 340.89062L83.421875 340.375L88.984375 331.48438L89.796875 332.0L84.25 340.89062Z" fill-rule="nonzero"/><path stroke="#757575" stroke-width="1.0" stroke-linecap="butt" d="M58.75 325.25L414.25 325.25L619.39014 208.45488" fill-rule="nonzero"/><path fill="#9e9e9e" d="M621.39014 208.45488C621.39014 207.35031 620.49475 206.45488 619.39014 206.45488C618.2856 206.45488 617.39014 207.35031 617.39014 208.45488C617.39014 209.55945 618.2856 210.45488 619.39014 210.45488C620.49475 210.45488 621.39014 209.55945 621.39014 208.45488" fill-rule="nonzero"/><path fill="#1a1a1a" d="M61.578125 356.29688L61.578125 360.75L60.078125 360.75L60.078125 349.375L64.265625 349.375Q66.140625 349.375 67.1875 350.32812Q68.25 351.28125 68.25 352.84375Q68.25 354.5 67.21875 355.40625Q66.1875 356.29688 64.25 356.29688L61.578125 356.29688ZM61.578125 355.0625L64.265625 355.0625Q65.46875 355.0625 66.109375 354.5Q66.75 353.9375 66.75 352.85938Q66.75 351.84375 66.109375 351.23438Q65.46875 350.625 64.359375 350.60938L61.578125 350.60938L61.578125 355.0625ZM75.0625 359.90625Q74.21875 360.90625 72.59375 360.90625Q71.234375 360.90625 70.53125 360.125Q69.828125 359.32812 69.8125 357.79688L69.8125 352.29688L71.265625 352.29688L71.265625 357.75Q71.265625 359.67188 72.828125 359.67188Q74.484375 359.67188 75.03125 358.4375L75.03125 352.29688L76.46875 352.29688L76.46875 360.75L75.09375 360.75L75.0625 359.90625ZM79.5625 360.75L79.5625 353.40625L78.21875 353.40625L78.21875 352.29688L79.5625 352.29688L79.5625 351.42188Q79.5625 350.0625 80.28125 349.32812Q81.015625 348.57812 82.34375 348.57812Q82.84375 348.57812 83.328125 348.71875L83.25 349.89062Q82.890625 349.8125 82.46875 349.8125Q81.765625 349.8125 81.375 350.23438Q81.0 350.64062 81.0 351.40625L81.0 352.29688L82.8125 352.29688L82.8125 353.40625L81.0 353.40625L81.0 360.75L79.5625 360.75ZM85.5625 360.75L85.5625 353.40625L84.21875 353.40625L84.21875 352.29688L85.5625 352.29688L85.5625 351.42188Q85.5625 350.0625 86.28125 349.32812Q87.015625 348.57812 88.34375 348.57812Q88.84375 348.57812 89.328125 348.71875L89.25 349.89062Q88.890625 349.8125 88.46875 349.8125Q87.765625 349.8125 87.375 350.23438Q87.0 350.64062 87.0 351.40625L87.0 352.29688L88.8125 352.29688L88.8125 353.40625L87.0 353.40625L87.0 360.75L85.5625 360.75ZM94.359375 360.90625Q92.640625 360.90625 91.5625 359.78125Q90.484375 358.64062 90.484375 356.75L90.484375 356.48438Q90.484375 355.23438 90.953125 354.25Q91.4375 353.25 92.296875 352.70312Q93.171875 352.14062 94.171875 352.14062Q95.828125 352.14062 96.734375 353.23438Q97.65625 354.3125 97.65625 356.32812L97.65625 356.9375L91.921875 356.9375Q91.953125 358.1875 92.65625 358.95312Q93.359375 359.71875 94.4375 359.71875Q95.203125 359.71875 95.734375 359.40625Q96.265625 359.09375 96.65625 358.57812L97.546875 359.26562Q96.484375 360.90625 94.359375 360.90625ZM94.171875 353.32812Q93.296875 353.32812 92.703125 353.96875Q92.109375 354.59375 91.96875 355.75L96.203125 355.75L96.203125 355.64062Q96.140625 354.53125 95.609375 353.9375Q95.078125 353.32812 94.171875 353.32812ZM102.9375 353.59375Q102.609375 353.53125 102.21875 353.53125Q100.796875 353.53125 100.296875 354.75L100.296875 360.75L98.84375 360.75L98.84375 352.29688L100.25 352.29688L100.28125 353.26562Q100.984375 352.14062 102.296875 352.14062Q102.71875 352.14062 102.9375 352.25L102.9375 353.59375ZM104.5625 360.75L104.5625 353.40625L103.21875 353.40625L103.21875 352.29688L104.5625 352.29688L104.5625 351.42188Q104.5625 350.0625 105.28125 349.32812Q106.015625 348.57812 107.34375 348.57812Q107.84375 348.57812 108.328125 348.71875L108.25 349.89062Q107.890625 349.8125 107.46875 349.8125Q106.765625 349.8125 106.375 350.23438Q106.0 350.64062 106.0 351.40625L106.0 352.29688L107.8125 352.29688L107.8125 353.40625L106.0 353.40625L106.0 360.75L104.5625 360.75ZM111.421875 360.75L109.96875 360.75L109.96875 352.29688L111.421875 352.29688L111.421875 360.75ZM109.859375 350.04688Q109.859375 349.70312 110.0625 349.46875Q110.28125 349.21875 110.703125 349.21875Q111.125 349.21875 111.34375 349.46875Q111.5625 349.70312 111.5625 350.0625Q111.5625 350.40625 111.34375 350.64062Q111.125 350.875 110.703125 350.875Q110.28125 350.875 110.0625 350.64062Q109.859375 350.40625 109.859375 350.04688ZM118.765625 358.5Q118.765625 357.92188 118.328125 357.59375Q117.890625 357.26562 116.78125 357.03125Q115.6875 356.79688 115.046875 356.46875Q114.40625 356.14062 114.09375 355.6875Q113.78125 355.23438 113.78125 354.60938Q113.78125 353.57812 114.65625 352.85938Q115.546875 352.14062 116.90625 352.14062Q118.34375 352.14062 119.234375 352.89062Q120.140625 353.625 120.140625 354.78125L118.6875 354.78125Q118.6875 354.1875 118.171875 353.76562Q117.671875 353.32812 116.90625 353.32812Q116.125 353.32812 115.671875 353.67188Q115.234375 354.01562 115.234375 354.5625Q115.234375 355.09375 115.640625 355.35938Q116.0625 355.625 117.140625 355.875Q118.21875 356.10938 118.890625 356.45312Q119.5625 356.78125 119.890625 357.25Q120.21875 357.71875 120.21875 358.40625Q120.21875 359.53125 119.3125 360.21875Q118.40625 360.90625 116.953125 360.90625Q115.9375 360.90625 115.15625 360.54688Q114.375 360.1875 113.9375 359.54688Q113.5 358.89062 113.5 358.14062L114.9375 358.14062Q114.984375 358.875 115.515625 359.29688Q116.0625 359.71875 116.953125 359.71875Q117.78125 359.71875 118.265625 359.39062Q118.765625 359.0625 118.765625 358.5ZM123.296875 353.3125Q124.25 352.14062 125.796875 352.14062Q128.46875 352.14062 128.5 355.15625L128.5 360.75L127.046875 360.75L127.046875 355.15625Q127.046875 354.23438 126.625 353.79688Q126.21875 353.35938 125.359375 353.35938Q124.65625 353.35938 124.125 353.73438Q123.59375 354.10938 123.296875 354.71875L123.296875 360.75L121.84375 360.75L121.84375 348.75L123.296875 348.75L123.296875 353.3125Z" fill-rule="nonzero"/><path fill="#9e9e9e" d="M60.359375 377.04688L60.9375 371.375L66.765625 371.375L66.765625 372.70312L62.171875 372.70312L61.828125 375.8125Q62.65625 375.3125 63.71875 375.3125Q65.28125 375.3125 66.1875 376.34375Q67.109375 377.375 67.109375 379.125Q67.109375 380.875 66.15625 381.89062Q65.203125 382.90625 63.5 382.90625Q62.0 382.90625 61.046875 382.07812Q60.09375 381.23438 59.953125 379.75L61.328125 379.75Q61.453125 380.73438 62.015625 381.23438Q62.578125 381.71875 63.5 381.71875Q64.515625 381.71875 65.078125 381.03125Q65.65625 380.34375 65.65625 379.14062Q65.65625 378.0 65.03125 377.3125Q64.421875 376.60938 63.390625 376.60938Q62.4375 376.60938 61.90625 377.03125L61.515625 377.34375L60.359375 377.04688ZM68.875 381.98438Q68.875 381.60938 69.09375 381.35938Q69.328125 381.10938 69.765625 381.10938Q70.21875 381.10938 70.4375 381.35938Q70.671875 381.60938 70.671875 381.98438Q70.671875 382.34375 70.4375 382.59375Q70.21875 382.84375 69.765625 382.84375Q69.328125 382.84375 69.09375 382.59375Q68.875 382.34375 68.875 381.98438ZM78.796875 378.92188L80.375 378.92188L80.375 380.10938L78.796875 380.10938L78.796875 382.75L77.34375 382.75L77.34375 380.10938L72.171875 380.10938L72.171875 379.25L77.265625 371.375L78.796875 371.375L78.796875 378.92188ZM73.8125 378.92188L77.34375 378.92188L77.34375 373.34375L77.171875 373.65625L73.8125 378.92188ZM81.578125 373.5625Q81.578125 372.53125 82.21875 371.875Q82.875 371.20312 83.90625 371.20312Q84.9375 371.20312 85.578125 371.875Q86.234375 372.54688 86.234375 373.60938L86.234375 374.15625Q86.234375 375.1875 85.578125 375.84375Q84.921875 376.5 83.921875 376.5Q82.90625 376.5 82.234375 375.84375Q81.578125 375.1875 81.578125 374.10938L81.578125 373.5625ZM82.65625 374.15625Q82.65625 374.76562 83.0 375.17188Q83.34375 375.5625 83.921875 375.5625Q84.46875 375.5625 84.8125 375.1875Q85.15625 374.79688 85.15625 374.125L85.15625 373.5625Q85.15625 372.95312 84.8125 372.5625Q84.484375 372.15625 83.90625 372.15625Q83.328125 372.15625 82.984375 372.5625Q82.65625 372.95312 82.65625 373.59375L82.65625 374.15625ZM87.109375 379.95312Q87.109375 378.9375 87.765625 378.28125Q88.421875 377.60938 89.4375 377.60938Q90.46875 377.60938 91.125 378.26562Q91.78125 378.92188 91.78125 380.01562L91.78125 380.5625Q91.78125 381.59375 91.125 382.26562Q90.46875 382.92188 89.453125 382.92188Q88.4375 382.92188 87.765625 382.26562Q87.109375 381.60938 87.109375 380.51562L87.109375 379.95312ZM88.1875 380.5625Q88.1875 381.1875 88.53125 381.57812Q88.875 381.96875 89.453125 381.96875Q90.015625 381.96875 90.34375 381.59375Q90.6875 381.20312 90.6875 380.53125L90.6875 379.95312Q90.6875 379.34375 90.34375 378.95312Q90.015625 378.5625 89.4375 378.5625Q88.890625 378.5625 88.53125 378.95312Q88.1875 379.32812 88.1875 379.98438L88.1875 380.5625ZM84.25 381.89062L83.421875 381.375L88.984375 372.48438L89.796875 373.0L84.25 381.89062Z" fill-rule="nonzero"/><path stroke="#757575" stroke-width="1.0" stroke-linecap="butt" d="M58.75 366.25L414.25 366.25L528.5676 312.62833" fill-rule="nonzero"/><path fill="#9e9e9e" d="M530.5676 312.62833C530.5676 311.52374 529.6722 310.62833 528.5676 310.62833C527.463 310.62833 526.5676 311.52374 526.5676 312.62833C526.5676 313.73288 527.463 314.62833 528.5676 314.62833C529.6722 314.62833 530.5676 313.73288 530.5676 312.62833" fill-rule="nonzero"/><path fill="#1a1a1a" d="M66.34375 490.63843L61.578125 490.63843L61.578125 495.66968L60.078125 495.66968L60.078125 484.29468L67.125 484.29468L67.125 485.52905L61.578125 485.52905L61.578125 489.41968L66.34375 489.41968L66.34375 490.63843ZM68.46875 491.35718Q68.46875 490.1228 68.953125 489.13843Q69.4375 488.13843 70.3125 487.60718Q71.1875 487.0603 72.296875 487.0603Q74.03125 487.0603 75.09375 488.26343Q76.15625 489.45093 76.15625 491.4353L76.15625 491.52905Q76.15625 492.76343 75.6875 493.7478Q75.21875 494.73218 74.328125 495.27905Q73.453125 495.82593 72.3125 495.82593Q70.59375 495.82593 69.53125 494.63843Q68.46875 493.4353 68.46875 491.46655L68.46875 491.35718ZM69.921875 491.52905Q69.921875 492.9353 70.5625 493.79468Q71.21875 494.63843 72.3125 494.63843Q73.421875 494.63843 74.0625 493.77905Q74.71875 492.91968 74.71875 491.35718Q74.71875 489.96655 74.046875 489.10718Q73.390625 488.2478 72.296875 488.2478Q71.234375 488.2478 70.578125 489.10718Q69.921875 489.95093 69.921875 491.52905ZM81.9375 488.51343Q81.609375 488.45093 81.21875 488.45093Q79.796875 488.45093 79.296875 489.66968L79.296875 495.66968L77.84375 495.66968L77.84375 487.21655L79.25 487.21655L79.28125 488.1853Q79.984375 487.0603 81.296875 487.0603Q81.71875 487.0603 81.9375 487.16968L81.9375 488.51343ZM82.5 491.3728Q82.5 489.38843 83.40625 488.23218Q84.328125 487.0603 85.84375 487.0603Q87.390625 487.0603 88.25 488.15405L88.328125 487.21655L89.640625 487.21655L89.640625 495.46655Q89.640625 497.10718 88.671875 498.04468Q87.703125 498.9978 86.0625 498.9978Q85.140625 498.9978 84.265625 498.60718Q83.390625 498.21655 82.9375 497.54468L83.6875 496.66968Q84.609375 497.82593 85.953125 497.82593Q87.015625 497.82593 87.59375 497.23218Q88.1875 496.63843 88.1875 495.54468L88.1875 494.82593Q87.328125 495.82593 85.828125 495.82593Q84.34375 495.82593 83.421875 494.63843Q82.5 493.4353 82.5 491.3728ZM83.953125 491.52905Q83.953125 492.96655 84.53125 493.77905Q85.125 494.59155 86.1875 494.59155Q87.546875 494.59155 88.1875 493.35718L88.1875 489.4978Q87.53125 488.27905 86.203125 488.27905Q85.140625 488.27905 84.546875 489.10718Q83.953125 489.91968 83.953125 491.52905ZM95.359375 495.82593Q93.640625 495.82593 92.5625 494.70093Q91.484375 493.5603 91.484375 491.66968L91.484375 491.40405Q91.484375 490.15405 91.953125 489.16968Q92.4375 488.16968 93.296875 487.6228Q94.171875 487.0603 95.171875 487.0603Q96.828125 487.0603 97.734375 488.15405Q98.65625 489.23218 98.65625 491.2478L98.65625 491.85718L92.921875 491.85718Q92.953125 493.10718 93.65625 493.8728Q94.359375 494.63843 95.4375 494.63843Q96.203125 494.63843 96.734375 494.32593Q97.265625 494.01343 97.65625 493.4978L98.546875 494.1853Q97.484375 495.82593 95.359375 495.82593ZM95.171875 488.2478Q94.296875 488.2478 93.703125 488.88843Q93.109375 489.51343 92.96875 490.66968L97.203125 490.66968L97.203125 490.5603Q97.140625 489.45093 96.609375 488.85718Q96.078125 488.2478 95.171875 488.2478Z" fill-rule="nonzero"/><path fill="#9e9e9e" d="M67.046875 507.10718L62.328125 517.6697L60.8125 517.6697L65.515625 507.48218L59.359375 507.48218L59.359375 506.29468L67.046875 506.29468L67.046875 507.10718ZM68.875 516.90405Q68.875 516.52905 69.09375 516.27905Q69.328125 516.02905 69.765625 516.02905Q70.21875 516.02905 70.4375 516.27905Q70.671875 516.52905 70.671875 516.90405Q70.671875 517.2634 70.4375 517.5134Q70.21875 517.7634 69.765625 517.7634Q69.328125 517.7634 69.09375 517.5134Q68.875 517.2634 68.875 516.90405ZM73.359375 511.96655L73.9375 506.29468L79.765625 506.29468L79.765625 507.6228L75.171875 507.6228L74.828125 510.73218Q75.65625 510.23218 76.71875 510.23218Q78.28125 510.23218 79.1875 511.26343Q80.109375 512.2947 80.109375 514.0447Q80.109375 515.7947 79.15625 516.8103Q78.203125 517.8259 76.5 517.8259Q75.0 517.8259 74.046875 516.9978Q73.09375 516.15405 72.953125 514.6697L74.328125 514.6697Q74.453125 515.65405 75.015625 516.15405Q75.578125 516.6384 76.5 516.6384Q77.515625 516.6384 78.078125 515.9509Q78.65625 515.2634 78.65625 514.0603Q78.65625 512.9197 78.03125 512.2322Q77.421875 511.52905 76.390625 511.52905Q75.4375 511.52905 74.90625 511.95093L74.515625 512.2634L73.359375 511.96655ZM81.578125 508.48218Q81.578125 507.45093 82.21875 506.79468Q82.875 506.1228 83.90625 506.1228Q84.9375 506.1228 85.578125 506.79468Q86.234375 507.46655 86.234375 508.52905L86.234375 509.07593Q86.234375 510.10718 85.578125 510.76343Q84.921875 511.41968 83.921875 511.41968Q82.90625 511.41968 82.234375 510.76343Q81.578125 510.10718 81.578125 509.02905L81.578125 508.48218ZM82.65625 509.07593Q82.65625 509.6853 83.0 510.09155Q83.34375 510.48218 83.921875 510.48218Q84.46875 510.48218 84.8125 510.10718Q85.15625 509.71655 85.15625 509.04468L85.15625 508.48218Q85.15625 507.8728 84.8125 507.48218Q84.484375 507.07593 83.90625 507.07593Q83.328125 507.07593 82.984375 507.48218Q82.65625 507.8728 82.65625 508.51343L82.65625 509.07593ZM87.109375 514.8728Q87.109375 513.8572 87.765625 513.2009Q88.421875 512.52905 89.4375 512.52905Q90.46875 512.52905 91.125 513.1853Q91.78125 513.84155 91.78125 514.9353L91.78125 515.4822Q91.78125 516.5134 91.125 517.1853Q90.46875 517.84155 89.453125 517.84155Q88.4375 517.84155 87.765625 517.1853Q87.109375 516.52905 87.109375 515.4353L87.109375 514.8728ZM88.1875 515.4822Q88.1875 516.1072 88.53125 516.4978Q88.875 516.8884 89.453125 516.8884Q90.015625 516.8884 90.34375 516.5134Q90.6875 516.1228 90.6875 515.4509L90.6875 514.8728Q90.6875 514.2634 90.34375 513.8728Q90.015625 513.4822 89.4375 513.4822Q88.890625 513.4822 88.53125 513.8728Q88.1875 514.2478 88.1875 514.90405L88.1875 515.4822ZM84.25 516.8103L83.421875 516.2947L88.984375 507.40405L89.796875 507.91968L84.25 516.8103Z" fill-rule="nonzero"/><path stroke="#757575" stroke-width="1.0" stroke-linecap="butt" d="M58.75 501.16968L414.25 501.16968L454.1617 501.16968" fill-rule="nonzero"/><path fill="#9e9e9e" d="M456.1617 501.16968C456.1617 500.0651 455.2663 499.16968 454.1617 499.16968C453.05716 499.16968 452.1617 500.0651 452.1617 501.16968C452.1617 502.27423 453.05716 503.16968 454.1617 503.16968C455.2663 503.16968 456.1617 502.27423 456.1617 501.16968" fill-rule="nonzero"/><path fill="#1a1a1a" d="M66.34375 863.9752L61.578125 863.9752L61.578125 869.0065L60.078125 869.0065L60.078125 857.6315L67.125 857.6315L67.125 858.86584L61.578125 858.86584L61.578125 862.7565L66.34375 862.7565L66.34375 863.9752ZM70.421875 869.0065L68.96875 869.0065L68.96875 857.0065L70.421875 857.0065L70.421875 869.0065ZM78.0625 869.0065Q77.9375 868.7565 77.859375 868.11584Q76.859375 869.1627 75.453125 869.1627Q74.203125 869.1627 73.40625 868.4596Q72.609375 867.74084 72.609375 866.6627Q72.609375 865.3346 73.609375 864.61584Q74.609375 863.8815 76.4375 863.8815L77.84375 863.8815L77.84375 863.2096Q77.84375 862.4596 77.390625 862.0065Q76.9375 861.55334 76.046875 861.55334Q75.28125 861.55334 74.75 861.944Q74.234375 862.3346 74.234375 862.8971L72.78125 862.8971Q72.78125 862.2565 73.21875 861.67834Q73.671875 861.0846 74.4375 860.74084Q75.21875 860.3971 76.140625 860.3971Q77.59375 860.3971 78.421875 861.1315Q79.25 861.8502 79.28125 863.1315L79.28125 867.0221Q79.28125 868.194 79.578125 868.8815L79.578125 869.0065L78.0625 869.0065ZM75.671875 867.8971Q76.34375 867.8971 76.953125 867.55334Q77.5625 867.194 77.84375 866.6315L77.84375 864.8971L76.703125 864.8971Q74.046875 864.8971 74.046875 866.4596Q74.046875 867.1315 74.5 867.5221Q74.953125 867.8971 75.671875 867.8971ZM83.203125 860.55334L83.25 861.49084Q84.171875 860.3971 85.75 860.3971Q87.53125 860.3971 88.171875 861.7565Q88.59375 861.1471 89.265625 860.7721Q89.9375 860.3971 90.859375 860.3971Q93.640625 860.3971 93.6875 863.3346L93.6875 869.0065L92.25 869.0065L92.25 863.42834Q92.25 862.5221 91.828125 862.069Q91.421875 861.61584 90.4375 861.61584Q89.640625 861.61584 89.109375 862.1002Q88.578125 862.5846 88.484375 863.3971L88.484375 869.0065L87.03125 869.0065L87.03125 863.4596Q87.03125 861.61584 85.234375 861.61584Q83.8125 861.61584 83.28125 862.8346L83.28125 869.0065L81.84375 869.0065L81.84375 860.55334L83.203125 860.55334ZM99.359375 869.1627Q97.640625 869.1627 96.5625 868.0377Q95.484375 866.8971 95.484375 865.0065L95.484375 864.74084Q95.484375 863.49084 95.953125 862.5065Q96.4375 861.5065 97.296875 860.9596Q98.171875 860.3971 99.171875 860.3971Q100.828125 860.3971 101.734375 861.49084Q102.65625 862.569 102.65625 864.5846L102.65625 865.194L96.921875 865.194Q96.953125 866.444 97.65625 867.2096Q98.359375 867.9752 99.4375 867.9752Q100.203125 867.9752 100.734375 867.6627Q101.265625 867.3502 101.65625 866.8346L102.546875 867.5221Q101.484375 869.1627 99.359375 869.1627ZM99.171875 861.5846Q98.296875 861.5846 97.703125 862.2252Q97.109375 862.8502 96.96875 864.0065L101.203125 864.0065L101.203125 863.8971Q101.140625 862.7877 100.609375 862.194Q100.078125 861.5846 99.171875 861.5846ZM112.4375 865.3971Q112.234375 867.194 111.109375 868.17834Q109.984375 869.1627 108.125 869.1627Q106.109375 869.1627 104.890625 867.7252Q103.6875 866.2721 103.6875 863.8502L103.6875 862.7565Q103.6875 861.1627 104.25 859.9596Q104.8125 858.7565 105.84375 858.11584Q106.890625 857.4752 108.265625 857.4752Q110.078125 857.4752 111.171875 858.49084Q112.265625 859.49084 112.4375 861.2877L110.9375 861.2877Q110.734375 859.92834 110.078125 859.319Q109.4375 858.7096 108.265625 858.7096Q106.828125 858.7096 106.0 859.7721Q105.1875 860.8346 105.1875 862.7877L105.1875 863.8971Q105.1875 865.74084 105.953125 866.8346Q106.734375 867.92834 108.125 867.92834Q109.375 867.92834 110.046875 867.36584Q110.71875 866.80334 110.9375 865.3971L112.4375 865.3971ZM113.46875 864.694Q113.46875 863.4596 113.953125 862.4752Q114.4375 861.4752 115.3125 860.944Q116.1875 860.3971 117.296875 860.3971Q119.03125 860.3971 120.09375 861.6002Q121.15625 862.7877 121.15625 864.7721L121.15625 864.86584Q121.15625 866.1002 120.6875 867.0846Q120.21875 868.069 119.328125 868.61584Q118.453125 869.1627 117.3125 869.1627Q115.59375 869.1627 114.53125 867.9752Q113.46875 866.7721 113.46875 864.80334L113.46875 864.694ZM114.921875 864.86584Q114.921875 866.2721 115.5625 867.1315Q116.21875 867.9752 117.3125 867.9752Q118.421875 867.9752 119.0625 867.11584Q119.71875 866.2565 119.71875 864.694Q119.71875 863.30334 119.046875 862.444Q118.390625 861.5846 117.296875 861.5846Q116.234375 861.5846 115.578125 862.444Q114.921875 863.2877 114.921875 864.86584ZM126.9375 861.8502Q126.609375 861.7877 126.21875 861.7877Q124.796875 861.7877 124.296875 863.0065L124.296875 869.0065L122.84375 869.0065L122.84375 860.55334L124.25 860.55334L124.28125 861.5221Q124.984375 860.3971 126.296875 860.3971Q126.71875 860.3971 126.9375 860.5065L126.9375 861.8502ZM127.5 864.7096Q127.5 862.7565 128.42188 861.5846Q129.34375 860.3971 130.82812 860.3971Q132.3125 860.3971 133.1875 861.4127L133.1875 857.0065L134.625 857.0065L134.625 869.0065L133.29688 869.0065L133.23438 868.1002Q132.35938 869.1627 130.8125 869.1627Q129.34375 869.1627 128.42188 867.9596Q127.5 866.7565 127.5 864.819L127.5 864.7096ZM128.9375 864.86584Q128.9375 866.30334 129.53125 867.11584Q130.125 867.92834 131.17188 867.92834Q132.54688 867.92834 133.1875 866.694L133.1875 862.819Q132.53125 861.61584 131.1875 861.61584Q130.125 861.61584 129.53125 862.444Q128.9375 863.2565 128.9375 864.86584Z" fill-rule="nonzero"/><path fill="#9e9e9e" d="M64.453125 891.0065L63.0 891.0065L63.0 881.36584L60.078125 882.444L60.078125 881.1315L64.21875 879.569L64.453125 879.569L64.453125 891.0065ZM76.046875 880.444L71.328125 891.0065L69.8125 891.0065L74.515625 880.819L68.359375 880.819L68.359375 879.6315L76.046875 879.6315L76.046875 880.444ZM77.875 890.24084Q77.875 889.86584 78.09375 889.61584Q78.328125 889.36584 78.765625 889.36584Q79.21875 889.36584 79.4375 889.61584Q79.671875 889.86584 79.671875 890.24084Q79.671875 890.6002 79.4375 890.8502Q79.21875 891.1002 78.765625 891.1002Q78.328125 891.1002 78.09375 890.8502Q77.875 890.6002 77.875 890.24084ZM87.796875 887.17834L89.375 887.17834L89.375 888.36584L87.796875 888.36584L87.796875 891.0065L86.34375 891.0065L86.34375 888.36584L81.171875 888.36584L81.171875 887.5065L86.265625 879.6315L87.796875 879.6315L87.796875 887.17834ZM82.8125 887.17834L86.34375 887.17834L86.34375 881.6002L86.171875 881.9127L82.8125 887.17834ZM90.578125 881.819Q90.578125 880.7877 91.21875 880.1315Q91.875 879.4596 92.90625 879.4596Q93.9375 879.4596 94.578125 880.1315Q95.234375 880.80334 95.234375 881.86584L95.234375 882.4127Q95.234375 883.444 94.578125 884.1002Q93.921875 884.7565 92.921875 884.7565Q91.90625 884.7565 91.234375 884.1002Q90.578125 883.444 90.578125 882.36584L90.578125 881.819ZM91.65625 882.4127Q91.65625 883.0221 92.0 883.42834Q92.34375 883.819 92.921875 883.819Q93.46875 883.819 93.8125 883.444Q94.15625 883.05334 94.15625 882.3815L94.15625 881.819Q94.15625 881.2096 93.8125 880.819Q93.484375 880.4127 92.90625 880.4127Q92.328125 880.4127 91.984375 880.819Q91.65625 881.2096 91.65625 881.8502L91.65625 882.4127ZM96.109375 888.2096Q96.109375 887.194 96.765625 886.5377Q97.421875 885.86584 98.4375 885.86584Q99.46875 885.86584 100.125 886.5221Q100.78125 887.17834 100.78125 888.2721L100.78125 888.819Q100.78125 889.8502 100.125 890.5221Q99.46875 891.17834 98.453125 891.17834Q97.4375 891.17834 96.765625 890.5221Q96.109375 889.86584 96.109375 888.7721L96.109375 888.2096ZM97.1875 888.819Q97.1875 889.444 97.53125 889.8346Q97.875 890.2252 98.453125 890.2252Q99.015625 890.2252 99.34375 889.8502Q99.6875 889.4596 99.6875 888.7877L99.6875 888.2096Q99.6875 887.6002 99.34375 887.2096Q99.015625 886.819 98.4375 886.819Q97.890625 886.819 97.53125 887.2096Q97.1875 887.5846 97.1875 888.24084L97.1875 888.819ZM93.25 890.1471L92.421875 889.6315L97.984375 880.74084L98.796875 881.2565L93.25 890.1471Z" fill-rule="nonzero"/><path stroke="#757575" stroke-width="1.0" stroke-linecap="butt" d="M58.75 874.5065L414.25 874.5065L536.756 874.5065" fill-rule="nonzero"/><path fill="#9e9e9e" d="M538.756 874.5065C538.756 873.4019 537.86053 872.5065 536.756 872.5065C535.6514 872.5065 534.756 873.4019 534.756 874.5065C534.756 875.611 535.6514 876.5065 536.756 876.5065C537.86053 876.5065 538.756 875.611 538.756 874.5065" fill-rule="nonzero"/><path fill="#1a1a1a" d="M1788.3438 318.23114L1791.5938 308.85614L1793.2344 308.85614L1789.0156 320.23114L1787.6875 320.23114L1783.4688 308.85614L1785.1094 308.85614L1788.3438 318.23114ZM1797.8594 320.3874Q1796.1406 320.3874 1795.0625 319.2624Q1793.9844 318.12177 1793.9844 316.23114L1793.9844 315.9655Q1793.9844 314.7155 1794.4531 313.73114Q1794.9375 312.73114 1795.7969 312.18427Q1796.6719 311.62177 1797.6719 311.62177Q1799.3281 311.62177 1800.2344 312.7155Q1801.1562 313.79364 1801.1562 315.80927L1801.1562 316.41864L1795.4219 316.41864Q1795.4531 317.66864 1796.1562 318.43427Q1796.8594 319.1999 1797.9375 319.1999Q1798.7031 319.1999 1799.2344 318.8874Q1799.7656 318.5749 1800.1562 318.05927L1801.0469 318.74677Q1799.9844 320.3874 1797.8594 320.3874ZM1797.6719 312.80927Q1796.7969 312.80927 1796.2031 313.4499Q1795.6094 314.0749 1795.4688 315.23114L1799.7031 315.23114L1799.7031 315.12177Q1799.6406 314.0124 1799.1094 313.41864Q1798.5781 312.80927 1797.6719 312.80927ZM1803.9219 320.23114L1802.4688 320.23114L1802.4688 308.23114L1803.9219 308.23114L1803.9219 320.23114ZM1805.9688 315.91864Q1805.9688 314.68427 1806.4531 313.6999Q1806.9375 312.6999 1807.8125 312.16864Q1808.6875 311.62177 1809.7969 311.62177Q1811.5312 311.62177 1812.5938 312.8249Q1813.6562 314.0124 1813.6562 315.99677L1813.6562 316.0905Q1813.6562 317.3249 1813.1875 318.30927Q1812.7188 319.29364 1811.8281 319.8405Q1810.9531 320.3874 1809.8125 320.3874Q1808.0938 320.3874 1807.0312 319.1999Q1805.9688 317.99677 1805.9688 316.028L1805.9688 315.91864ZM1807.4219 316.0905Q1807.4219 317.49677 1808.0625 318.35614Q1808.7188 319.1999 1809.8125 319.1999Q1810.9219 319.1999 1811.5625 318.3405Q1812.2188 317.48114 1812.2188 315.91864Q1812.2188 314.528 1811.5469 313.66864Q1810.8906 312.80927 1809.7969 312.80927Q1808.7344 312.80927 1808.0781 313.66864Q1807.4219 314.5124 1807.4219 316.0905ZM1818.7344 319.1999Q1819.5156 319.1999 1820.0938 318.73114Q1820.6719 318.2624 1820.7344 317.55927L1822.0938 317.55927Q1822.0625 318.29364 1821.5938 318.9499Q1821.1406 319.60614 1820.3594 319.99677Q1819.5938 320.3874 1818.7344 320.3874Q1817.0156 320.3874 1815.9844 319.23114Q1814.9688 318.0749 1814.9688 316.0749L1814.9688 315.8405Q1814.9688 314.60614 1815.4219 313.653Q1815.875 312.68427 1816.7188 312.153Q1817.5781 311.62177 1818.7344 311.62177Q1820.1562 311.62177 1821.0938 312.48114Q1822.0312 313.3249 1822.0938 314.68427L1820.7344 314.68427Q1820.6719 313.85614 1820.1094 313.3405Q1819.5469 312.80927 1818.7344 312.80927Q1817.625 312.80927 1817.0156 313.60614Q1816.4219 314.3874 1816.4219 315.8874L1816.4219 316.16864Q1816.4219 317.62177 1817.0156 318.41864Q1817.625 319.1999 1818.7344 319.1999ZM1824.9219 320.23114L1823.4688 320.23114L1823.4688 311.778L1824.9219 311.778L1824.9219 320.23114ZM1823.3594 309.528Q1823.3594 309.18427 1823.5625 308.9499Q1823.7812 308.6999 1824.2031 308.6999Q1824.625 308.6999 1824.8438 308.9499Q1825.0625 309.18427 1825.0625 309.54364Q1825.0625 309.8874 1824.8438 310.12177Q1824.625 310.35614 1824.2031 310.35614Q1823.7812 310.35614 1823.5625 310.12177Q1823.3594 309.8874 1823.3594 309.528ZM1829.3125 309.73114L1829.3125 311.778L1830.8906 311.778L1830.8906 312.8874L1829.3125 312.8874L1829.3125 318.1374Q1829.3125 318.6374 1829.5156 318.903Q1829.7344 319.153 1830.2344 319.153Q1830.4844 319.153 1830.9219 319.05927L1830.9219 320.23114Q1830.3594 320.3874 1829.8125 320.3874Q1828.8438 320.3874 1828.3438 319.80927Q1827.8594 319.2155 1827.8594 318.1374L1827.8594 312.8874L1826.3281 312.8874L1826.3281 311.778L1827.8594 311.778L1827.8594 309.73114L1829.3125 309.73114ZM1835.1094 318.10614L1837.0781 311.778L1838.625 311.778L1835.2344 321.54364Q1834.4375 323.653 1832.7188 323.653L1832.4531 323.62177L1831.9062 323.528L1831.9062 322.35614L1832.2969 322.3874Q1833.0312 322.3874 1833.4375 322.0905Q1833.8594 321.79364 1834.125 320.99677L1834.4375 320.1374L1831.4219 311.778L1833.0 311.778L1835.1094 318.10614Z" fill-rule="nonzero"/><path fill="#9e9e9e" d="M1799.2969 335.8405L1800.3906 335.8405Q1801.4062 335.8249 1801.9844 335.30927Q1802.5781 334.778 1802.5781 333.8874Q1802.5781 331.8874 1800.5938 331.8874Q1799.6562 331.8874 1799.0938 332.41864Q1798.5312 332.9499 1798.5312 333.8405L1797.0938 333.8405Q1797.0938 332.48114 1798.0781 331.5905Q1799.0625 330.6999 1800.5938 330.6999Q1802.2031 330.6999 1803.1094 331.55927Q1804.0312 332.403 1804.0312 333.91864Q1804.0312 334.653 1803.5469 335.35614Q1803.0625 336.04364 1802.2344 336.3874Q1803.1719 336.68427 1803.6875 337.37177Q1804.2031 338.05927 1804.2031 339.05927Q1804.2031 340.5905 1803.2031 341.49677Q1802.2031 342.3874 1800.5938 342.3874Q1799.0 342.3874 1797.9844 341.528Q1796.9844 340.653 1796.9844 339.23114L1798.4375 339.23114Q1798.4375 340.12177 1799.0156 340.66864Q1799.6094 341.1999 1800.5938 341.1999Q1801.6406 341.1999 1802.1875 340.653Q1802.75 340.10614 1802.75 339.0905Q1802.75 338.0905 1802.1406 337.55927Q1801.5312 337.028 1800.3906 337.0124L1799.2969 337.0124L1799.2969 335.8405ZM1813.6562 342.23114L1806.2031 342.23114L1806.2031 341.18427L1810.1406 336.80927Q1811.0156 335.8249 1811.3438 335.1999Q1811.6719 334.5749 1811.6719 333.91864Q1811.6719 333.028 1811.125 332.4655Q1810.5938 331.8874 1809.7031 331.8874Q1808.625 331.8874 1808.0156 332.49677Q1807.4219 333.10614 1807.4219 334.1999L1805.9844 334.1999Q1805.9844 332.6374 1806.9844 331.66864Q1808.0 330.6999 1809.7031 330.6999Q1811.2812 330.6999 1812.2031 331.528Q1813.125 332.35614 1813.125 333.74677Q1813.125 335.41864 1810.9844 337.74677L1807.9375 341.04364L1813.6562 341.04364L1813.6562 342.23114ZM1815.375 341.4655Q1815.375 341.0905 1815.5938 340.8405Q1815.8281 340.5905 1816.2656 340.5905Q1816.7188 340.5905 1816.9375 340.8405Q1817.1719 341.0905 1817.1719 341.4655Q1817.1719 341.8249 1816.9375 342.0749Q1816.7188 342.3249 1816.2656 342.3249Q1815.8281 342.3249 1815.5938 342.0749Q1815.375 341.8249 1815.375 341.4655ZM1824.875 330.8405L1824.875 332.0749L1824.6094 332.0749Q1822.9219 332.10614 1821.9219 333.0749Q1820.9219 334.04364 1820.7656 335.79364Q1821.6562 334.7624 1823.2188 334.7624Q1824.7031 334.7624 1825.5781 335.80927Q1826.4688 336.85614 1826.4688 338.5124Q1826.4688 340.278 1825.5156 341.3405Q1824.5625 342.3874 1822.9531 342.3874Q1821.3125 342.3874 1820.2969 341.1374Q1819.2812 339.87177 1819.2812 337.903L1819.2812 337.3405Q1819.2812 334.1999 1820.625 332.54364Q1821.9688 330.8874 1824.6094 330.8405L1824.875 330.8405ZM1822.9688 335.9655Q1822.2344 335.9655 1821.6094 336.41864Q1820.9844 336.85614 1820.7344 337.528L1820.7344 338.05927Q1820.7344 339.4655 1821.3594 340.3249Q1822.0 341.18427 1822.9531 341.18427Q1823.9219 341.18427 1824.4844 340.4655Q1825.0469 339.74677 1825.0469 338.5905Q1825.0469 337.41864 1824.4688 336.6999Q1823.9062 335.9655 1822.9688 335.9655ZM1828.0781 333.04364Q1828.0781 332.0124 1828.7188 331.35614Q1829.375 330.68427 1830.4062 330.68427Q1831.4375 330.68427 1832.0781 331.35614Q1832.7344 332.028 1832.7344 333.0905L1832.7344 333.6374Q1832.7344 334.66864 1832.0781 335.3249Q1831.4219 335.98114 1830.4219 335.98114Q1829.4062 335.98114 1828.7344 335.3249Q1828.0781 334.66864 1828.0781 333.5905L1828.0781 333.04364ZM1829.1562 333.6374Q1829.1562 334.24677 1829.5 334.653Q1829.8438 335.04364 1830.4219 335.04364Q1830.9688 335.04364 1831.3125 334.66864Q1831.6562 334.278 1831.6562 333.60614L1831.6562 333.04364Q1831.6562 332.43427 1831.3125 332.04364Q1830.9844 331.6374 1830.4062 331.6374Q1829.8281 331.6374 1829.4844 332.04364Q1829.1562 332.43427 1829.1562 333.0749L1829.1562 333.6374ZM1833.6094 339.43427Q1833.6094 338.41864 1834.2656 337.7624Q1834.9219 337.0905 1835.9375 337.0905Q1836.9688 337.0905 1837.625 337.74677Q1838.2812 338.403 1838.2812 339.49677L1838.2812 340.04364Q1838.2812 341.0749 1837.625 341.74677Q1836.9688 342.403 1835.9531 342.403Q1834.9375 342.403 1834.2656 341.74677Q1833.6094 341.0905 1833.6094 339.99677L1833.6094 339.43427ZM1834.6875 340.04364Q1834.6875 340.66864 1835.0312 341.05927Q1835.375 341.4499 1835.9531 341.4499Q1836.5156 341.4499 1836.8438 341.0749Q1837.1875 340.68427 1837.1875 340.0124L1837.1875 339.43427Q1837.1875 338.8249 1836.8438 338.43427Q1836.5156 338.04364 1835.9375 338.04364Q1835.3906 338.04364 1835.0312 338.43427Q1834.6875 338.80927 1834.6875 339.4655L1834.6875 340.04364ZM1830.75 341.37177L1829.9219 340.85614L1835.4844 331.9655L1836.2969 332.48114L1830.75 341.37177Z" fill-rule="nonzero"/><path stroke="#757575" stroke-width="1.0" stroke-linecap="butt" d="M1839.25 325.73114L1483.75 325.73114L1377.7131 325.73114" fill-rule="nonzero"/><path fill="#9e9e9e" d="M1379.7131 325.73114C1379.7131 324.62656 1378.8176 323.73114 1377.7131 323.73114C1376.6085 323.73114 1375.7131 324.62656 1375.7131 325.73114C1375.7131 326.83572 1376.6085 327.73114 1377.7131 327.73114C1378.8176 327.73114 1379.7131 326.83572 1379.7131 325.73114" fill-rule="nonzero"/><path fill="#1a1a1a" d="M1793.5156 1044.2751L1797.2344 1053.5564L1800.9531 1044.2751L1802.8906 1044.2751L1802.8906 1055.6501L1801.3906 1055.6501L1801.3906 1051.2126L1801.5312 1046.4314L1797.7969 1055.6501L1796.6562 1055.6501L1792.9219 1046.4626L1793.0781 1051.2126L1793.0781 1055.6501L1791.5781 1055.6501L1791.5781 1044.2751L1793.5156 1044.2751ZM1804.9688 1051.3376Q1804.9688 1050.1033 1805.4531 1049.1189Q1805.9375 1048.1189 1806.8125 1047.5876Q1807.6875 1047.0408 1808.7969 1047.0408Q1810.5312 1047.0408 1811.5938 1048.2439Q1812.6562 1049.4314 1812.6562 1051.4158L1812.6562 1051.5095Q1812.6562 1052.7439 1812.1875 1053.7283Q1811.7188 1054.7126 1810.8281 1055.2595Q1809.9531 1055.8064 1808.8125 1055.8064Q1807.0938 1055.8064 1806.0312 1054.6189Q1804.9688 1053.4158 1804.9688 1051.447L1804.9688 1051.3376ZM1806.4219 1051.5095Q1806.4219 1052.9158 1807.0625 1053.7751Q1807.7188 1054.6189 1808.8125 1054.6189Q1809.9219 1054.6189 1810.5625 1053.7595Q1811.2188 1052.9001 1811.2188 1051.3376Q1811.2188 1049.947 1810.5469 1049.0876Q1809.8906 1048.2283 1808.7969 1048.2283Q1807.7344 1048.2283 1807.0781 1049.0876Q1806.4219 1049.9314 1806.4219 1051.5095ZM1815.7969 1048.2126Q1816.75 1047.0408 1818.2969 1047.0408Q1820.9688 1047.0408 1821.0 1050.0564L1821.0 1055.6501L1819.5469 1055.6501L1819.5469 1050.0564Q1819.5469 1049.1345 1819.125 1048.697Q1818.7188 1048.2595 1817.8594 1048.2595Q1817.1562 1048.2595 1816.625 1048.6345Q1816.0938 1049.0095 1815.7969 1049.6189L1815.7969 1055.6501L1814.3438 1055.6501L1814.3438 1043.6501L1815.7969 1043.6501L1815.7969 1048.2126ZM1824.9219 1055.6501L1823.4688 1055.6501L1823.4688 1047.197L1824.9219 1047.197L1824.9219 1055.6501ZM1823.3594 1044.947Q1823.3594 1044.6033 1823.5625 1044.3689Q1823.7812 1044.1189 1824.2031 1044.1189Q1824.625 1044.1189 1824.8438 1044.3689Q1825.0625 1044.6033 1825.0625 1044.9626Q1825.0625 1045.3064 1824.8438 1045.5408Q1824.625 1045.7751 1824.2031 1045.7751Q1823.7812 1045.7751 1823.5625 1045.5408Q1823.3594 1045.3064 1823.3594 1044.947ZM1832.2656 1053.4001Q1832.2656 1052.822 1831.8281 1052.4939Q1831.3906 1052.1658 1830.2812 1051.9314Q1829.1875 1051.697 1828.5469 1051.3689Q1827.9062 1051.0408 1827.5938 1050.5876Q1827.2812 1050.1345 1827.2812 1049.5095Q1827.2812 1048.4783 1828.1562 1047.7595Q1829.0469 1047.0408 1830.4062 1047.0408Q1831.8438 1047.0408 1832.7344 1047.7908Q1833.6406 1048.5251 1833.6406 1049.6814L1832.1875 1049.6814Q1832.1875 1049.0876 1831.6719 1048.6658Q1831.1719 1048.2283 1830.4062 1048.2283Q1829.625 1048.2283 1829.1719 1048.572Q1828.7344 1048.9158 1828.7344 1049.4626Q1828.7344 1049.9939 1829.1406 1050.2595Q1829.5625 1050.5251 1830.6406 1050.7751Q1831.7188 1051.0095 1832.3906 1051.3533Q1833.0625 1051.6814 1833.3906 1052.1501Q1833.7188 1052.6189 1833.7188 1053.3064Q1833.7188 1054.4314 1832.8125 1055.1189Q1831.9062 1055.8064 1830.4531 1055.8064Q1829.4375 1055.8064 1828.6562 1055.447Q1827.875 1055.0876 1827.4375 1054.447Q1827.0 1053.7908 1827.0 1053.0408L1828.4375 1053.0408Q1828.4844 1053.7751 1829.0156 1054.197Q1829.5625 1054.6189 1830.4531 1054.6189Q1831.2812 1054.6189 1831.7656 1054.2908Q1832.2656 1053.9626 1832.2656 1053.4001ZM1837.3125 1045.1501L1837.3125 1047.197L1838.8906 1047.197L1838.8906 1048.3064L1837.3125 1048.3064L1837.3125 1053.5564Q1837.3125 1054.0564 1837.5156 1054.322Q1837.7344 1054.572 1838.2344 1054.572Q1838.4844 1054.572 1838.9219 1054.4783L1838.9219 1055.6501Q1838.3594 1055.8064 1837.8125 1055.8064Q1836.8438 1055.8064 1836.3438 1055.2283Q1835.8594 1054.6345 1835.8594 1053.5564L1835.8594 1048.3064L1834.3281 1048.3064L1834.3281 1047.197L1835.8594 1047.197L1835.8594 1045.1501L1837.3125 1045.1501Z" fill-rule="nonzero"/><path fill="#9e9e9e" d="M1804.6562 1077.6501L1797.2031 1077.6501L1797.2031 1076.6033L1801.1406 1072.2283Q1802.0156 1071.2439 1802.3438 1070.6189Q1802.6719 1069.9939 1802.6719 1069.3376Q1802.6719 1068.447 1802.125 1067.8845Q1801.5938 1067.3064 1800.7031 1067.3064Q1799.625 1067.3064 1799.0156 1067.9158Q1798.4219 1068.5251 1798.4219 1069.6189L1796.9844 1069.6189Q1796.9844 1068.0564 1797.9844 1067.0876Q1799.0 1066.1189 1800.7031 1066.1189Q1802.2812 1066.1189 1803.2031 1066.947Q1804.125 1067.7751 1804.125 1069.1658Q1804.125 1070.8376 1801.9844 1073.1658L1798.9375 1076.4626L1804.6562 1076.4626L1804.6562 1077.6501ZM1812.2969 1073.822L1813.875 1073.822L1813.875 1075.0095L1812.2969 1075.0095L1812.2969 1077.6501L1810.8438 1077.6501L1810.8438 1075.0095L1805.6719 1075.0095L1805.6719 1074.1501L1810.7656 1066.2751L1812.2969 1066.2751L1812.2969 1073.822ZM1807.3125 1073.822L1810.8438 1073.822L1810.8438 1068.2439L1810.6719 1068.5564L1807.3125 1073.822ZM1815.375 1076.8845Q1815.375 1076.5095 1815.5938 1076.2595Q1815.8281 1076.0095 1816.2656 1076.0095Q1816.7188 1076.0095 1816.9375 1076.2595Q1817.1719 1076.5095 1817.1719 1076.8845Q1817.1719 1077.2439 1816.9375 1077.4939Q1816.7188 1077.7439 1816.2656 1077.7439Q1815.8281 1077.7439 1815.5938 1077.4939Q1815.375 1077.2439 1815.375 1076.8845ZM1823.9531 1077.6501L1822.5 1077.6501L1822.5 1068.0095L1819.5781 1069.0876L1819.5781 1067.7751L1823.7188 1066.2126L1823.9531 1066.2126L1823.9531 1077.6501ZM1828.0781 1068.4626Q1828.0781 1067.4314 1828.7188 1066.7751Q1829.375 1066.1033 1830.4062 1066.1033Q1831.4375 1066.1033 1832.0781 1066.7751Q1832.7344 1067.447 1832.7344 1068.5095L1832.7344 1069.0564Q1832.7344 1070.0876 1832.0781 1070.7439Q1831.4219 1071.4001 1830.4219 1071.4001Q1829.4062 1071.4001 1828.7344 1070.7439Q1828.0781 1070.0876 1828.0781 1069.0095L1828.0781 1068.4626ZM1829.1562 1069.0564Q1829.1562 1069.6658 1829.5 1070.072Q1829.8438 1070.4626 1830.4219 1070.4626Q1830.9688 1070.4626 1831.3125 1070.0876Q1831.6562 1069.697 1831.6562 1069.0251L1831.6562 1068.4626Q1831.6562 1067.8533 1831.3125 1067.4626Q1830.9844 1067.0564 1830.4062 1067.0564Q1829.8281 1067.0564 1829.4844 1067.4626Q1829.1562 1067.8533 1829.1562 1068.4939L1829.1562 1069.0564ZM1833.6094 1074.8533Q1833.6094 1073.8376 1834.2656 1073.1814Q1834.9219 1072.5095 1835.9375 1072.5095Q1836.9688 1072.5095 1837.625 1073.1658Q1838.2812 1073.822 1838.2812 1074.9158L1838.2812 1075.4626Q1838.2812 1076.4939 1837.625 1077.1658Q1836.9688 1077.822 1835.9531 1077.822Q1834.9375 1077.822 1834.2656 1077.1658Q1833.6094 1076.5095 1833.6094 1075.4158L1833.6094 1074.8533ZM1834.6875 1075.4626Q1834.6875 1076.0876 1835.0312 1076.4783Q1835.375 1076.8689 1835.9531 1076.8689Q1836.5156 1076.8689 1836.8438 1076.4939Q1837.1875 1076.1033 1837.1875 1075.4314L1837.1875 1074.8533Q1837.1875 1074.2439 1836.8438 1073.8533Q1836.5156 1073.4626 1835.9375 1073.4626Q1835.3906 1073.4626 1835.0312 1073.8533Q1834.6875 1074.2283 1834.6875 1074.8845L1834.6875 1075.4626ZM1830.75 1076.7908L1829.9219 1076.2751L1835.4844 1067.3845L1836.2969 1067.9001L1830.75 1076.7908Z" fill-rule="nonzero"/><path stroke="#757575" stroke-width="1.0" stroke-linecap="butt" d="M1839.25 1061.1501L1483.75 1061.1501L1116.2524 1061.1501" fill-rule="nonzero"/><path fill="#9e9e9e" d="M1118.2524 1061.1501C1118.2524 1060.0455 1117.357 1059.1501 1116.2524 1059.1501C1115.148 1059.1501 1114.2524 1060.0455 1114.2524 1061.1501C1114.2524 1062.2548 1115.148 1063.1501 1116.2524 1063.1501C1117.357 1063.1501 1118.2524 1062.2548 1118.2524 1061.1501" fill-rule="nonzero"/></svg>