<svg version="1.1" viewBox="0.0 0.0 1217.0 754.0" fill="none" stroke="none" stroke-linecap="square" stroke-miterlimit="10" width="1217" height="754" xmlns:xlink="http://www.w3.org/1999/xlink" xmlns="http://www.w3.org/2000/svg"><path fill="#ffffff" d="M0 0L1217.0 0L1217.0 754.0L0 754.0L0 0Z" fill-rule="nonzero"/><path fill="#fff0e6" d="M608.3734 2.1245278E-5C608.41565 7.0817596E-6 608.4578 0 608.5 0L608.5 377.0Z" fill-rule="nonzero"/><path fill="#ebf6ee" d="M608.2469 8.498111E-5C608.28906 5.6654073E-5 608.33124 3.5408797E-5 608.3734 2.1245278E-5L608.5 377.0Z" fill-rule="nonzero"/><path fill="#fff8e6" d="M608.0887 2.2440322E-4C608.1414 1.6686395E-4 608.19415 1.203899E-4 608.2469 8.498111E-5L608.5 377.0Z" fill-rule="nonzero"/><path fill="#fdeceb" d="M607.8988 4.793465E-4C607.9621 3.7843146E-4 608.0254 2.9345037E-4 608.0887 2.2440322E-4L608.5 377.0Z" fill-rule="nonzero"/><path fill="#ecf3fe" d="M607.5824 0.0011167044C607.68787 8.5999083E-4 607.79333 6.475382E-4 607.8988 4.793465E-4L608.5 377.0Z" fill-rule="nonzero"/><path fill="#b5e5e8" d="M607.0287 0.0028710966C607.21326 0.0021507507 607.3978 0.001565953 607.5824 0.0011167044L608.5 377.0Z" fill-rule="nonzero"/><path fill="#ffc599" d="M606.4591 0.005524091C606.649 0.0044963555 606.8388 0.0036120238 607.0287 0.0028710966L608.5 377.0Z" fill-rule="nonzero"/><path fill="#aedcba" d="M605.8738 0.009147383C606.0689 0.007788139 606.26404 0.006580374 606.4591 0.005524091L608.5 377.0Z" fill-rule="nonzero"/><path fill="#fde49b" d="M605.22516 0.0142239565C605.44135 0.012345765 605.6576 0.010653573 605.8738 0.009147383L608.5 377.0Z" fill-rule="nonzero"/><path fill="#f7b4ae" d="M604.49744 0.021248067C604.74 0.018672567 604.98254 0.016331196 605.22516 0.0142239565L608.5 377.0Z" fill-rule="nonzero"/><path fill="#b3cefb" d="M602.86804 0.04207018C603.41113 0.033955667 603.9543 0.027014947 604.49744 0.021248067L608.5 377.0Z" fill-rule="nonzero"/><path fill="#7ed1d7" d="M600.92236 0.07616209C601.5709 0.06312434 602.2194 0.051760327 602.86804 0.04207018L608.5 377.0Z" fill-rule="nonzero"/><path fill="#ff994d" d="M597.77496 0.15258524C598.824 0.12273032 599.87317 0.097255714 600.92236 0.07616209L608.5 377.0Z" fill-rule="nonzero"/><path fill="#71c287" d="M593.4269 0.3014466C594.8759 0.24346338 596.3253 0.19384211 597.77496 0.15258524L608.5 377.0Z" fill-rule="nonzero"/><path fill="#fcd04f" d="M583.37946 0.8378559C586.7261 0.61436653 590.0755 0.43554753 593.4269 0.3014466L608.5 377.0Z" fill-rule="nonzero"/><path fill="#f07b72" d="M569.46124 2.026702C574.0929 1.5444949 578.7331 1.1481448 583.37946 0.8378559L608.5 377.0Z" fill-rule="nonzero"/><path fill="#7baaf7" d="M550.7453 4.450145C556.96277 3.486283 563.20337 2.6782157 569.46124 2.026702L608.5 377.0Z" fill-rule="nonzero"/><path fill="#46bdc6" d="M527.53235 8.797288C535.2227 7.10618 542.9642 5.6564217 550.7453 4.450145L608.5 377.0Z" fill-rule="nonzero"/><path fill="#ff6d01" d="M499.9617 15.962004C509.05835 13.227284 518.2551 10.83734 527.53235 8.797288L608.5 377.0Z" fill-rule="nonzero"/><path fill="#34a853" d="M457.28296 31.65611C471.18045 25.570757 485.43262 20.329857 499.9617 15.962004L608.5 377.0Z" fill-rule="nonzero"/><path fill="#fbbc04" d="M262.58902 227.0847C300.46747 139.68488 370.0264 69.863464 457.28296 31.65611L608.5 377.0Z" fill-rule="nonzero"/><path fill="#ea4335" d="M350.6392 652.0214C234.53485 543.16174 199.30008 373.1161 262.58902 227.0847L608.5 377.0Z" fill-rule="nonzero"/><path fill="#4285f4" d="M608.5 0C777.6298 0 926.0615 112.63553 971.58606 275.52325C1017.11053 438.411 948.58527 611.68256 803.9631 699.3712C659.3408 787.0599 474.01935 767.703 350.6392 652.0214L608.5 377.0Z" fill-rule="nonzero"/><path fill="#1a1a1a" d="M3.171875 11.984375L3.171875 17.0L1.484375 17.0L1.484375 4.203125L6.203125 4.203125Q8.3125 4.203125 9.5 5.28125Q10.6875 6.34375 10.6875 8.109375Q10.6875 9.984375 9.515625 10.984375Q8.359375 11.984375 6.1875 11.984375L3.171875 11.984375ZM3.171875 10.609375L6.203125 10.609375Q7.5625 10.609375 8.28125 9.96875Q9.0 9.328125 9.0 8.125Q9.0 6.984375 8.28125 6.3125Q7.5625 5.625 6.296875 5.59375L3.171875 5.59375L3.171875 10.609375ZM18.109375 16.0625Q17.15625 17.171875 15.3125 17.171875Q13.796875 17.171875 13.0 16.296875Q12.203125 15.40625 12.203125 13.671875L12.203125 7.484375L13.828125 7.484375L13.828125 13.640625Q13.828125 15.796875 15.578125 15.796875Q17.4375 15.796875 18.0625 14.40625L18.0625 7.484375L19.6875 7.484375L19.6875 17.0L18.140625 17.0L18.109375 16.0625ZM26.828125 8.953125Q26.453125 8.890625 26.03125 8.890625Q24.421875 8.890625 23.859375 10.25L23.859375 17.0L22.234375 17.0L22.234375 7.484375L23.8125 7.484375L23.84375 8.59375Q24.640625 7.3125 26.109375 7.3125Q26.578125 7.3125 26.828125 7.4375L26.828125 8.953125ZM36.265625 12.34375Q36.265625 14.515625 35.265625 15.84375Q34.28125 17.171875 32.578125 17.171875Q30.84375 17.171875 29.859375 16.078125L29.859375 20.65625L28.234375 20.65625L28.234375 7.484375L29.71875 7.484375L29.796875 8.546875Q30.78125 7.3125 32.5625 7.3125Q34.265625 7.3125 35.265625 8.609375Q36.265625 9.890625 36.265625 12.203125L36.265625 12.34375ZM34.640625 12.171875Q34.640625 10.5625 33.953125 9.625Q33.265625 8.6875 32.078125 8.6875Q30.59375 8.6875 29.859375 10.0L29.859375 14.546875Q30.59375 15.84375 32.09375 15.84375Q33.265625 15.84375 33.953125 14.921875Q34.640625 14.0 34.640625 12.171875ZM44.109375 16.0625Q43.15625 17.171875 41.3125 17.171875Q39.796875 17.171875 39.0 16.296875Q38.203125 15.40625 38.203125 13.671875L38.203125 7.484375L39.828125 7.484375L39.828125 13.640625Q39.828125 15.796875 41.578125 15.796875Q43.4375 15.796875 44.0625 14.40625L44.0625 7.484375L45.6875 7.484375L45.6875 17.0L44.140625 17.0L44.109375 16.0625ZM52.828125 8.953125Q52.453125 8.890625 52.03125 8.890625Q50.421875 8.890625 49.859375 10.25L49.859375 17.0L48.234375 17.0L48.234375 7.484375L49.8125 7.484375L49.84375 8.59375Q50.640625 7.3125 52.109375 7.3125Q52.578125 7.3125 52.828125 7.4375L52.828125 8.953125Z" fill-rule="nonzero"/><path fill="#9e9e9e" d="M6.40625 42.0L4.765625 42.0L4.765625 31.15625L1.5 32.359375L1.5 30.890625L6.15625 29.140625L6.40625 29.140625L6.40625 42.0ZM11.265625 41.140625Q11.265625 40.71875 11.515625 40.4375Q11.765625 40.15625 12.265625 40.15625Q12.765625 40.15625 13.015625 40.4375Q13.28125 40.71875 13.28125 41.140625Q13.28125 41.546875 13.015625 41.828125Q12.765625 42.09375 12.265625 42.09375Q11.765625 42.09375 11.515625 41.828125Q11.265625 41.546875 11.265625 41.140625ZM24.09375 36.546875Q24.09375 39.390625 23.109375 40.78125Q22.140625 42.171875 20.0625 42.171875Q18.015625 42.171875 17.03125 40.8125Q16.046875 39.453125 16.015625 36.765625L16.015625 34.59375Q16.015625 31.765625 16.984375 30.40625Q17.96875 29.03125 20.046875 29.03125Q22.109375 29.03125 23.078125 30.359375Q24.0625 31.671875 24.09375 34.4375L24.09375 36.546875ZM22.46875 34.3125Q22.46875 32.25 21.875 31.3125Q21.296875 30.359375 20.046875 30.359375Q18.796875 30.359375 18.21875 31.3125Q17.65625 32.25 17.640625 34.1875L17.640625 36.796875Q17.640625 38.875 18.234375 39.859375Q18.84375 40.84375 20.0625 40.84375Q21.265625 40.84375 21.84375 39.921875Q22.4375 38.984375 22.46875 36.984375L22.46875 34.3125ZM25.921875 31.65625Q25.921875 30.515625 26.65625 29.765625Q27.390625 29.015625 28.546875 29.015625Q29.71875 29.015625 30.4375 29.765625Q31.15625 30.515625 31.15625 31.71875L31.15625 32.34375Q31.15625 33.5 30.421875 34.234375Q29.6875 34.96875 28.5625 34.96875Q27.421875 34.96875 26.671875 34.234375Q25.921875 33.5 25.921875 32.28125L25.921875 31.65625ZM27.140625 32.34375Q27.140625 33.03125 27.515625 33.46875Q27.90625 33.90625 28.5625 33.90625Q29.1875 33.90625 29.5625 33.484375Q29.953125 33.046875 29.953125 32.3125L29.953125 31.65625Q29.953125 30.984375 29.5625 30.53125Q29.1875 30.078125 28.53125 30.078125Q27.890625 30.078125 27.515625 30.53125Q27.140625 30.984375 27.140625 31.703125L27.140625 32.34375ZM32.15625 38.859375Q32.15625 37.703125 32.890625 36.96875Q33.625 36.21875 34.765625 36.21875Q35.921875 36.21875 36.65625 36.96875Q37.40625 37.703125 37.40625 38.921875L37.40625 39.546875Q37.40625 40.703125 36.671875 41.453125Q35.9375 42.1875 34.796875 42.1875Q33.65625 42.1875 32.90625 41.453125Q32.15625 40.71875 32.15625 39.5L32.15625 38.859375ZM33.375 39.546875Q33.375 40.234375 33.75 40.6875Q34.140625 41.125 34.796875 41.125Q35.421875 41.125 35.796875 40.703125Q36.1875 40.265625 36.1875 39.515625L36.1875 38.859375Q36.1875 38.171875 35.796875 37.734375Q35.421875 37.28125 34.78125 37.28125Q34.15625 37.28125 33.765625 37.71875Q33.375 38.15625 33.375 38.890625L33.375 39.546875ZM28.921875 41.03125L28.0 40.453125L34.25 30.453125L35.171875 31.03125L28.921875 41.03125Z" fill-rule="nonzero"/><path stroke="#757575" stroke-width="1.0" stroke-linecap="butt" d="M0 23.5L225.5 23.5L542.5745 24.96981" fill-rule="nonzero"/><path fill="#9e9e9e" d="M544.5745 24.96981C544.5745 23.86524 543.6791 22.96981 542.5745 22.96981C541.47 22.96981 540.5745 23.86524 540.5745 24.96981C540.5745 26.074379 541.47 26.96981 542.5745 26.96981C543.6791 26.96981 544.5745 26.074379 544.5745 24.96981" fill-rule="nonzero"/><path fill="#1a1a1a" d="M10.90625 59.9375Q10.65625 61.96875 9.390625 63.078125Q8.140625 64.171875 6.046875 64.171875Q3.78125 64.171875 2.40625 62.546875Q1.046875 60.921875 1.046875 58.203125L1.046875 56.96875Q1.046875 55.1875 1.6875 53.84375Q2.328125 52.484375 3.484375 51.765625Q4.65625 51.03125 6.203125 51.03125Q8.234375 51.03125 9.46875 52.171875Q10.703125 53.296875 10.90625 55.3125L9.203125 55.3125Q8.984375 53.78125 8.25 53.109375Q7.515625 52.421875 6.203125 52.421875Q4.578125 52.421875 3.65625 53.625Q2.75 54.8125 2.75 57.015625L2.75 58.25Q2.75 60.328125 3.609375 61.5625Q4.484375 62.796875 6.046875 62.796875Q7.453125 62.796875 8.203125 62.15625Q8.953125 61.515625 9.203125 59.9375L10.90625 59.9375ZM17.828125 55.953125Q17.453125 55.890625 17.03125 55.890625Q15.421875 55.890625 14.859375 57.25L14.859375 64.0L13.234375 64.0L13.234375 54.484375L14.8125 54.484375L14.84375 55.59375Q15.640625 54.3125 17.109375 54.3125Q17.578125 54.3125 17.828125 54.4375L17.828125 55.953125ZM25.109375 64.0Q24.96875 63.71875 24.875 63.0Q23.734375 64.171875 22.171875 64.171875Q20.765625 64.171875 19.859375 63.375Q18.953125 62.578125 18.953125 61.359375Q18.953125 59.875 20.078125 59.0625Q21.21875 58.234375 23.265625 58.234375L24.84375 58.234375L24.84375 57.484375Q24.84375 56.640625 24.328125 56.140625Q23.828125 55.625 22.828125 55.625Q21.96875 55.625 21.375 56.0625Q20.78125 56.5 20.78125 57.125L19.15625 57.125Q19.15625 56.421875 19.65625 55.765625Q20.15625 55.09375 21.015625 54.703125Q21.890625 54.3125 22.9375 54.3125Q24.578125 54.3125 25.5 55.140625Q26.4375 55.953125 26.46875 57.40625L26.46875 61.78125Q26.46875 63.078125 26.8125 63.859375L26.8125 64.0L25.109375 64.0ZM22.40625 62.765625Q23.171875 62.765625 23.859375 62.375Q24.546875 61.96875 24.84375 61.34375L24.84375 59.390625L23.578125 59.390625Q20.578125 59.390625 20.578125 61.140625Q20.578125 61.90625 21.09375 62.34375Q21.609375 62.765625 22.40625 62.765625ZM30.03125 64.0L30.03125 55.75L28.53125 55.75L28.53125 54.484375L30.03125 54.484375L30.03125 53.515625Q30.03125 51.984375 30.84375 51.15625Q31.671875 50.3125 33.15625 50.3125Q33.71875 50.3125 34.28125 50.46875L34.1875 51.78125Q33.78125 51.703125 33.3125 51.703125Q32.515625 51.703125 32.078125 52.171875Q31.65625 52.625 31.65625 53.484375L31.65625 54.484375L33.6875 54.484375L33.6875 55.75L31.65625 55.75L31.65625 64.0L30.03125 64.0ZM37.4375 52.1875L37.4375 54.484375L39.21875 54.484375L39.21875 55.75L37.4375 55.75L37.4375 61.640625Q37.4375 62.21875 37.671875 62.5Q37.90625 62.78125 38.484375 62.78125Q38.765625 62.78125 39.25 62.6875L39.25 64.0Q38.609375 64.171875 38.015625 64.171875Q36.921875 64.171875 36.359375 63.515625Q35.8125 62.859375 35.8125 61.640625L35.8125 55.75L34.078125 55.75L34.078125 54.484375L35.8125 54.484375L35.8125 52.1875L37.4375 52.1875ZM41.484375 64.0L41.484375 51.203125L45.671875 51.203125Q47.75 51.203125 48.796875 52.0625Q49.859375 52.921875 49.859375 54.609375Q49.859375 55.515625 49.34375 56.203125Q48.828125 56.890625 47.953125 57.265625Q48.984375 57.5625 49.59375 58.375Q50.203125 59.1875 50.203125 60.3125Q50.203125 62.03125 49.078125 63.015625Q47.96875 64.0 45.921875 64.0L41.484375 64.0ZM43.171875 58.015625L43.171875 62.625L45.953125 62.625Q47.140625 62.625 47.8125 62.015625Q48.5 61.390625 48.5 60.328125Q48.5 58.015625 45.984375 58.015625L43.171875 58.015625ZM43.171875 56.65625L45.71875 56.65625Q46.828125 56.65625 47.484375 56.109375Q48.15625 55.546875 48.15625 54.609375Q48.15625 53.546875 47.53125 53.078125Q46.921875 52.59375 45.671875 52.59375L43.171875 52.59375L43.171875 56.65625ZM58.109375 63.0625Q57.15625 64.171875 55.3125 64.171875Q53.796875 64.171875 53.0 63.296875Q52.203125 62.40625 52.203125 60.671875L52.203125 54.484375L53.828125 54.484375L53.828125 60.640625Q53.828125 62.796875 55.578125 62.796875Q57.4375 62.796875 58.0625 61.40625L58.0625 54.484375L59.6875 54.484375L59.6875 64.0L58.140625 64.0L58.109375 63.0625ZM64.890625 59.59375L63.859375 60.65625L63.859375 64.0L62.234375 64.0L62.234375 50.5L63.859375 50.5L63.859375 58.671875L64.734375 57.625L67.703125 54.484375L69.671875 54.484375L65.96875 58.46875L70.109375 64.0L68.203125 64.0L64.890625 59.59375ZM73.890625 59.59375L72.859375 60.65625L72.859375 64.0L71.234375 64.0L71.234375 50.5L72.859375 50.5L72.859375 58.671875L73.734375 57.625L76.703125 54.484375L78.671875 54.484375L74.96875 58.46875L79.109375 64.0L77.203125 64.0L73.890625 59.59375ZM82.0 64.0L80.375 64.0L80.375 54.484375L82.0 54.484375L82.0 64.0ZM80.234375 51.96875Q80.234375 51.578125 80.46875 51.3125Q80.71875 51.03125 81.1875 51.03125Q81.671875 51.03125 81.921875 51.3125Q82.171875 51.578125 82.171875 51.96875Q82.171875 52.359375 81.921875 52.625Q81.671875 52.890625 81.1875 52.890625Q80.71875 52.890625 80.46875 52.625Q80.234375 52.359375 80.234375 51.96875ZM86.4375 52.1875L86.4375 54.484375L88.21875 54.484375L88.21875 55.75L86.4375 55.75L86.4375 61.640625Q86.4375 62.21875 86.671875 62.5Q86.90625 62.78125 87.484375 62.78125Q87.765625 62.78125 88.25 62.6875L88.25 64.0Q87.609375 64.171875 87.015625 64.171875Q85.921875 64.171875 85.359375 63.515625Q84.8125 62.859375 84.8125 61.640625L84.8125 55.75L83.078125 55.75L83.078125 54.484375L84.8125 54.484375L84.8125 52.1875L86.4375 52.1875Z" fill-rule="nonzero"/><path fill="#9e9e9e" d="M6.40625 89.0L4.765625 89.0L4.765625 78.15625L1.5 79.359375L1.5 77.890625L6.15625 76.140625L6.40625 76.140625L6.40625 89.0ZM11.265625 88.140625Q11.265625 87.71875 11.515625 87.4375Q11.765625 87.15625 12.265625 87.15625Q12.765625 87.15625 13.015625 87.4375Q13.28125 87.71875 13.28125 88.140625Q13.28125 88.546875 13.015625 88.828125Q12.765625 89.09375 12.265625 89.09375Q11.765625 89.09375 11.515625 88.828125Q11.265625 88.546875 11.265625 88.140625ZM24.453125 89.0L16.0625 89.0L16.0625 87.828125L20.5 82.90625Q21.484375 81.796875 21.84375 81.09375Q22.21875 80.390625 22.21875 79.640625Q22.21875 78.640625 21.609375 78.0Q21.015625 77.359375 20.0 77.359375Q18.78125 77.359375 18.109375 78.0625Q17.4375 78.75 17.4375 79.96875L15.8125 79.96875Q15.8125 78.203125 16.953125 77.125Q18.09375 76.03125 20.0 76.03125Q21.78125 76.03125 22.8125 76.96875Q23.859375 77.90625 23.859375 79.453125Q23.859375 81.34375 21.453125 83.953125L18.03125 87.671875L24.453125 87.671875L24.453125 89.0ZM25.921875 78.65625Q25.921875 77.515625 26.65625 76.765625Q27.390625 76.015625 28.546875 76.015625Q29.71875 76.015625 30.4375 76.765625Q31.15625 77.515625 31.15625 78.71875L31.15625 79.34375Q31.15625 80.5 30.421875 81.234375Q29.6875 81.96875 28.5625 81.96875Q27.421875 81.96875 26.671875 81.234375Q25.921875 80.5 25.921875 79.28125L25.921875 78.65625ZM27.140625 79.34375Q27.140625 80.03125 27.515625 80.46875Q27.90625 80.90625 28.5625 80.90625Q29.1875 80.90625 29.5625 80.484375Q29.953125 80.046875 29.953125 79.3125L29.953125 78.65625Q29.953125 77.984375 29.5625 77.53125Q29.1875 77.078125 28.53125 77.078125Q27.890625 77.078125 27.515625 77.53125Q27.140625 77.984375 27.140625 78.703125L27.140625 79.34375ZM32.15625 85.859375Q32.15625 84.703125 32.890625 83.96875Q33.625 83.21875 34.765625 83.21875Q35.921875 83.21875 36.65625 83.96875Q37.40625 84.703125 37.40625 85.921875L37.40625 86.546875Q37.40625 87.703125 36.671875 88.453125Q35.9375 89.1875 34.796875 89.1875Q33.65625 89.1875 32.90625 88.453125Q32.15625 87.71875 32.15625 86.5L32.15625 85.859375ZM33.375 86.546875Q33.375 87.234375 33.75 87.6875Q34.140625 88.125 34.796875 88.125Q35.421875 88.125 35.796875 87.703125Q36.1875 87.265625 36.1875 86.515625L36.1875 85.859375Q36.1875 85.171875 35.796875 84.734375Q35.421875 84.28125 34.78125 84.28125Q34.15625 84.28125 33.765625 84.71875Q33.375 85.15625 33.375 85.890625L33.375 86.546875ZM28.921875 88.03125L28.0 87.453125L34.25 77.453125L35.171875 78.03125L28.921875 88.03125Z" fill-rule="nonzero"/><path stroke="#757575" stroke-width="1.0" stroke-linecap="butt" d="M0 70.5L225.5 70.5L518.42035 30.363188" fill-rule="nonzero"/><path fill="#9e9e9e" d="M520.42035 30.363188C520.42035 29.25862 519.5249 28.363188 518.42035 28.363188C517.3158 28.363188 516.42035 29.25862 516.42035 30.363188C516.42035 31.467758 517.3158 32.36319 518.42035 32.36319C519.5249 32.36319 520.42035 31.467758 520.42035 30.363188" fill-rule="nonzero"/><path fill="#1a1a1a" d="M4.25 106.96875L4.484375 108.65625L4.859375 107.125L7.390625 98.203125L8.8125 98.203125L11.28125 107.125L11.625 108.671875L11.90625 106.953125L13.890625 98.203125L15.578125 98.203125L12.484375 111.0L10.9375 111.0L8.3125 101.671875L8.109375 100.703125L7.90625 101.671875L5.171875 111.0L3.625 111.0L0.53125 98.203125L2.21875 98.203125L4.25 106.96875ZM23.109375 111.0Q22.96875 110.71875 22.875 110.0Q21.734375 111.171875 20.171875 111.171875Q18.765625 111.171875 17.859375 110.375Q16.953125 109.578125 16.953125 108.359375Q16.953125 106.875 18.078125 106.0625Q19.21875 105.234375 21.265625 105.234375L22.84375 105.234375L22.84375 104.484375Q22.84375 103.640625 22.328125 103.140625Q21.828125 102.625 20.828125 102.625Q19.96875 102.625 19.375 103.0625Q18.78125 103.5 18.78125 104.125L17.15625 104.125Q17.15625 103.421875 17.65625 102.765625Q18.15625 102.09375 19.015625 101.703125Q19.890625 101.3125 20.9375 101.3125Q22.578125 101.3125 23.5 102.140625Q24.4375 102.953125 24.46875 104.40625L24.46875 108.78125Q24.46875 110.078125 24.8125 110.859375L24.8125 111.0L23.109375 111.0ZM20.40625 109.765625Q21.171875 109.765625 21.859375 109.375Q22.546875 108.96875 22.84375 108.34375L22.84375 106.390625L21.578125 106.390625Q18.578125 106.390625 18.578125 108.140625Q18.578125 108.90625 19.09375 109.34375Q19.609375 109.765625 20.40625 109.765625ZM29.4375 99.1875L29.4375 101.484375L31.21875 101.484375L31.21875 102.75L29.4375 102.75L29.4375 108.640625Q29.4375 109.21875 29.671875 109.5Q29.90625 109.78125 30.484375 109.78125Q30.765625 109.78125 31.25 109.6875L31.25 111.0Q30.609375 111.171875 30.015625 111.171875Q28.921875 111.171875 28.359375 110.515625Q27.8125 109.859375 27.8125 108.640625L27.8125 102.75L26.078125 102.75L26.078125 101.484375L27.8125 101.484375L27.8125 99.1875L29.4375 99.1875ZM37.171875 111.171875Q35.25 111.171875 34.03125 109.90625Q32.8125 108.640625 32.8125 106.515625L32.8125 106.203125Q32.8125 104.796875 33.359375 103.6875Q33.90625 102.578125 34.875 101.953125Q35.84375 101.3125 36.96875 101.3125Q38.828125 101.3125 39.859375 102.53125Q40.890625 103.75 40.890625 106.03125L40.890625 106.703125L34.4375 106.703125Q34.484375 108.109375 35.265625 108.984375Q36.046875 109.84375 37.265625 109.84375Q38.125 109.84375 38.71875 109.5Q39.328125 109.140625 39.765625 108.5625L40.765625 109.34375Q39.5625 111.171875 37.171875 111.171875ZM36.96875 102.65625Q35.984375 102.65625 35.3125 103.375Q34.65625 104.078125 34.5 105.375L39.265625 105.375L39.265625 105.25Q39.1875 104.015625 38.59375 103.34375Q38.0 102.65625 36.96875 102.65625ZM47.828125 102.953125Q47.453125 102.890625 47.03125 102.890625Q45.421875 102.890625 44.859375 104.25L44.859375 111.0L43.234375 111.0L43.234375 101.484375L44.8125 101.484375L44.84375 102.59375Q45.640625 101.3125 47.109375 101.3125Q47.578125 101.3125 47.828125 101.4375L47.828125 102.953125ZM50.03125 111.0L50.03125 102.75L48.53125 102.75L48.53125 101.484375L50.03125 101.484375L50.03125 100.515625Q50.03125 98.984375 50.84375 98.15625Q51.671875 97.3125 53.15625 97.3125Q53.71875 97.3125 54.28125 97.46875L54.1875 98.78125Q53.78125 98.703125 53.3125 98.703125Q52.515625 98.703125 52.078125 99.171875Q51.65625 99.625 51.65625 100.484375L51.65625 101.484375L53.6875 101.484375L53.6875 102.75L51.65625 102.75L51.65625 111.0L50.03125 111.0ZM61.109375 111.0Q60.96875 110.71875 60.875 110.0Q59.734375 111.171875 58.171875 111.171875Q56.765625 111.171875 55.859375 110.375Q54.953125 109.578125 54.953125 108.359375Q54.953125 106.875 56.078125 106.0625Q57.21875 105.234375 59.265625 105.234375L60.84375 105.234375L60.84375 104.484375Q60.84375 103.640625 60.328125 103.140625Q59.828125 102.625 58.828125 102.625Q57.96875 102.625 57.375 103.0625Q56.78125 103.5 56.78125 104.125L55.15625 104.125Q55.15625 103.421875 55.65625 102.765625Q56.15625 102.09375 57.015625 101.703125Q57.890625 101.3125 58.9375 101.3125Q60.578125 101.3125 61.5 102.140625Q62.4375 102.953125 62.46875 104.40625L62.46875 108.78125Q62.46875 110.078125 62.8125 110.859375L62.8125 111.0L61.109375 111.0ZM58.40625 109.765625Q59.171875 109.765625 59.859375 109.375Q60.546875 108.96875 60.84375 108.34375L60.84375 106.390625L59.578125 106.390625Q56.578125 106.390625 56.578125 108.140625Q56.578125 108.90625 57.09375 109.34375Q57.609375 109.765625 58.40625 109.765625ZM67.0 111.0L65.375 111.0L65.375 97.5L67.0 97.5L67.0 111.0ZM71.0 111.0L69.375 111.0L69.375 97.5L71.0 97.5L71.0 111.0Z" fill-rule="nonzero"/><path fill="#9e9e9e" d="M6.40625 136.0L4.765625 136.0L4.765625 125.15625L1.5 126.359375L1.5 124.890625L6.15625 123.140625L6.40625 123.140625L6.40625 136.0ZM11.265625 135.14062Q11.265625 134.71875 11.515625 134.4375Q11.765625 134.15625 12.265625 134.15625Q12.765625 134.15625 13.015625 134.4375Q13.28125 134.71875 13.28125 135.14062Q13.28125 135.54688 13.015625 135.82812Q12.765625 136.09375 12.265625 136.09375Q11.765625 136.09375 11.515625 135.82812Q11.265625 135.54688 11.265625 135.14062ZM22.296875 130.375Q21.78125 130.98438 21.078125 131.35938Q20.375 131.71875 19.53125 131.71875Q18.421875 131.71875 17.59375 131.17188Q16.78125 130.625 16.328125 129.64062Q15.875 128.65625 15.875 127.453125Q15.875 126.171875 16.359375 125.140625Q16.859375 124.109375 17.75 123.578125Q18.640625 123.03125 19.84375 123.03125Q21.734375 123.03125 22.828125 124.453125Q23.9375 125.859375 23.9375 128.3125L23.9375 128.79688Q23.9375 132.53125 22.453125 134.25Q20.984375 135.96875 18.0 136.01562L17.6875 136.01562L17.6875 134.64062L18.03125 134.64062Q20.03125 134.60938 21.109375 133.59375Q22.203125 132.57812 22.296875 130.375ZM19.796875 130.375Q20.609375 130.375 21.296875 129.875Q21.984375 129.375 22.296875 128.64062L22.296875 127.984375Q22.296875 126.390625 21.609375 125.390625Q20.921875 124.375 19.859375 124.375Q18.78125 124.375 18.125 125.203125Q17.484375 126.03125 17.484375 127.375Q17.484375 128.67188 18.109375 129.53125Q18.734375 130.375 19.796875 130.375ZM25.921875 125.65625Q25.921875 124.515625 26.65625 123.765625Q27.390625 123.015625 28.546875 123.015625Q29.71875 123.015625 30.4375 123.765625Q31.15625 124.515625 31.15625 125.71875L31.15625 126.34375Q31.15625 127.5 30.421875 128.23438Q29.6875 128.96875 28.5625 128.96875Q27.421875 128.96875 26.671875 128.23438Q25.921875 127.5 25.921875 126.28125L25.921875 125.65625ZM27.140625 126.34375Q27.140625 127.03125 27.515625 127.46875Q27.90625 127.90625 28.5625 127.90625Q29.1875 127.90625 29.5625 127.484375Q29.953125 127.046875 29.953125 126.3125L29.953125 125.65625Q29.953125 124.984375 29.5625 124.53125Q29.1875 124.078125 28.53125 124.078125Q27.890625 124.078125 27.515625 124.53125Q27.140625 124.984375 27.140625 125.703125L27.140625 126.34375ZM32.15625 132.85938Q32.15625 131.70312 32.890625 130.96875Q33.625 130.21875 34.765625 130.21875Q35.921875 130.21875 36.65625 130.96875Q37.40625 131.70312 37.40625 132.92188L37.40625 133.54688Q37.40625 134.70312 36.671875 135.45312Q35.9375 136.1875 34.796875 136.1875Q33.65625 136.1875 32.90625 135.45312Q32.15625 134.71875 32.15625 133.5L32.15625 132.85938ZM33.375 133.54688Q33.375 134.23438 33.75 134.6875Q34.140625 135.125 34.796875 135.125Q35.421875 135.125 35.796875 134.70312Q36.1875 134.26562 36.1875 133.51562L36.1875 132.85938Q36.1875 132.17188 35.796875 131.73438Q35.421875 131.28125 34.78125 131.28125Q34.15625 131.28125 33.765625 131.71875Q33.375 132.15625 33.375 132.89062L33.375 133.54688ZM28.921875 135.03125L28.0 134.45312L34.25 124.453125L35.171875 125.03125L28.921875 135.03125Z" fill-rule="nonzero"/><path stroke="#757575" stroke-width="1.0" stroke-linecap="butt" d="M0 117.5L225.5 117.5L484.8912 40.856747" fill-rule="nonzero"/><path fill="#9e9e9e" d="M486.8912 40.856747C486.8912 39.752174 485.99576 38.856747 484.8912 38.856747C483.78662 38.856747 482.8912 39.752174 482.8912 40.856747C482.8912 41.961315 483.78662 42.856747 484.8912 42.856747C485.99576 42.856747 486.8912 41.961315 486.8912 40.856747" fill-rule="nonzero"/><path fill="#1a1a1a" d="M5.25 152.29688Q3.078125 151.67188 2.09375 150.76562Q1.109375 149.85938 1.109375 148.51562Q1.109375 147.0 2.3125 146.01562Q3.53125 145.03125 5.453125 145.03125Q6.78125 145.03125 7.8125 145.54688Q8.84375 146.04688 9.40625 146.95312Q9.96875 147.84375 9.96875 148.90625L8.28125 148.90625Q8.28125 147.75 7.53125 147.09375Q6.796875 146.42188 5.453125 146.42188Q4.203125 146.42188 3.5 146.96875Q2.8125 147.51562 2.8125 148.48438Q2.8125 149.26562 3.46875 149.8125Q4.140625 150.35938 5.734375 150.8125Q7.328125 151.25 8.21875 151.79688Q9.125 152.32812 9.5625 153.04688Q10.0 153.76562 10.0 154.75Q10.0 156.29688 8.78125 157.23438Q7.578125 158.17188 5.546875 158.17188Q4.234375 158.17188 3.078125 157.67188Q1.9375 157.17188 1.3125 156.29688Q0.703125 155.40625 0.703125 154.29688L2.40625 154.29688Q2.40625 155.45312 3.25 156.125Q4.109375 156.79688 5.546875 156.79688Q6.875 156.79688 7.59375 156.25Q8.3125 155.70312 8.3125 154.76562Q8.3125 153.82812 7.640625 153.3125Q6.984375 152.79688 5.25 152.29688ZM20.265625 153.34375Q20.265625 155.51562 19.265625 156.84375Q18.28125 158.17188 16.578125 158.17188Q14.84375 158.17188 13.859375 157.07812L13.859375 161.65625L12.234375 161.65625L12.234375 148.48438L13.71875 148.48438L13.796875 149.54688Q14.78125 148.3125 16.5625 148.3125Q18.265625 148.3125 19.265625 149.60938Q20.265625 150.89062 20.265625 153.20312L20.265625 153.34375ZM18.640625 153.17188Q18.640625 151.5625 17.953125 150.625Q17.265625 149.6875 16.078125 149.6875Q14.59375 149.6875 13.859375 151.0L13.859375 155.54688Q14.59375 156.84375 16.09375 156.84375Q17.265625 156.84375 17.953125 155.92188Q18.640625 155.0 18.640625 153.17188ZM24.0 158.0L22.375 158.0L22.375 148.48438L24.0 148.48438L24.0 158.0ZM22.234375 145.96875Q22.234375 145.57812 22.46875 145.3125Q22.71875 145.03125 23.1875 145.03125Q23.671875 145.03125 23.921875 145.3125Q24.171875 145.57812 24.171875 145.96875Q24.171875 146.35938 23.921875 146.625Q23.671875 146.89062 23.1875 146.89062Q22.71875 146.89062 22.46875 146.625Q22.234375 146.35938 22.234375 145.96875ZM25.84375 153.17188Q25.84375 150.9375 26.875 149.625Q27.90625 148.3125 29.59375 148.3125Q31.34375 148.3125 32.3125 149.54688L32.390625 148.48438L33.875 148.48438L33.875 157.76562Q33.875 159.625 32.78125 160.6875Q31.6875 161.75 29.84375 161.75Q28.8125 161.75 27.828125 161.29688Q26.84375 160.85938 26.328125 160.09375L27.171875 159.125Q28.21875 160.42188 29.734375 160.42188Q30.921875 160.42188 31.578125 159.75Q32.25 159.07812 32.25 157.875L32.25 157.04688Q31.265625 158.17188 29.578125 158.17188Q27.90625 158.17188 26.875 156.82812Q25.84375 155.48438 25.84375 153.17188ZM27.484375 153.34375Q27.484375 154.95312 28.140625 155.875Q28.796875 156.79688 29.984375 156.79688Q31.515625 156.79688 32.25 155.39062L32.25 151.0625Q31.5 149.6875 30.0 149.6875Q28.8125 149.6875 28.140625 150.625Q27.484375 151.54688 27.484375 153.34375ZM35.796875 153.15625Q35.796875 151.76562 36.34375 150.65625Q36.90625 149.53125 37.875 148.92188Q38.859375 148.3125 40.109375 148.3125Q42.0625 148.3125 43.25 149.65625Q44.453125 151.0 44.453125 153.23438L44.453125 153.34375Q44.453125 154.73438 43.921875 155.84375Q43.390625 156.9375 42.40625 157.5625Q41.421875 158.17188 40.140625 158.17188Q38.203125 158.17188 37.0 156.82812Q35.796875 155.48438 35.796875 153.26562L35.796875 153.15625ZM37.4375 153.34375Q37.4375 154.9375 38.171875 155.89062Q38.90625 156.84375 40.140625 156.84375Q41.375 156.84375 42.09375 155.875Q42.828125 154.90625 42.828125 153.15625Q42.828125 151.59375 42.078125 150.625Q41.34375 149.65625 40.109375 149.65625Q38.90625 149.65625 38.171875 150.60938Q37.4375 151.5625 37.4375 153.34375ZM48.4375 146.1875L48.4375 148.48438L50.21875 148.48438L50.21875 149.75L48.4375 149.75L48.4375 155.64062Q48.4375 156.21875 48.671875 156.5Q48.90625 156.78125 49.484375 156.78125Q49.765625 156.78125 50.25 156.6875L50.25 158.0Q49.609375 158.17188 49.015625 158.17188Q47.921875 158.17188 47.359375 157.51562Q46.8125 156.85938 46.8125 155.64062L46.8125 149.75L45.078125 149.75L45.078125 148.48438L46.8125 148.48438L46.8125 146.1875L48.4375 146.1875Z" fill-rule="nonzero"/><path fill="#9e9e9e" d="M6.40625 183.0L4.765625 183.0L4.765625 172.15625L1.5 173.35938L1.5 171.89062L6.15625 170.14062L6.40625 170.14062L6.40625 183.0ZM16.40625 183.0L14.765625 183.0L14.765625 172.15625L11.5 173.35938L11.5 171.89062L16.15625 170.14062L16.40625 170.14062L16.40625 183.0ZM21.265625 182.14062Q21.265625 181.71875 21.515625 181.4375Q21.765625 181.15625 22.265625 181.15625Q22.765625 181.15625 23.015625 181.4375Q23.28125 181.71875 23.28125 182.14062Q23.28125 182.54688 23.015625 182.82812Q22.765625 183.09375 22.265625 183.09375Q21.765625 183.09375 21.515625 182.82812Q21.265625 182.54688 21.265625 182.14062ZM32.296875 177.375Q31.78125 177.98438 31.078125 178.35938Q30.375 178.71875 29.53125 178.71875Q28.421875 178.71875 27.59375 178.17188Q26.78125 177.625 26.328125 176.64062Q25.875 175.65625 25.875 174.45312Q25.875 173.17188 26.359375 172.14062Q26.859375 171.10938 27.75 170.57812Q28.640625 170.03125 29.84375 170.03125Q31.734375 170.03125 32.828125 171.45312Q33.9375 172.85938 33.9375 175.3125L33.9375 175.79688Q33.9375 179.53125 32.453125 181.25Q30.984375 182.96875 28.0 183.01562L27.6875 183.01562L27.6875 181.64062L28.03125 181.64062Q30.03125 181.60938 31.109375 180.59375Q32.203125 179.57812 32.296875 177.375ZM29.796875 177.375Q30.609375 177.375 31.296875 176.875Q31.984375 176.375 32.296875 175.64062L32.296875 174.98438Q32.296875 173.39062 31.609375 172.39062Q30.921875 171.375 29.859375 171.375Q28.78125 171.375 28.125 172.20312Q27.484375 173.03125 27.484375 174.375Q27.484375 175.67188 28.109375 176.53125Q28.734375 177.375 29.796875 177.375ZM35.921875 172.65625Q35.921875 171.51562 36.65625 170.76562Q37.390625 170.01562 38.546875 170.01562Q39.71875 170.01562 40.4375 170.76562Q41.15625 171.51562 41.15625 172.71875L41.15625 173.34375Q41.15625 174.5 40.421875 175.23438Q39.6875 175.96875 38.5625 175.96875Q37.421875 175.96875 36.671875 175.23438Q35.921875 174.5 35.921875 173.28125L35.921875 172.65625ZM37.140625 173.34375Q37.140625 174.03125 37.515625 174.46875Q37.90625 174.90625 38.5625 174.90625Q39.1875 174.90625 39.5625 174.48438Q39.953125 174.04688 39.953125 173.3125L39.953125 172.65625Q39.953125 171.98438 39.5625 171.53125Q39.1875 171.07812 38.53125 171.07812Q37.890625 171.07812 37.515625 171.53125Q37.140625 171.98438 37.140625 172.70312L37.140625 173.34375ZM42.15625 179.85938Q42.15625 178.70312 42.890625 177.96875Q43.625 177.21875 44.765625 177.21875Q45.921875 177.21875 46.65625 177.96875Q47.40625 178.70312 47.40625 179.92188L47.40625 180.54688Q47.40625 181.70312 46.671875 182.45312Q45.9375 183.1875 44.796875 183.1875Q43.65625 183.1875 42.90625 182.45312Q42.15625 181.71875 42.15625 180.5L42.15625 179.85938ZM43.375 180.54688Q43.375 181.23438 43.75 181.6875Q44.140625 182.125 44.796875 182.125Q45.421875 182.125 45.796875 181.70312Q46.1875 181.26562 46.1875 180.51562L46.1875 179.85938Q46.1875 179.17188 45.796875 178.73438Q45.421875 178.28125 44.78125 178.28125Q44.15625 178.28125 43.765625 178.71875Q43.375 179.15625 43.375 179.89062L43.375 180.54688ZM38.921875 182.03125L38.0 181.45312L44.25 171.45312L45.171875 172.03125L38.921875 182.03125Z" fill-rule="nonzero"/><path stroke="#757575" stroke-width="1.0" stroke-linecap="butt" d="M0 164.5L225.5 164.5L354.77325 124.227066" fill-rule="nonzero"/><path fill="#9e9e9e" d="M356.77325 124.227066C356.77325 123.1225 355.8778 122.227066 354.77325 122.227066C353.66867 122.227066 352.77325 123.1225 352.77325 124.227066C352.77325 125.33164 353.66867 126.227066 354.77325 126.227066C355.8778 126.227066 356.77325 125.33164 356.77325 124.227066" fill-rule="nonzero"/><path fill="#1a1a1a" d="M3.171875 438.1522L3.171875 443.16782L1.484375 443.16782L1.484375 430.37094L6.203125 430.37094Q8.3125 430.37094 9.5 431.44907Q10.6875 432.51157 10.6875 434.2772Q10.6875 436.1522 9.515625 437.1522Q8.359375 438.1522 6.1875 438.1522L3.171875 438.1522ZM3.171875 436.7772L6.203125 436.7772Q7.5625 436.7772 8.28125 436.13657Q9.0 435.49594 9.0 434.29282Q9.0 433.1522 8.28125 432.48032Q7.5625 431.79282 6.296875 431.76157L3.171875 431.76157L3.171875 436.7772ZM18.109375 443.16782Q17.96875 442.88657 17.875 442.16782Q16.734375 443.3397 15.171875 443.3397Q13.765625 443.3397 12.859375 442.54282Q11.953125 441.74594 11.953125 440.5272Q11.953125 439.04282 13.078125 438.23032Q14.21875 437.4022 16.265625 437.4022L17.84375 437.4022L17.84375 436.6522Q17.84375 435.80844 17.328125 435.30844Q16.828125 434.79282 15.828125 434.79282Q14.96875 434.79282 14.375 435.23032Q13.78125 435.66782 13.78125 436.29282L12.15625 436.29282Q12.15625 435.5897 12.65625 434.93344Q13.15625 434.26157 14.015625 433.87094Q14.890625 433.48032 15.9375 433.48032Q17.578125 433.48032 18.5 434.30844Q19.4375 435.12094 19.46875 436.57407L19.46875 440.94907Q19.46875 442.24594 19.8125 443.0272L19.8125 443.16782L18.109375 443.16782ZM15.40625 441.93344Q16.171875 441.93344 16.859375 441.54282Q17.546875 441.13657 17.84375 440.51157L17.84375 438.55844L16.578125 438.55844Q13.578125 438.55844 13.578125 440.30844Q13.578125 441.07407 14.09375 441.51157Q14.609375 441.93344 15.40625 441.93344ZM30.265625 438.51157Q30.265625 440.68344 29.265625 442.01157Q28.28125 443.3397 26.578125 443.3397Q24.84375 443.3397 23.859375 442.24594L23.859375 446.82407L22.234375 446.82407L22.234375 433.6522L23.71875 433.6522L23.796875 434.7147Q24.78125 433.48032 26.5625 433.48032Q28.265625 433.48032 29.265625 434.7772Q30.265625 436.05844 30.265625 438.37094L30.265625 438.51157ZM28.640625 438.3397Q28.640625 436.73032 27.953125 435.79282Q27.265625 434.85532 26.078125 434.85532Q24.59375 434.85532 23.859375 436.16782L23.859375 440.7147Q24.59375 442.01157 26.09375 442.01157Q27.265625 442.01157 27.953125 441.0897Q28.640625 440.16782 28.640625 438.3397ZM36.171875 443.3397Q34.25 443.3397 33.03125 442.07407Q31.8125 440.80844 31.8125 438.68344L31.8125 438.37094Q31.8125 436.9647 32.359375 435.85532Q32.90625 434.74594 33.875 434.12094Q34.84375 433.48032 35.96875 433.48032Q37.828125 433.48032 38.859375 434.69907Q39.890625 435.91782 39.890625 438.19907L39.890625 438.87094L33.4375 438.87094Q33.484375 440.2772 34.265625 441.1522Q35.046875 442.01157 36.265625 442.01157Q37.125 442.01157 37.71875 441.66782Q38.328125 441.30844 38.765625 440.73032L39.765625 441.51157Q38.5625 443.3397 36.171875 443.3397ZM35.96875 434.82407Q34.984375 434.82407 34.3125 435.54282Q33.65625 436.24594 33.5 437.54282L38.265625 437.54282L38.265625 437.41782Q38.1875 436.18344 37.59375 435.51157Q37.0 434.82407 35.96875 434.82407ZM46.828125 435.12094Q46.453125 435.05844 46.03125 435.05844Q44.421875 435.05844 43.859375 436.41782L43.859375 443.16782L42.234375 443.16782L42.234375 433.6522L43.8125 433.6522L43.84375 434.76157Q44.640625 433.48032 46.109375 433.48032Q46.578125 433.48032 46.828125 433.60532L46.828125 435.12094Z" fill-rule="nonzero"/><path fill="#9e9e9e" d="M6.40625 468.16782L4.765625 468.16782L4.765625 457.32407L1.5 458.5272L1.5 457.05844L6.15625 455.30844L6.40625 455.30844L6.40625 468.16782ZM17.296875 462.54282Q16.78125 463.1522 16.078125 463.5272Q15.375 463.88657 14.53125 463.88657Q13.421875 463.88657 12.59375 463.3397Q11.78125 462.79282 11.328125 461.80844Q10.875 460.82407 10.875 459.62094Q10.875 458.3397 11.359375 457.30844Q11.859375 456.2772 12.75 455.74594Q13.640625 455.19907 14.84375 455.19907Q16.734375 455.19907 17.828125 456.62094Q18.9375 458.0272 18.9375 460.48032L18.9375 460.9647Q18.9375 464.69907 17.453125 466.41782Q15.984375 468.13657 13.0 468.18344L12.6875 468.18344L12.6875 466.80844L13.03125 466.80844Q15.03125 466.7772 16.109375 465.76157Q17.203125 464.74594 17.296875 462.54282ZM14.796875 462.54282Q15.609375 462.54282 16.296875 462.04282Q16.984375 461.54282 17.296875 460.80844L17.296875 460.1522Q17.296875 458.55844 16.609375 457.55844Q15.921875 456.54282 14.859375 456.54282Q13.78125 456.54282 13.125 457.37094Q12.484375 458.19907 12.484375 459.54282Q12.484375 460.8397 13.109375 461.69907Q13.734375 462.54282 14.796875 462.54282ZM21.265625 467.30844Q21.265625 466.88657 21.515625 466.60532Q21.765625 466.32407 22.265625 466.32407Q22.765625 466.32407 23.015625 466.60532Q23.28125 466.88657 23.28125 467.30844Q23.28125 467.7147 23.015625 467.99594Q22.765625 468.26157 22.265625 468.26157Q21.765625 468.26157 21.515625 467.99594Q21.265625 467.7147 21.265625 467.30844ZM26.8125 461.74594L27.46875 455.37094L34.015625 455.37094L34.015625 456.87094L28.84375 456.87094L28.453125 460.35532Q29.390625 459.80844 30.59375 459.80844Q32.34375 459.80844 33.359375 460.9647Q34.390625 462.12094 34.390625 464.0897Q34.390625 466.07407 33.328125 467.2147Q32.265625 468.3397 30.34375 468.3397Q28.640625 468.3397 27.5625 467.4022Q26.5 466.4647 26.359375 464.80844L27.890625 464.80844Q28.046875 465.9022 28.671875 466.4647Q29.3125 467.01157 30.34375 467.01157Q31.484375 467.01157 32.125 466.24594Q32.765625 465.4647 32.765625 464.10532Q32.765625 462.82407 32.0625 462.04282Q31.375 461.26157 30.21875 461.26157Q29.15625 461.26157 28.546875 461.73032L28.109375 462.0897L26.8125 461.74594ZM35.921875 457.82407Q35.921875 456.68344 36.65625 455.93344Q37.390625 455.18344 38.546875 455.18344Q39.71875 455.18344 40.4375 455.93344Q41.15625 456.68344 41.15625 457.88657L41.15625 458.51157Q41.15625 459.66782 40.421875 460.4022Q39.6875 461.13657 38.5625 461.13657Q37.421875 461.13657 36.671875 460.4022Q35.921875 459.66782 35.921875 458.44907L35.921875 457.82407ZM37.140625 458.51157Q37.140625 459.19907 37.515625 459.63657Q37.90625 460.07407 38.5625 460.07407Q39.1875 460.07407 39.5625 459.6522Q39.953125 459.2147 39.953125 458.48032L39.953125 457.82407Q39.953125 457.1522 39.5625 456.69907Q39.1875 456.24594 38.53125 456.24594Q37.890625 456.24594 37.515625 456.69907Q37.140625 457.1522 37.140625 457.87094L37.140625 458.51157ZM42.15625 465.0272Q42.15625 463.87094 42.890625 463.13657Q43.625 462.38657 44.765625 462.38657Q45.921875 462.38657 46.65625 463.13657Q47.40625 463.87094 47.40625 465.0897L47.40625 465.7147Q47.40625 466.87094 46.671875 467.62094Q45.9375 468.35532 44.796875 468.35532Q43.65625 468.35532 42.90625 467.62094Q42.15625 466.88657 42.15625 465.66782L42.15625 465.0272ZM43.375 465.7147Q43.375 466.4022 43.75 466.85532Q44.140625 467.29282 44.796875 467.29282Q45.421875 467.29282 45.796875 466.87094Q46.1875 466.43344 46.1875 465.68344L46.1875 465.0272Q46.1875 464.3397 45.796875 463.9022Q45.421875 463.44907 44.78125 463.44907Q44.15625 463.44907 43.765625 463.88657Q43.375 464.32407 43.375 465.05844L43.375 465.7147ZM38.921875 467.19907L38.0 466.62094L44.25 456.62094L45.171875 457.19907L38.921875 467.19907Z" fill-rule="nonzero"/><path stroke="#757575" stroke-width="1.0" stroke-linecap="butt" d="M0 449.66782L225.5 449.66782L257.79953 449.66782" fill-rule="nonzero"/><path fill="#9e9e9e" d="M259.79953 449.66782C259.79953 448.56326 258.9041 447.66782 257.79953 447.66782C256.69498 447.66782 255.79955 448.56326 255.79955 449.66782C255.79955 450.7724 256.69498 451.66782 257.79953 451.66782C258.9041 451.66782 259.79953 450.7724 259.79953 449.66782" fill-rule="nonzero"/><path fill="#1a1a1a" d="M1169.7188 499.98016L1173.375 489.41766L1175.2188 489.41766L1170.4844 502.21454L1168.9844 502.21454L1164.25 489.41766L1166.0781 489.41766L1169.7188 499.98016ZM1182.1094 502.21454Q1181.9688 501.9333 1181.875 501.21454Q1180.7344 502.3864 1179.1719 502.3864Q1177.7656 502.3864 1176.8594 501.58954Q1175.9531 500.79266 1175.9531 499.5739Q1175.9531 498.08954 1177.0781 497.27704Q1178.2188 496.4489 1180.2656 496.4489L1181.8438 496.4489L1181.8438 495.6989Q1181.8438 494.85516 1181.3281 494.35516Q1180.8281 493.83954 1179.8281 493.83954Q1178.9688 493.83954 1178.375 494.27704Q1177.7812 494.71454 1177.7812 495.33954L1176.1562 495.33954Q1176.1562 494.6364 1176.6562 493.98016Q1177.1562 493.3083 1178.0156 492.91766Q1178.8906 492.52704 1179.9375 492.52704Q1181.5781 492.52704 1182.5 493.35516Q1183.4375 494.16766 1183.4688 495.6208L1183.4688 499.9958Q1183.4688 501.29266 1183.8125 502.0739L1183.8125 502.21454L1182.1094 502.21454ZM1179.4062 500.98016Q1180.1719 500.98016 1180.8594 500.58954Q1181.5469 500.1833 1181.8438 499.5583L1181.8438 497.60516L1180.5781 497.60516Q1177.5781 497.60516 1177.5781 499.35516Q1177.5781 500.1208 1178.0938 500.5583Q1178.6094 500.98016 1179.4062 500.98016ZM1187.7656 492.6989L1187.8281 493.90204Q1188.9062 492.52704 1190.6719 492.52704Q1193.6875 492.52704 1193.7031 495.9333L1193.7031 502.21454L1192.0781 502.21454L1192.0781 495.91766Q1192.0781 494.8864 1191.6094 494.40204Q1191.1562 493.90204 1190.1719 493.90204Q1189.3906 493.90204 1188.7812 494.3239Q1188.1875 494.7458 1187.8594 495.4333L1187.8594 502.21454L1186.2344 502.21454L1186.2344 492.6989L1187.7656 492.6989ZM1198.0 502.21454L1196.375 502.21454L1196.375 492.6989L1198.0 492.6989L1198.0 502.21454ZM1196.2344 490.1833Q1196.2344 489.79266 1196.4688 489.52704Q1196.7188 489.2458 1197.1875 489.2458Q1197.6719 489.2458 1197.9219 489.52704Q1198.1719 489.79266 1198.1719 490.1833Q1198.1719 490.5739 1197.9219 490.83954Q1197.6719 491.10516 1197.1875 491.10516Q1196.7188 491.10516 1196.4688 490.83954Q1196.2344 490.5739 1196.2344 490.1833ZM1202.0 502.21454L1200.375 502.21454L1200.375 488.71454L1202.0 488.71454L1202.0 502.21454ZM1206.0 502.21454L1204.375 502.21454L1204.375 488.71454L1206.0 488.71454L1206.0 502.21454ZM1214.1094 502.21454Q1213.9688 501.9333 1213.875 501.21454Q1212.7344 502.3864 1211.1719 502.3864Q1209.7656 502.3864 1208.8594 501.58954Q1207.9531 500.79266 1207.9531 499.5739Q1207.9531 498.08954 1209.0781 497.27704Q1210.2188 496.4489 1212.2656 496.4489L1213.8438 496.4489L1213.8438 495.6989Q1213.8438 494.85516 1213.3281 494.35516Q1212.8281 493.83954 1211.8281 493.83954Q1210.9688 493.83954 1210.375 494.27704Q1209.7812 494.71454 1209.7812 495.33954L1208.1562 495.33954Q1208.1562 494.6364 1208.6562 493.98016Q1209.1562 493.3083 1210.0156 492.91766Q1210.8906 492.52704 1211.9375 492.52704Q1213.5781 492.52704 1214.5 493.35516Q1215.4375 494.16766 1215.4688 495.6208L1215.4688 499.9958Q1215.4688 501.29266 1215.8125 502.0739L1215.8125 502.21454L1214.1094 502.21454ZM1211.4062 500.98016Q1212.1719 500.98016 1212.8594 500.58954Q1213.5469 500.1833 1213.8438 499.5583L1213.8438 497.60516L1212.5781 497.60516Q1209.5781 497.60516 1209.5781 499.35516Q1209.5781 500.1208 1210.0938 500.5583Q1210.6094 500.98016 1211.4062 500.98016Z" fill-rule="nonzero"/><path fill="#9e9e9e" d="M1176.4375 514.40204L1176.4375 515.79266L1176.1406 515.79266Q1174.25 515.8239 1173.125 516.91766Q1172.0 517.9958 1171.8281 519.98016Q1172.8281 518.8239 1174.5781 518.8239Q1176.25 518.8239 1177.25 520.0114Q1178.25 521.1833 1178.25 523.04266Q1178.25 525.0114 1177.1719 526.1989Q1176.0938 527.3864 1174.2812 527.3864Q1172.4531 527.3864 1171.2969 525.98016Q1170.1562 524.5739 1170.1562 522.33954L1170.1562 521.71454Q1170.1562 518.1833 1171.6562 516.3239Q1173.1719 514.4489 1176.1562 514.40204L1176.4375 514.40204ZM1174.3125 520.16766Q1173.4688 520.16766 1172.7656 520.6833Q1172.0625 521.1833 1171.7969 521.9333L1171.7969 522.52704Q1171.7969 524.10516 1172.5 525.0739Q1173.2188 526.04266 1174.2812 526.04266Q1175.375 526.04266 1176.0 525.2458Q1176.6406 524.4333 1176.6406 523.1208Q1176.6406 521.79266 1176.0 520.98016Q1175.3594 520.16766 1174.3125 520.16766ZM1188.4531 527.21454L1180.0625 527.21454L1180.0625 526.04266L1184.5 521.1208Q1185.4844 520.0114 1185.8438 519.3083Q1186.2188 518.60516 1186.2188 517.85516Q1186.2188 516.85516 1185.6094 516.21454Q1185.0156 515.5739 1184.0 515.5739Q1182.7812 515.5739 1182.1094 516.27704Q1181.4375 516.96454 1181.4375 518.1833L1179.8125 518.1833Q1179.8125 516.41766 1180.9531 515.33954Q1182.0938 514.2458 1184.0 514.2458Q1185.7812 514.2458 1186.8125 515.1833Q1187.8594 516.1208 1187.8594 517.66766Q1187.8594 519.5583 1185.4531 522.16766L1182.0312 525.8864L1188.4531 525.8864L1188.4531 527.21454ZM1190.2656 526.35516Q1190.2656 525.9333 1190.5156 525.65204Q1190.7656 525.3708 1191.2656 525.3708Q1191.7656 525.3708 1192.0156 525.65204Q1192.2812 525.9333 1192.2812 526.35516Q1192.2812 526.7614 1192.0156 527.04266Q1191.7656 527.3083 1191.2656 527.3083Q1190.7656 527.3083 1190.5156 527.04266Q1190.2656 526.7614 1190.2656 526.35516ZM1203.0938 521.7614Q1203.0938 524.60516 1202.1094 525.9958Q1201.1406 527.3864 1199.0625 527.3864Q1197.0156 527.3864 1196.0312 526.02704Q1195.0469 524.66766 1195.0156 521.98016L1195.0156 519.8083Q1195.0156 516.98016 1195.9844 515.6208Q1196.9688 514.2458 1199.0469 514.2458Q1201.1094 514.2458 1202.0781 515.5739Q1203.0625 516.8864 1203.0938 519.65204L1203.0938 521.7614ZM1201.4688 519.52704Q1201.4688 517.46454 1200.875 516.52704Q1200.2969 515.5739 1199.0469 515.5739Q1197.7969 515.5739 1197.2188 516.52704Q1196.6562 517.46454 1196.6406 519.40204L1196.6406 522.0114Q1196.6406 524.08954 1197.2344 525.0739Q1197.8438 526.0583 1199.0625 526.0583Q1200.2656 526.0583 1200.8438 525.1364Q1201.4375 524.1989 1201.4688 522.1989L1201.4688 519.52704ZM1204.9219 516.8708Q1204.9219 515.73016 1205.6562 514.98016Q1206.3906 514.23016 1207.5469 514.23016Q1208.7188 514.23016 1209.4375 514.98016Q1210.1562 515.73016 1210.1562 516.9333L1210.1562 517.5583Q1210.1562 518.71454 1209.4219 519.4489Q1208.6875 520.1833 1207.5625 520.1833Q1206.4219 520.1833 1205.6719 519.4489Q1204.9219 518.71454 1204.9219 517.4958L1204.9219 516.8708ZM1206.1406 517.5583Q1206.1406 518.2458 1206.5156 518.6833Q1206.9062 519.1208 1207.5625 519.1208Q1208.1875 519.1208 1208.5625 518.6989Q1208.9531 518.2614 1208.9531 517.52704L1208.9531 516.8708Q1208.9531 516.1989 1208.5625 515.7458Q1208.1875 515.29266 1207.5312 515.29266Q1206.8906 515.29266 1206.5156 515.7458Q1206.1406 516.1989 1206.1406 516.91766L1206.1406 517.5583ZM1211.1562 524.0739Q1211.1562 522.91766 1211.8906 522.1833Q1212.625 521.4333 1213.7656 521.4333Q1214.9219 521.4333 1215.6562 522.1833Q1216.4062 522.91766 1216.4062 524.1364L1216.4062 524.7614Q1216.4062 525.91766 1215.6719 526.66766Q1214.9375 527.40204 1213.7969 527.40204Q1212.6562 527.40204 1211.9062 526.66766Q1211.1562 525.9333 1211.1562 524.71454L1211.1562 524.0739ZM1212.375 524.7614Q1212.375 525.4489 1212.75 525.90204Q1213.1406 526.33954 1213.7969 526.33954Q1214.4219 526.33954 1214.7969 525.91766Q1215.1875 525.48016 1215.1875 524.73016L1215.1875 524.0739Q1215.1875 523.3864 1214.7969 522.9489Q1214.4219 522.4958 1213.7812 522.4958Q1213.1562 522.4958 1212.7656 522.9333Q1212.375 523.3708 1212.375 524.10516L1212.375 524.7614ZM1207.9219 526.2458L1207.0 525.66766L1213.25 515.66766L1214.1719 516.2458L1207.9219 526.2458Z" fill-rule="nonzero"/><path stroke="#757575" stroke-width="1.0" stroke-linecap="butt" d="M1217.0 508.71454L991.5 508.71454L941.5506 508.71454" fill-rule="nonzero"/><path fill="#9e9e9e" d="M943.5506 508.71454C943.5506 507.60995 942.65515 506.71454 941.5506 506.71454C940.44604 506.71454 939.5506 507.60995 939.5506 508.71454C939.5506 509.8191 940.44604 510.71454 941.5506 510.71454C942.65515 510.71454 943.5506 509.8191 943.5506 508.71454" fill-rule="nonzero"/></svg>